<svg width="29" height="17" viewBox="0 0 29 17" fill="none" xmlns="http://www.w3.org/2000/svg">
<path d="M28.4115 9.12681C20.191 9.06208 12.0352 8.99735 3.84707 8.96499C6.20965 11.1334 8.50751 13.4312 10.7406 15.7291C11.9705 17.0237 9.67262 16.6677 8.99297 15.988C6.4362 13.3018 3.78234 10.7127 1.03138 8.22061C0.86956 8.05879 0.513554 7.57333 0.772468 7.31442C0.804831 7.28205 0.804831 7.28205 0.837196 7.24969C0.869561 7.21732 0.869561 7.21732 0.934288 7.21732C4.10598 5.59911 6.72748 3.43071 8.89588 0.615028C9.44607 -0.129349 11.7763 1.3594 11.2585 2.00669C9.64026 4.078 7.82786 5.82566 5.69182 7.24969C12.6825 7.31442 19.6732 7.37914 26.6315 7.41151C27.4406 7.44387 29.3824 9.12681 28.4115 9.12681Z" fill="white"/>
</svg>
