<svg width="1221" height="646" viewBox="0 0 1221 646" fill="none" xmlns="http://www.w3.org/2000/svg">
<path opacity="0.8" d="M314.367 -19.3987C534.174 151.321 684.713 396.479 738.512 671.26C761.456 789.291 763.824 914.051 751.754 1041.52C740.072 1131.58 717.418 1221.4 685.384 1307.24C410.172 1199.17 192.812 1038.33 36.7686 821.771C27.6123 806.832 18.4562 791.893 6.62859 778.029C-183.94 491.557 -255.217 127.586 -196.782 -249.791C-116.458 -235.559 -38.2338 -211.169 37.6043 -181.163C139.198 -133.587 231.982 -80.9138 314.367 -19.3987Z" fill="#003820"/>
<path opacity="0.8" d="M340.476 27.6993C577.165 222.728 735.189 497.549 785.716 801.923C807.237 932.661 805.88 1070.16 788.536 1210.17C772.805 1309 744.998 1407.22 706.986 1500.75C407.281 1372.97 172.974 1188.9 7.97761 945.407C-1.63316 928.661 -11.2437 911.915 -23.831 896.269C-224.634 574.67 -291.579 171.499 -215.221 -242.316C-127.198 -224.087 -41.8114 -194.737 40.7692 -159.276C151.16 -103.643 251.686 -42.6763 340.476 27.6993Z" fill="url(#paint0_linear)" fill-opacity="0.5"/>
<defs>
<linearGradient id="paint0_linear" x1="-19.4227" y1="-190.936" x2="-86.7155" y2="307.703" gradientUnits="userSpaceOnUse">
<stop stop-color="#6CBE45"/>
<stop offset="1" stop-color="#6CBE45" stop-opacity="0"/>
</linearGradient>
</defs>
</svg>
