<svg width="62" height="62" viewBox="0 0 62 62" fill="none" xmlns="http://www.w3.org/2000/svg">
<circle cx="31" cy="31" r="31" fill="#6CBE45"/>
<path d="M30.9891 62C13.909 62 0 48.091 0 30.9891C0 13.8871 13.909 0 30.9891 0C48.091 0 61.9781 13.909 61.9781 30.9891C61.9781 48.0691 48.091 62 30.9891 62ZM30.9891 1.006C14.4557 1.006 1.006 14.4557 1.006 30.9891C1.006 47.5224 14.4557 60.994 31.0109 60.994C47.5443 60.994 61.0159 47.5443 61.0159 30.9891C61.0159 14.4339 47.5443 1.006 30.9891 1.006Z" fill="#003820"/>
<path d="M30.989 49.0532C20.7541 49.0532 12.4437 40.7428 12.4437 30.5079C12.4437 20.273 20.7541 11.9626 30.989 11.9626C41.224 11.9626 49.5344 20.273 49.5344 30.5079C49.5344 40.721 41.224 49.0532 30.989 49.0532ZM30.989 14.3464C22.0882 14.3464 14.8275 21.5852 14.8275 30.5079C14.8275 39.4088 22.0663 46.6695 30.989 46.6695C39.8899 46.6695 47.1506 39.4307 47.1506 30.5079C47.1506 21.5852 39.9118 14.3464 30.989 14.3464Z" fill="#131718"/>
<path d="M6.97631 34.7288C5.88284 34.7288 5.00806 35.6035 5.00806 36.697C5.00806 37.7905 5.88284 38.6653 6.97631 38.6653C8.06979 38.6653 8.94457 37.7905 8.94457 36.697C8.94457 35.6035 8.04792 34.7288 6.97631 34.7288Z" fill="#003820"/>
<path d="M55.1766 34.7288C54.0832 34.7288 53.2084 35.6035 53.2084 36.697C53.2084 37.7905 54.0832 38.6653 55.1766 38.6653C56.2701 38.6653 57.1449 37.7905 57.1449 36.697C57.1449 35.6035 56.2482 34.7288 55.1766 34.7288Z" fill="#003820"/>
<path d="M30.9016 19.3108C27.5993 19.3108 24.8875 22.0007 24.8875 25.3249C24.8875 28.4741 27.315 31.0547 30.3767 31.3171V39.9993H31.3827V31.3171C34.4663 31.0766 36.8938 28.4741 36.8938 25.3249C36.8938 22.0007 34.2038 19.3108 30.9016 19.3108Z" fill="#003820"/>
<path d="M46.1665 29.8956C46.1665 27.9711 44.5918 26.3965 42.6673 26.3965C40.7428 26.3965 39.1682 27.9711 39.1682 29.8956C39.1682 31.667 40.4804 33.1104 42.1643 33.351V37.8998H43.1703V33.351C44.8543 33.1104 46.1665 31.667 46.1665 29.8956Z" fill="#003820"/>
<path d="M22.1538 26.309C20.2293 26.309 18.6547 27.8836 18.6547 29.8081C18.6547 31.5796 19.9668 33.023 21.6508 33.2635V37.8342H22.6568V33.2854C24.3626 33.0448 25.6748 31.5796 25.6748 29.8081C25.6529 27.8836 24.0783 26.309 22.1538 26.309Z" fill="#003820"/>
<path d="M41.552 44.6794C39.1463 40.8085 36.0409 37.9873 32.3231 36.3252L32.3012 36.3034C32.1044 36.2377 31.8857 36.1503 31.6888 36.0409L31.667 36.019C26.8119 34.0727 21.1696 34.2258 15.746 36.4346L15.3086 36.6095L15.4617 37.0688C15.9428 38.4028 16.5989 39.6931 17.4081 40.8741C18.3485 42.1862 19.3982 43.3453 20.5354 44.3295C23.619 46.9319 27.5555 48.3753 31.6232 48.3753C31.6888 48.3753 31.7545 48.3753 31.8201 48.3753C33.5915 48.3316 35.4067 48.0254 37.2 47.4349C38.6871 46.9101 40.0867 46.2102 41.3989 45.2917L41.7926 45.0293L41.552 44.6794Z" fill="#003820"/>
<path d="M31.0984 48.8346C30.7266 48.8346 30.3767 48.8346 30.0049 48.8127L29.5238 48.769V48.2878C29.5238 47.0413 29.6988 45.8166 30.0268 44.6138C30.4642 43.1923 31.0765 41.8801 31.842 40.721C33.6571 38.0311 36.3908 36.1065 39.4963 35.2536C40.6554 34.9693 41.8582 34.8162 43.1266 34.7944C44.2638 34.8162 45.3792 34.9475 46.4508 35.2536L46.91 35.3848L46.8007 35.8441C45.7947 40.3055 43.3672 44.0233 39.9337 46.2759L39.9118 46.2977C39.7806 46.3852 39.6275 46.4727 39.4963 46.5602L39.4744 46.582C37.0469 48.0692 34.2257 48.8346 31.0984 48.8346ZM30.5298 47.8286C33.7009 47.9161 36.522 47.2381 38.9714 45.751C39.1245 45.6416 39.2776 45.5323 39.4526 45.4448C42.5361 43.411 44.7668 40.1087 45.7728 36.1284C44.9199 35.9316 44.0451 35.8441 43.1704 35.8222C41.9894 35.8441 40.8522 35.9753 39.7806 36.2378C36.8938 37.0032 34.3788 38.7965 32.6949 41.2896C31.9732 42.3612 31.4265 43.5859 31.0109 44.8981C30.7266 45.8603 30.5735 46.8445 30.5298 47.8286Z" fill="#003820"/>
<path d="M39.7587 36.2377C36.8719 37.0032 34.3569 38.7965 32.673 41.2896C31.9513 42.3612 31.4046 43.5859 30.989 44.8981C30.7266 45.8384 30.5735 46.8226 30.5298 47.8067C33.7009 47.8942 36.522 47.2162 38.9714 45.7291C39.1245 45.6198 39.2776 45.5104 39.4525 45.4229C42.5361 43.3891 44.7668 40.0868 45.7728 36.1065C44.9199 35.9097 44.0451 35.8222 43.1703 35.8004C41.9675 35.8441 40.8303 35.9753 39.7587 36.2377Z" fill="#6CBE45"/>
<path d="M30.989 49.0532C20.7541 49.0532 12.4437 40.7428 12.4437 30.5079C12.4437 20.273 20.7541 11.9626 30.989 11.9626C41.224 11.9626 49.5344 20.273 49.5344 30.5079C49.5344 40.721 41.224 49.0532 30.989 49.0532ZM30.989 14.3464C22.0882 14.3464 14.8275 21.5852 14.8275 30.5079C14.8275 39.4088 22.0663 46.6695 30.989 46.6695C39.8899 46.6695 47.1506 39.4307 47.1506 30.5079C47.1506 21.5852 39.9118 14.3464 30.989 14.3464Z" fill="#003820"/>
<path d="M11.3941 23.9253C11.7221 24.9531 11.6565 25.7404 11.5471 26.3746C11.3722 27.4244 11.0004 28.4085 9.95067 29.1083C8.90093 29.8082 7.71998 29.8519 6.67024 29.6769C5.77359 29.5238 4.65825 29.1739 3.84908 28.1461C3.36795 27.5119 2.93056 26.5059 3.17112 25.0406C3.2586 24.4939 3.49917 23.6191 4.19899 22.7006L6.86707 23.0723C6.58276 23.2473 6.29846 23.466 6.07976 23.7284C5.79546 24.0565 5.59864 24.4283 5.51116 24.9094C5.44555 25.2593 5.46742 25.6748 5.57677 25.981C5.64238 26.1559 5.81733 26.5059 6.25472 26.7246L6.67024 24.2752L8.4198 24.5813L8.00428 27.0307C8.46354 27.0089 8.74784 26.812 8.96654 26.5715C9.18523 26.3309 9.33832 25.9372 9.38206 25.6092C9.44767 25.2593 9.44767 24.7782 9.33832 24.4064C9.25084 24.1002 9.03215 23.7066 8.83532 23.4223L11.3941 23.9253Z" fill="#003820"/>
<path d="M4.70203 19.945L6.25476 17.0145C6.56093 16.4459 7.10767 15.5711 7.91684 15.3305C8.15741 15.2649 8.76975 15.1337 9.60079 15.5711C9.92883 15.746 10.2569 15.9866 10.4318 16.3802C10.5412 16.5989 10.5849 16.9051 10.563 17.1894L10.6287 17.2332C10.8474 16.9926 11.1098 16.8614 11.4378 16.752C11.9627 16.5989 12.4438 16.6427 12.9031 16.9051C13.6029 17.2769 13.9966 17.8674 14.084 18.4578C14.2153 19.2451 13.8872 19.945 13.6029 20.4698L11.8533 23.7503L4.70203 19.945ZM8.63853 19.1577L8.83536 18.764C8.90097 18.6328 8.98845 18.3922 8.92284 18.2173C8.90097 18.1298 8.81349 17.9986 8.61667 17.8892C8.41984 17.7799 8.24488 17.8018 8.15741 17.8455C7.98245 17.9111 7.85123 18.1298 7.80749 18.2173L7.61067 18.6109L8.63853 19.1577ZM11.3285 20.5792L11.5909 20.0762C11.6565 19.945 11.7659 19.7263 11.744 19.5076C11.7221 19.3326 11.6128 19.1358 11.3941 19.0265C11.2191 18.939 11.0223 18.9171 10.8692 18.9827C10.6505 19.0702 10.4974 19.3108 10.4318 19.442L10.1475 19.9668L11.3285 20.5792Z" fill="#003820"/>
<path d="M15.0025 17.9986L9.40393 12.1376L12.0283 9.62262C12.5969 9.07588 13.2311 8.61662 14.1933 8.66036C14.6963 8.68223 15.4618 8.85718 16.2491 9.68822C16.9926 10.4755 17.1457 11.2191 17.1239 11.6783C17.102 12.1376 16.927 12.8156 16.2491 13.4716L15.2868 14.3902L16.9708 16.1616L15.0025 17.9986ZM13.8434 12.903L14.1715 12.575C14.2808 12.4875 14.4777 12.2688 14.4558 11.9845C14.4558 11.8533 14.412 11.6783 14.2371 11.5034C14.0621 11.3284 13.8872 11.2847 13.7341 11.2847C13.5591 11.2847 13.3623 11.394 13.2092 11.5471L12.8374 11.897L13.8434 12.903Z" fill="#003820"/>
<path d="M25.5873 9.66631C25.2593 10.563 24.5376 11.5471 23.2035 12.1157C21.8695 12.6843 20.6667 12.575 19.7919 12.1813C18.9827 11.8314 18.1736 11.0878 17.6487 9.90688C17.1457 8.72593 17.1676 7.63245 17.4519 6.80141C17.7799 5.90476 18.5016 4.92063 19.8356 4.35203C21.1697 3.78342 22.3725 3.89277 23.2473 4.28642C24.0564 4.63633 24.8656 5.37989 25.3905 6.56085C25.9154 7.7418 25.8716 8.85714 25.5873 9.66631ZM20.1418 7.5231C20.0106 7.91675 20.0543 8.41975 20.2293 8.8134C20.4042 9.22892 20.7323 9.57884 21.1041 9.75379C21.4102 9.88501 21.782 9.90688 22.1757 9.73192C22.5693 9.55697 22.8099 9.27266 22.9192 8.96649C23.0505 8.61658 23.0505 8.15732 22.8318 7.69806C22.6349 7.2388 22.3069 6.91076 21.957 6.75767C21.6727 6.64832 21.3009 6.58272 20.8854 6.77954C20.4261 6.93263 20.2293 7.26067 20.1418 7.5231Z" fill="#003820"/>
<path d="M28.9552 10.2568L29.0864 2.1651L34.2258 2.25258L34.182 4.57074L31.7982 4.52701L31.7108 10.3224L28.9552 10.2568Z" fill="#003820"/>
<path d="M36.1066 9.86317L35.6255 10.7817L32.8262 9.95065L37.6375 2.93054L40.568 3.80532L40.896 12.3563L38.0749 11.5252L38.1186 10.4974L36.1066 9.86317ZM38.4248 5.9704L38.3154 5.94853C38.2061 6.27657 38.0749 6.51714 37.9436 6.77957L37.1345 8.15735L38.2061 8.46352L38.3154 6.86705C38.3373 6.56088 38.3592 6.2547 38.4248 5.9704Z" fill="#003820"/>
<path d="M45.3574 6.64832C45.7073 6.69205 46.2321 6.77953 46.8445 6.97636C47.3912 7.15131 47.8067 7.39188 48.3097 7.76366C49.2939 8.50722 49.6 9.18518 49.6875 9.46948C49.8843 10.06 49.8625 10.7598 49.2939 11.5033C48.9658 11.9407 48.6159 12.1157 48.3535 12.2032C48.091 12.2906 47.763 12.3125 47.4568 12.225L47.435 12.2469C47.6537 12.5749 47.7849 12.9249 47.7849 13.2529C47.8067 13.6684 47.6974 14.0621 47.3694 14.4776C46.8882 15.1118 46.1447 15.5273 45.248 15.4398C44.6575 15.3742 43.9577 15.1118 43.1048 14.4557C42.5799 14.0621 42.1207 13.6466 41.7489 13.0998C41.3771 12.5749 41.1366 12.0282 41.0491 11.8095L43.1048 10.6286C43.1485 10.9566 43.2579 11.3284 43.411 11.6346C43.5859 11.9845 43.8265 12.2469 44.0889 12.4219C44.2639 12.5531 44.5263 12.6843 44.7013 12.7062C44.8981 12.7499 45.0512 12.6843 45.1605 12.5312C45.2699 12.3781 45.2918 12.2469 45.2043 12.0501C45.1168 11.897 44.8544 11.6783 44.7231 11.5908L43.914 10.9785L45.1387 9.36013L45.8604 9.90687C46.1884 10.1474 46.3196 10.213 46.3852 10.2349C46.5383 10.3005 46.7351 10.3005 46.8664 10.1037C47.0194 9.885 46.9538 9.68817 46.8882 9.6007C46.7789 9.382 46.5821 9.22892 46.4946 9.16331C46.254 8.96648 45.926 8.83526 45.6198 8.76966C45.3574 8.70405 45.0293 8.70405 44.7231 8.74779L45.3574 6.64832Z" fill="#003820"/>
<path d="M50.7592 21.6071C49.8188 21.4321 48.7472 20.8635 47.9599 19.6607C47.1726 18.436 47.107 17.2332 47.3257 16.2928C47.5444 15.4399 48.1349 14.5213 49.2283 13.7997C50.2999 13.0998 51.3934 12.9467 52.2682 13.0998C53.2086 13.2748 54.2802 13.8434 55.0675 15.0462C55.8548 16.2709 55.9204 17.4737 55.7017 18.4141C55.483 19.267 54.8925 20.1855 53.8209 20.8854C52.7274 21.6071 51.634 21.7383 50.7592 21.6071ZM51.9839 15.8554C51.5902 15.7898 51.0872 15.921 50.7373 16.1397C50.3437 16.3803 50.0594 16.7739 49.9719 17.1676C49.8844 17.4956 49.9281 17.8674 50.1687 18.2173C50.3874 18.5672 50.7373 18.764 51.0654 18.8296C51.4371 18.8952 51.8745 18.8078 52.3119 18.5453C52.7493 18.261 53.0117 17.9111 53.0992 17.5175C53.1648 17.2332 53.1648 16.8395 52.9024 16.4677C52.6181 16.0522 52.2682 15.8991 51.9839 15.8554Z" fill="#003820"/>
<path d="M50.2561 23.0942L58.1947 21.5196L58.7196 24.1221L56.0297 24.6688L56.3577 26.3309L59.0476 25.7841L59.5725 28.3866L51.6339 29.9612L51.109 27.3587L53.8646 26.812L53.5365 25.1499L50.781 25.6967L50.2561 23.0942Z" fill="#003820"/>
<path d="M14.5432 41.2021L16.6646 43.7609C17.0801 44.2639 17.6706 45.0949 17.605 45.9478C17.5831 46.2103 17.4737 46.8226 16.752 47.4131C16.4677 47.6536 16.1178 47.8505 15.7023 47.8723C15.4617 47.8723 15.1556 47.8286 14.8931 47.6755L14.8275 47.7193C14.9587 48.0036 15.0025 48.3097 14.9587 48.6378C14.915 49.1845 14.6744 49.6 14.2589 49.9499C13.6466 50.4529 12.9686 50.5842 12.3781 50.4529C11.6127 50.278 11.066 49.7094 10.6942 49.2501L8.31042 46.4071L14.5432 41.2021ZM11.4596 47.1069L11.8095 47.5443C11.9189 47.6755 12.072 47.8505 12.2907 47.9161C12.4438 47.9598 12.6625 47.9379 12.8811 47.763C13.0342 47.6318 13.1217 47.4568 13.1217 47.3037C13.1217 47.0632 12.9686 46.8445 12.8593 46.7351L12.4875 46.2759L11.4596 47.1069ZM13.7997 45.1605L14.084 45.4886C14.1933 45.6198 14.3683 45.7729 14.5651 45.7729C14.6744 45.7729 14.8275 45.751 14.9806 45.6198C15.1556 45.4667 15.1993 45.3136 15.1993 45.2261C15.1993 45.0293 15.0462 44.8325 14.9806 44.745L14.6963 44.417L13.7997 45.1605Z" fill="#003820"/>
<path d="M14.084 52.5743L18.8297 46.0134L21.0604 47.6318L16.3147 54.1926L14.084 52.5743Z" fill="#003820"/>
<path d="M27.8617 50.2561L26.0466 55.7891L26.9213 56.0734L25.6967 59.7693L23.4878 59.0476L23.9908 57.5168L20.0762 56.2265L19.5732 57.7573L17.3644 57.0356L18.5891 53.3397C19.0265 53.4272 19.442 53.3397 19.7263 53.1647C20.3386 52.793 20.6229 51.9838 20.8416 51.3058L21.8258 48.2878L27.8617 50.2561ZM22.9848 52.2681C22.7661 52.9242 22.5912 53.449 22.1538 53.9083C21.9788 54.0833 21.8039 54.2145 21.5852 54.3238L23.5972 54.9799L24.6907 51.6776L23.3348 51.2402L22.9848 52.2681Z" fill="#003820"/>
<path d="M31.4702 54.3676C31.6233 54.0395 31.7326 53.799 31.7764 53.624C31.8201 53.4491 31.842 53.296 31.8201 53.1648C31.8201 52.9023 31.7108 52.7055 31.5358 52.5743C31.3609 52.4431 31.1203 52.3774 30.7923 52.3993C30.7267 52.3993 30.661 52.3993 30.6173 52.4212C30.5517 52.4212 30.508 52.4431 30.4642 52.4431C30.3986 52.4431 30.3549 52.4649 30.3111 52.4649L30.2237 50.2124C30.333 50.1905 30.4424 50.1686 30.5298 50.1468C30.6173 50.1249 30.7048 50.103 30.7923 50.103C30.8797 50.0812 30.9672 50.0812 31.0547 50.0812C31.1422 50.0812 31.2515 50.0593 31.3827 50.0593C31.7764 50.0374 32.1482 50.0593 32.5418 50.1468C32.9136 50.2124 33.2635 50.3436 33.5697 50.5185C33.8759 50.6935 34.1383 50.9559 34.3351 51.2621C34.5319 51.5683 34.6413 51.9619 34.6632 52.4431C34.6632 52.6618 34.6632 52.8804 34.6194 53.0991C34.5757 53.3178 34.5101 53.5584 34.4226 53.799C34.3351 54.0614 34.2039 54.3457 34.0727 54.6519C33.9196 54.9799 33.7665 55.3298 33.5697 55.7672L33.4166 56.0734L34.9475 56.0078L34.3351 58.151L29.6332 58.3478L31.4702 54.3676Z" fill="#003820"/>
<path d="M42.3175 51.9401C42.7549 53.2523 42.8205 54.3457 42.4925 55.1986C42.1863 56.0734 41.5302 56.6639 40.5461 56.9919C39.5619 57.32 38.6872 57.2325 37.9217 56.7076C37.1563 56.2046 36.544 55.2861 36.1066 53.9739C35.6692 52.6618 35.6036 51.5683 35.9316 50.7154C36.2378 49.8406 36.8939 49.2501 37.878 48.9221C38.8621 48.5941 39.7369 48.6815 40.5023 49.2064C41.2678 49.7313 41.8801 50.6279 42.3175 51.9401ZM39.9556 52.7274C39.5619 51.5246 39.1027 50.9997 38.6216 51.1528C38.1404 51.3059 38.0748 52.0057 38.4903 53.2085C38.884 54.4113 39.3432 54.9362 39.8244 54.7831C40.3055 54.6082 40.3492 53.9302 39.9556 52.7274Z" fill="#003820"/>
<path d="M43.4547 49.9937L41.8145 49.6001L42.1425 47.0413L43.7171 45.9041L48.4846 52.465L46.3633 54.0177L43.4547 49.9937Z" fill="#003820"/>
<path d="M48.4846 47.0413C48.3534 46.7132 48.2222 46.4727 48.1347 46.3196C48.0472 46.1884 47.9379 46.0572 47.8285 45.9697C47.6317 45.7947 47.413 45.751 47.1943 45.7729C46.9756 45.8166 46.7569 45.9697 46.5601 46.2102C46.5163 46.254 46.4726 46.2977 46.4507 46.3633C46.407 46.4071 46.3851 46.4508 46.3633 46.4946C46.3414 46.5383 46.2977 46.582 46.2758 46.6258L44.5481 45.1824C44.5918 45.073 44.6574 44.9856 44.7012 44.9199C44.7449 44.8325 44.7887 44.7669 44.8324 44.7012C44.8761 44.6356 44.9417 44.5482 44.9855 44.4826C45.0511 44.4169 45.1167 44.3295 45.1823 44.2201C45.4229 43.9139 45.7072 43.6515 46.0134 43.4109C46.3195 43.1704 46.6476 42.9954 46.9756 42.8861C47.3255 42.7767 47.6754 42.7549 48.0472 42.8205C48.419 42.8861 48.7908 43.061 49.1407 43.3672C49.3156 43.4984 49.4687 43.6734 49.5999 43.8483C49.7312 44.0233 49.8624 44.2201 49.9936 44.4607C50.1248 44.7013 50.256 44.9856 50.3872 45.2917C50.5185 45.6198 50.6934 45.9915 50.8684 46.4071L50.9996 46.7132L51.9837 45.5323L53.1865 47.4131L50.1904 51.0434L48.4846 47.0413Z" fill="#003820"/>
</svg>
