<svg width="45" height="45" viewBox="0 0 45 45" fill="none" xmlns="http://www.w3.org/2000/svg">
<path d="M0.681818 45C58.7727 45 -13.5 45 44.3182 45C44.7273 45 45 44.7281 45 44.3202C45 43.9124 44.7273 43.6405 44.3182 43.6405H40.1591C41.4545 42.4849 42.3409 40.7175 42.3409 38.6782C42.3409 38.2704 42.0682 37.9985 41.6591 37.9985C40.5682 37.9985 39.5455 38.3383 38.6591 38.9501C38.3864 37.5226 37.0909 34.8716 36.1364 35.8912C35.3864 36.7749 34.8409 37.7945 34.6364 38.9501C33.75 38.3383 32.7273 37.9985 31.6364 37.9985C31.2273 37.9985 30.9545 38.3383 30.9545 38.6782C30.9545 40.6495 31.7727 42.4849 33.1364 43.5725H25.5682C26.8636 42.4169 27.75 40.6495 27.75 38.6102C27.75 38.2024 27.4773 37.9305 27.0682 37.9305C25.9773 37.9305 24.9545 38.2704 24.0682 38.8821C23.8636 37.7266 23.3182 36.7069 22.5682 35.8232C22.4318 35.6873 22.2273 35.6193 22.0909 35.6193C21.8864 35.6193 21.6818 35.6873 21.6136 35.8232C20.8636 36.7069 20.3182 37.7266 20.1136 38.8821C19.2273 38.2704 18.2045 37.9305 17.1136 37.9305C16.7045 37.9305 16.4318 38.2704 16.4318 38.6102C16.4318 40.5815 17.25 42.4169 18.6136 43.5045H10.2273C11.5227 42.3489 12.4091 40.5815 12.4091 38.5423C12.4091 38.1344 12.1364 37.8625 11.7273 37.8625C10.6364 37.8625 9.61364 38.2024 8.72727 38.8142C8.45455 37.3867 7.09091 34.7356 6.20455 35.7553C5.45455 36.6389 4.90909 37.6586 4.70455 38.8142C3.81818 38.2024 2.79545 37.8625 1.70455 37.8625C1.29545 37.8625 1.02273 38.2024 1.02273 38.5423C1.02273 40.5136 1.84091 42.3489 3.20455 43.4365H0.681818C0.272727 43.4365 0 43.7084 0 44.1163C0 44.5241 0.272727 45 0.681818 45ZM32.3864 39.426C33.2727 39.5619 34.0909 40.0377 34.7045 40.7855C34.9091 40.9894 35.1818 41.0574 35.4545 40.9894C35.7273 40.9214 35.8636 40.6495 35.8636 40.3776C35.8636 39.358 36.1364 38.3383 36.6818 37.5226C37.2273 38.3383 37.5 39.358 37.5 40.3776C37.5 40.6495 37.7045 40.9214 37.9091 40.9894C38.1818 41.0574 38.4545 40.9894 38.6591 40.7855C39.2727 40.0377 40.0909 39.6299 40.9773 39.426C40.2273 45 33.1364 45 32.3864 39.426ZM17.7273 39.426C18.6136 39.5619 19.4318 40.0377 20.0455 40.7855C20.25 40.9894 20.5227 41.0574 20.7955 40.9894C21.0682 40.9214 21.2045 40.6495 21.2045 40.3776C21.2045 39.358 21.4773 38.3383 22.0227 37.5226C22.5682 38.3383 22.8409 39.358 22.8409 40.3776C22.8409 40.6495 23.0455 40.9214 23.25 40.9894C23.5227 41.0574 23.7955 40.9894 24 40.7855C24.6136 40.0377 25.4318 39.6299 26.3182 39.426C25.5682 45 18.4773 45 17.7273 39.426ZM2.38636 39.426C3.27273 39.5619 4.09091 40.0377 4.70455 40.7855C4.90909 40.9894 5.18182 41.0574 5.45455 40.9894C5.72727 40.9214 5.86364 40.6495 5.86364 40.3776C5.86364 39.358 6.13636 38.3383 6.68182 37.5226C7.22727 38.3383 7.5 39.358 7.5 40.3776C7.5 40.6495 7.70455 40.9214 7.90909 40.9894C8.18182 41.0574 8.45455 40.9894 8.65909 40.7855C9.27273 40.0377 10.0909 39.6299 10.9773 39.426C10.2955 45 3.13636 45 2.38636 39.426Z" fill="white"/>
<path d="M0.681818 33.648C15.0682 33.648 30.75 33.648 44.3182 33.648C44.7273 33.648 45 33.3761 45 32.9683C45 32.5604 44.7273 32.2885 44.3182 32.2885H40.1591C41.4545 31.1329 42.3409 29.3656 42.3409 27.3263C42.3409 26.9184 42.0682 26.6465 41.6591 26.6465C40.5682 26.6465 39.5455 26.9864 38.6591 27.5982C38.4545 26.4426 37.9091 25.423 37.1591 24.5393C36.8864 24.2674 36.4091 24.2674 36.1364 24.5393C35.4545 25.287 34.9773 26.1707 34.7045 27.1903V24.1994C34.7045 22.568 33.3409 21.2085 31.7045 21.2085H27.1364V19.1692H27.8864C28.2955 19.1692 28.5682 18.8973 28.5682 18.4894C28.5682 15.2266 25.9091 12.4396 22.4318 12.4396C19.0909 12.4396 16.3636 15.1586 16.3636 18.4894C16.3636 18.8973 16.6364 19.1692 17.0455 19.1692H17.7955V21.2085H13.2955C11.6591 21.2085 10.2955 22.568 10.2955 24.1994V26.9184C9.75 27.0544 9.20455 27.3263 8.79545 27.6662C8.59091 26.5106 8.04545 25.4909 7.29545 24.6072C7.02273 24.3353 6.54545 24.3353 6.27273 24.6072C5.52273 25.4909 4.97727 26.5106 4.77273 27.6662C3.88636 27.0544 2.86364 26.7145 1.77273 26.7145C1.36364 26.7145 1.09091 27.0544 1.09091 27.3943C1.09091 29.3656 1.90909 31.2009 3.27273 32.2885H0.681818C0.272727 32.2885 0 32.5604 0 32.9683C0 33.3761 0.272727 33.648 0.681818 33.648ZM22.5 13.7991C24.8864 13.7991 26.8636 15.5665 27.2045 17.8097C23.5227 17.8097 21 17.8097 17.7955 17.8097C18.1364 15.5665 20.1136 13.7991 22.5 13.7991ZM25.7727 19.1692V21.2085H19.1591V19.1692H25.7727ZM17.7273 28.142C18.6136 28.2779 19.4318 28.7538 20.0455 29.5015C20.25 29.7054 20.5227 29.7734 20.7955 29.7054C21.0682 29.6375 21.2045 29.3656 21.2045 29.0937C21.2045 28.074 21.4773 27.0544 22.0227 26.2387C22.5682 27.0544 22.8409 28.074 22.8409 29.0937C22.8409 29.3656 23.0455 29.6375 23.25 29.7054C23.5227 29.7734 23.7955 29.7054 24 29.5015C24.6136 28.7538 25.4318 28.3459 26.3182 28.142C25.5682 33.5801 18.4773 33.784 17.7273 28.142ZM35.4545 29.6375C35.7273 29.5695 35.8636 29.2976 35.8636 29.0257C35.8636 28.006 36.1364 26.9864 36.6818 26.1707C37.2273 26.9864 37.5 28.006 37.5 29.0257C37.5 29.2976 37.7045 29.5695 37.9091 29.6375C38.1818 29.7054 38.4545 29.6375 38.6591 29.4335C39.2727 28.6858 40.0909 28.2779 40.9773 28.074C40.2273 33.648 33.1364 33.648 32.3864 28.074C33.2727 28.21 34.0909 28.6858 34.7045 29.4335C34.8409 29.6375 35.1818 29.7734 35.4545 29.6375ZM11.5909 24.1994C11.5909 23.3157 12.3409 22.568 13.2273 22.568H31.6364C32.5227 22.568 33.2727 23.3157 33.2727 24.1994V26.9864C32.7273 26.7825 32.1136 26.6465 31.5 26.6465C31.0909 26.6465 30.8182 26.9864 30.8182 27.3263C30.8182 29.2976 31.6364 31.1329 33 32.2205H25.5682C26.8636 31.065 27.75 29.2976 27.75 27.2583C27.75 26.8505 27.4773 26.5785 27.0682 26.5785C25.9773 26.5785 24.9545 26.9184 24.0682 27.5302C23.8636 26.3746 23.3182 25.355 22.5682 24.4713C22.4318 24.3353 22.2273 24.2674 22.0909 24.2674C21.8864 24.2674 21.6818 24.3353 21.6136 24.4713C20.8636 25.355 20.3182 26.3746 20.1136 27.5302C19.2273 26.9184 18.2045 26.5785 17.1136 26.5785C16.7045 26.5785 16.4318 26.9184 16.4318 27.2583C16.4318 29.2296 17.25 31.065 18.6136 32.1526H10.2273C11.5227 30.997 12.4091 29.2296 12.4091 27.1903C12.4091 26.7825 12.1364 26.5106 11.7273 26.5106C11.6591 26.5106 11.6591 26.5106 11.5909 26.5106V24.1994ZM2.38636 28.142C3.27273 28.2779 4.09091 28.7538 4.70455 29.5015C4.90909 29.6375 5.18182 29.7734 5.45455 29.6375C5.72727 29.5695 5.86364 29.2976 5.86364 29.0257C5.86364 28.006 6.13636 26.9864 6.68182 26.1707C7.22727 26.9864 7.5 28.006 7.5 29.0257C7.5 29.2976 7.70455 29.5695 7.90909 29.6375C8.18182 29.7054 8.45455 29.6375 8.65909 29.4335C9.27273 28.6858 10.0909 28.2779 10.9773 28.074C10.6364 30.4532 8.86364 32.2885 6.68182 32.2885C4.5 32.2885 2.72727 30.4532 2.38636 28.142Z" fill="white"/>
<path d="M23.1819 0.679758C23.1819 0.271903 22.9091 0 22.5001 0C22.091 0 21.8182 0.271903 21.8182 0.679758V1.35952C21.8182 1.76737 22.091 2.03927 22.5001 2.03927C22.9091 2.03927 23.1819 1.76737 23.1819 1.35952V0.679758Z" fill="white"/>
<path d="M22.5001 8.1571C22.091 8.1571 21.8182 8.42901 21.8182 8.83686V9.10877C21.8182 9.51662 22.091 9.78853 22.5001 9.78853C22.9091 9.78853 23.1819 9.51662 23.1819 9.10877V8.83686C23.1819 8.49698 22.9091 8.1571 22.5001 8.1571Z" fill="white"/>
<path d="M23.1819 6.11787C23.1819 5.71001 22.9091 5.43811 22.5001 5.43811C22.091 5.43811 21.8182 5.71001 21.8182 6.11787V6.79763C21.8182 7.20548 22.091 7.47739 22.5001 7.47739C22.9091 7.47739 23.1819 7.20548 23.1819 6.79763V6.11787Z" fill="white"/>
<path d="M23.1819 3.39875C23.1819 2.9909 22.9091 2.71899 22.5001 2.71899C22.091 2.71899 21.8182 2.9909 21.8182 3.39875V4.07851C21.8182 4.48637 22.091 4.75827 22.5001 4.75827C22.9091 4.75827 23.1819 4.48637 23.1819 4.07851V3.39875Z" fill="white"/>
<path d="M18.8864 10.2643C19.091 10.6042 19.5001 10.6722 19.841 10.5362C20.1819 10.3323 20.2501 9.92445 20.1137 9.58457L19.9773 9.38064C19.7728 9.04076 19.3637 8.97279 19.0228 9.10874C18.6819 9.31267 18.6137 9.72052 18.7501 10.0604L18.8864 10.2643Z" fill="white"/>
<path d="M15.9545 3.80663C16.2955 3.60271 16.3636 3.19485 16.2273 2.85497L15.8864 2.24319C15.6818 1.90331 15.2727 1.83534 14.9318 1.97129C14.5909 2.10724 14.4545 2.65105 14.6591 2.99092L15 3.60271C15.2045 3.87461 15.6136 4.01056 15.9545 3.80663Z" fill="white"/>
<path d="M18.6819 8.49694C19.0228 8.29301 19.0909 7.88516 18.9546 7.54528L18.6137 6.9335C18.4091 6.59362 18 6.52564 17.6591 6.66159C17.3182 6.86552 17.25 7.27338 17.3864 7.61326L17.7273 8.22504C17.9319 8.56492 18.3409 8.70087 18.6819 8.49694Z" fill="white"/>
<path d="M16.3637 5.91388C16.5682 6.25376 16.9773 6.32174 17.3182 6.18578C17.6591 5.98186 17.7273 5.574 17.5909 5.23412L17.25 4.62234C17.0455 4.28246 16.6364 4.21449 16.2955 4.35044C15.9546 4.55436 15.8864 4.96222 16.0228 5.3021L16.3637 5.91388Z" fill="white"/>
<path d="M11.1819 8.56485C11.3864 8.22497 11.2501 7.81711 10.9092 7.61318L10.2955 7.2733C9.95461 7.06938 9.54552 7.20533 9.34098 7.54521C9.13643 7.88509 9.2728 8.29294 9.61371 8.49687L10.2273 8.83675C10.5683 9.04068 10.9773 8.90472 11.1819 8.56485Z" fill="white"/>
<path d="M16.7045 12.5755L16.9091 12.7115C17.25 12.9154 17.6591 12.7794 17.8636 12.4395C18.0682 12.0997 17.9318 11.6918 17.5909 11.4879L17.3864 11.4199C17.0454 11.216 16.6364 11.3519 16.4318 11.6918C16.2954 11.9637 16.3636 12.3716 16.7045 12.5755Z" fill="white"/>
<path d="M15.6136 10.4003L15 10.0604C14.6591 9.85649 14.25 9.99244 14.0454 10.3323C13.8409 10.6722 13.9773 11.0801 14.3182 11.284L14.9318 11.6239C15.2727 11.8278 15.6818 11.6918 15.8864 11.352C16.0909 11.0121 15.9545 10.5362 15.6136 10.4003Z" fill="white"/>
<path d="M13.2955 9.0408L12.6819 8.70092C12.341 8.49699 11.9319 8.63294 11.7273 8.97282C11.5228 9.3127 11.6591 9.72056 12.0001 9.92448L12.6137 10.2644C12.9546 10.4683 13.3637 10.3323 13.5682 9.99246C13.7046 9.65258 13.5682 9.17675 13.2955 9.0408Z" fill="white"/>
<path d="M12.8182 14.4109H12.1364C11.7273 14.4109 11.4546 14.6828 11.4546 15.0906C11.4546 15.4985 11.7273 15.7704 12.1364 15.7704H12.8182C13.2273 15.7704 13.5 15.4985 13.5 15.0906C13.5 14.6828 13.1591 14.4109 12.8182 14.4109Z" fill="white"/>
<path d="M15.1364 14.4109H14.8637C14.4546 14.4109 14.1819 14.6828 14.1819 15.0906C14.1819 15.4985 14.4546 15.7704 14.8637 15.7704H15.1364C15.5455 15.7704 15.8182 15.4985 15.8182 15.0906C15.8182 14.6828 15.4773 14.4109 15.1364 14.4109Z" fill="white"/>
<path d="M6.68182 14.4109C6.27273 14.4109 6 14.6828 6 15.0906C6 15.4985 6.27273 15.7704 6.68182 15.7704H7.36364C7.77273 15.7704 8.04545 15.4985 8.04545 15.0906C8.04545 14.6828 7.77273 14.4109 7.36364 14.4109H6.68182Z" fill="white"/>
<path d="M10.0909 14.4109H9.40911C9.00002 14.4109 8.72729 14.6828 8.72729 15.0906C8.72729 15.4985 9.00002 15.7704 9.40911 15.7704H10.0909C10.5 15.7704 10.7727 15.4985 10.7727 15.0906C10.7727 14.6828 10.4318 14.4109 10.0909 14.4109Z" fill="white"/>
<path d="M34.9091 15.7704H35.5909C36 15.7704 36.2727 15.4985 36.2727 15.0906C36.2727 14.6828 36 14.4109 35.5909 14.4109H34.9091C34.5 14.4109 34.2273 14.6828 34.2273 15.0906C34.2273 15.4985 34.5682 15.7704 34.9091 15.7704Z" fill="white"/>
<path d="M30.1364 14.4109H29.8637C29.4546 14.4109 29.1819 14.6828 29.1819 15.0906C29.1819 15.4985 29.4546 15.7704 29.8637 15.7704H30.1364C30.5455 15.7704 30.8182 15.4985 30.8182 15.0906C30.8182 14.6828 30.5455 14.4109 30.1364 14.4109Z" fill="white"/>
<path d="M32.1818 15.7704H32.8636C33.2727 15.7704 33.5455 15.4985 33.5455 15.0906C33.5455 14.6828 33.2727 14.4109 32.8636 14.4109H32.1818C31.7727 14.4109 31.5 14.6828 31.5 15.0906C31.5 15.4985 31.8409 15.7704 32.1818 15.7704Z" fill="white"/>
<path d="M37.6363 14.4109C37.2272 14.4109 36.9545 14.6828 36.9545 15.0906C36.9545 15.4985 37.2272 15.7704 37.6363 15.7704H38.3181C38.7272 15.7704 38.9999 15.4985 38.9999 15.0906C38.9999 14.6828 38.7272 14.4109 38.3181 14.4109H37.6363Z" fill="white"/>
<path d="M30.8864 10.2643C30.6818 9.92443 30.2727 9.85645 29.9318 9.99241L29.3182 10.3323C28.9773 10.5362 28.9091 10.9441 29.0455 11.2839C29.25 11.6238 29.6591 11.6918 30 11.5558L30.6136 11.216C30.9546 11.012 31.0909 10.6042 30.8864 10.2643Z" fill="white"/>
<path d="M32.3864 10.1964L33 9.85647C33.3409 9.65255 33.4091 9.24469 33.2727 8.90481C33.0682 8.56493 32.6591 8.49696 32.3182 8.63291L31.7045 9.04076C31.3636 9.24469 31.2954 9.65255 31.4318 9.99242C31.7045 10.2643 32.1136 10.4003 32.3864 10.1964Z" fill="white"/>
<path d="M35.3863 8.49698C35.7273 8.29305 35.7954 7.88519 35.6591 7.54531C35.4545 7.20543 35.0454 7.13746 34.7045 7.27341L34.0909 7.61329C33.75 7.81722 33.6818 8.22507 33.8182 8.56495C34.0227 8.90483 34.4318 8.97281 34.7727 8.83685L35.3863 8.49698Z" fill="white"/>
<path d="M28.0227 12.7114L28.2273 12.5755C28.5682 12.3715 28.6363 11.9637 28.5 11.6238C28.2954 11.2839 27.8863 11.216 27.5454 11.3519L27.3409 11.4879C27 11.6918 26.9318 12.0996 27.0682 12.4395C27.3409 12.7794 27.75 12.9153 28.0227 12.7114Z" fill="white"/>
<path d="M28.7045 4.41845C28.3636 4.21452 27.9545 4.35047 27.75 4.69035L27.4091 5.30213C27.2045 5.64201 27.3409 6.04987 27.6818 6.25379C28.0227 6.45772 28.4318 6.32177 28.6364 5.98189L28.9773 5.30213C29.1818 5.03023 29.0455 4.5544 28.7045 4.41845Z" fill="white"/>
<path d="M25.0228 9.38066L24.8864 9.58458C24.6818 9.92446 24.8182 10.3323 25.1591 10.5362C25.5 10.7402 25.9091 10.6042 26.1137 10.2643L26.25 10.0604C26.4546 9.72054 26.3182 9.31268 25.9773 9.10875C25.6364 8.90483 25.2273 9.04078 25.0228 9.38066Z" fill="white"/>
<path d="M27.2727 8.29305L27.6136 7.68126C27.8182 7.34139 27.6818 6.93353 27.3409 6.7296C27 6.52568 26.5909 6.66163 26.3864 7.00151L26.0454 7.61329C25.8409 7.95317 25.9773 8.36102 26.3182 8.56495C26.6591 8.7009 27.0682 8.56495 27.2727 8.29305Z" fill="white"/>
<path d="M30 3.53476L30.3409 2.99096C30.5455 2.65108 30.4091 2.24322 30.0682 2.0393C29.7273 1.83537 29.3182 1.97132 29.1137 2.3112L28.7727 2.92298C28.5682 3.26286 28.7046 3.67072 29.0455 3.87464C29.3864 4.0106 29.7955 3.87464 30 3.53476Z" fill="white"/>
</svg>
