<svg width="44" height="38" viewBox="0 0 44 38" fill="none" xmlns="http://www.w3.org/2000/svg">
<path d="M19.9122 27.5345L10.9974 17.8254C10.8724 17.6905 10.6833 17.6439 10.5142 17.7068C10.3423 17.7673 10.225 17.9248 10.215 18.1063L9.68535 27.279C9.67386 27.4941 9.81321 27.6828 10.011 27.7395C10.0426 27.7491 10.0766 27.7548 10.1101 27.7553L19.5545 28.293C19.7374 28.3036 19.9088 28.2023 19.9878 28.0357C20.0664 27.8681 20.0362 27.6708 19.9122 27.5345ZM15.9526 27.2992C15.8836 27.5397 15.6336 27.6775 15.3942 27.6098C15.1553 27.5407 15.0164 27.2911 15.0858 27.0505L15.3473 26.1383L13.3021 25.5516L13.0407 26.4643C12.9712 26.7044 12.7222 26.8436 12.4838 26.7745C12.2443 26.7063 12.1059 26.4562 12.1749 26.2166L12.4349 25.303L10.9773 24.8853C10.7379 24.8166 10.5995 24.5665 10.6684 24.3264C10.7364 24.0864 10.9859 23.9476 11.2253 24.0163L12.6839 24.434L13.2576 22.4272C13.3265 22.1876 13.5765 22.0488 13.815 22.117C14.0539 22.1862 14.1928 22.4363 14.1243 22.6768L13.5497 24.6831L15.5953 25.2698L15.6906 24.9376C15.7591 24.6985 16.0081 24.5583 16.248 24.6275C16.4874 24.6956 16.6253 24.9458 16.5573 25.1863L15.9526 27.2992Z" fill="white"/>
<path d="M25.2068 13.7023L23.1602 13.1156L22.5549 15.2338L24.6001 15.82L25.2068 13.7023Z" fill="white"/>
<path d="M26.0609 10.7128L24.015 10.1259L23.41 12.2458L25.4558 12.8328L26.0609 10.7128Z" fill="white"/>
<path d="M24.3521 16.69L22.3064 16.1038L21.6997 18.2215L23.7458 18.8077L24.3521 16.69Z" fill="white"/>
<path d="M24.0024 6.89162L21.957 6.30481L21.3525 8.42294L23.3979 9.00975L24.0024 6.89162Z" fill="white"/>
<path d="M23.1465 9.87803L21.1029 9.29175L20.498 11.4113L22.5416 11.9975L23.1465 9.87803Z" fill="white"/>
<path d="M26.9163 7.72548L24.8706 7.13928L24.2639 9.257L26.311 9.84416L26.9163 7.72548Z" fill="white"/>
<path d="M29.8286 8.56031L27.783 7.97363L27.1763 10.0923L29.2219 10.679L29.8286 8.56031Z" fill="white"/>
<path d="M28.9732 11.5475L26.9271 10.9612L26.3229 13.0809L28.369 13.6672L28.9732 11.5475Z" fill="white"/>
<path d="M28.1187 14.5361L26.0726 13.9498L25.4689 16.0677L27.515 16.654L28.1187 14.5361Z" fill="white"/>
<path d="M27.2644 17.5243L25.2193 16.9381L24.6125 19.0563L26.6577 19.6425L27.2644 17.5243Z" fill="white"/>
<path d="M20.2373 9.04336L18.1917 8.45715L17.585 10.5763L19.6306 11.163L20.2373 9.04336Z" fill="white"/>
<path d="M15.2669 4.38517L13.2219 3.79871L12.6175 5.9173L14.6624 6.50377L15.2669 4.38517Z" fill="white"/>
<path d="M12.3559 3.55186L10.3093 2.96521L9.70498 5.08449L11.7515 5.67113L12.3559 3.55186Z" fill="white"/>
<path d="M39.7931 1.51639C36.5575 0.588839 34.6205 1.14527 34.5382 1.16928C34.3912 1.21393 34.2767 1.32963 34.2341 1.47894L32.6821 6.89975L8.67685 0.0175207C8.4379 -0.0511335 8.1889 0.0880955 8.11995 0.328145L6.88738 4.63752L5.56767 3.20058C5.44413 3.06663 5.25307 3.01862 5.08403 3.08248C4.91308 3.14249 4.79624 3.30044 4.78571 3.48192L4.16991 14.1339L0.0173079 28.6492C-0.050689 28.8893 0.0876992 29.1394 0.326646 29.2085L3.25147 30.0468L3.0877 32.8894C3.07525 33.1045 3.21508 33.2932 3.4114 33.3503C3.44349 33.3595 3.47749 33.3647 3.51148 33.3662L17.6323 34.1694L29.4791 37.5661C34.6291 39.0419 35.3862 36.3947 35.7928 34.9712L42.8553 10.2873L43.8959 6.64961C44.4102 4.85212 43.0157 2.44106 39.7931 1.51639ZM9.56847 2.28119C9.63695 2.04162 9.88643 1.90239 10.1259 1.97105L30.5105 7.81482C30.749 7.88443 30.8884 8.13456 30.8194 8.37413L26.2718 24.2731C26.2023 24.5136 25.9528 24.6529 25.7129 24.5842C25.4745 24.5146 25.3361 24.2645 25.4041 24.0249L26.4092 20.512L24.364 19.9258L23.8555 21.7022C23.786 21.9422 23.5375 22.0819 23.2986 22.0128C23.0591 21.9441 22.9208 21.694 22.9888 21.454L23.4973 19.6771L21.0183 18.9666C20.7789 18.8979 20.6405 18.6483 20.7094 18.4077L21.4397 15.8546L19.394 15.2684L19.0382 16.5118C18.9693 16.7519 18.7193 16.8911 18.4799 16.8224C18.2409 16.7538 18.103 16.5041 18.1715 16.2641L18.5268 15.0197L16.0492 14.3091C15.8098 14.2405 15.6714 13.9899 15.7399 13.7508L16.4702 11.1976L14.424 10.6104L14.1942 11.4146C14.1257 11.6547 13.8762 11.7944 13.6368 11.7257C13.3969 11.6571 13.259 11.4064 13.3279 11.1664L14.4125 7.37312L12.3683 6.78692L11.7784 8.84847C11.7099 9.08852 11.4604 9.22823 11.2205 9.15957C10.9811 9.08996 10.8427 8.83983 10.9116 8.60026L11.5006 6.53823L9.10973 5.85265C9.07765 5.85073 9.04796 5.85409 9.01731 5.84545C8.77789 5.77679 8.63902 5.52618 8.7075 5.28613L9.56847 2.28119ZM3.24572 27.6573C3.1782 27.8969 2.92824 28.0356 2.68882 27.9675C2.44939 27.8983 2.311 27.6482 2.37948 27.4077L2.87078 25.6918C2.93926 25.4527 3.18922 25.313 3.42769 25.3817C3.66759 25.4498 3.8055 25.7 3.73702 25.9405L3.24572 27.6573ZM4.0138 32.4886L5.62465 4.59863L9.03599 8.31508L8.02801 9.21719C7.84126 9.38378 7.82545 9.66944 7.99114 9.85572C8.05004 9.92293 8.1233 9.9671 8.20279 9.98919C8.34692 10.0305 8.5083 9.99927 8.62753 9.89221L9.647 8.98002L10.8015 10.2369L9.78731 11.1443C9.60055 11.3109 9.58475 11.5966 9.75044 11.7824C9.80981 11.8496 9.88308 11.8937 9.96209 11.9163C10.1053 11.9576 10.2681 11.9259 10.3868 11.8193L11.412 10.9019L12.567 12.1602L11.5476 13.0714C11.3613 13.238 11.3455 13.5242 11.5107 13.7104C11.5705 13.7767 11.6438 13.8209 11.7223 13.8439C11.866 13.8852 12.0279 13.854 12.1476 13.7464L13.1766 12.8251L14.3316 14.0825L13.3073 14.999C13.1206 15.1647 13.1048 15.4513 13.2709 15.6371C13.3294 15.7043 13.4031 15.748 13.4821 15.771C13.6263 15.8123 13.7867 15.7811 13.9069 15.6736L14.9417 14.747L16.0966 16.0053L15.0666 16.9257C14.8813 17.0913 14.8646 17.3779 15.0298 17.5642C15.0887 17.6304 15.1629 17.6746 15.2414 17.6967C15.3856 17.7375 15.5469 17.7068 15.6666 17.6002L16.7062 16.6693L17.8612 17.9276L16.8264 18.8528C16.6401 19.0194 16.6248 19.305 16.79 19.4918C16.8494 19.558 16.9227 19.6017 17.0012 19.6248C17.1453 19.6661 17.3072 19.6349 17.4259 19.5278L18.4708 18.5926L19.6258 19.8495L18.5867 20.7799C18.4009 20.946 18.3846 21.2317 18.5498 21.418C18.6087 21.4852 18.6829 21.5284 18.7615 21.5514C18.9056 21.5922 19.067 21.5615 19.1862 21.4544L20.2368 20.5149L21.3913 21.7727L20.3479 22.7061C20.1611 22.8727 20.1458 23.1583 20.311 23.3441C20.3699 23.4104 20.4441 23.455 20.5217 23.4781C20.6658 23.5189 20.8277 23.4877 20.9469 23.3801L22.0014 22.4377L23.1554 23.6946L22.1062 24.6327C21.9204 24.7993 21.9032 25.085 22.0694 25.2712C22.1283 25.3389 22.2015 25.3826 22.2805 25.4047C22.4247 25.4455 22.5856 25.4148 22.7058 25.3077L23.7659 24.3586L24.92 25.6164L23.8665 26.5598C23.6793 26.7264 23.6644 27.0116 23.8301 27.1974C23.8885 27.2641 23.9627 27.3078 24.0413 27.3313C24.1854 27.3731 24.3473 27.3414 24.466 27.2334L25.531 26.2814L26.7559 27.6156L26.1315 29.8C26.0855 29.9584 26.1295 30.1289 26.2459 30.2441C26.3618 30.3608 26.5318 30.404 26.6908 30.3579C26.7027 30.355 27.6154 30.1126 29.1951 30.2724L32.7305 34.1219L4.0138 32.4886ZM35.5126 32.6777C34.9174 31.4972 33.6374 30.3958 31.6909 29.8379C29.6017 29.2393 28.0531 29.2585 27.1969 29.354L35.0261 1.98593C35.5979 1.88463 37.1991 1.71371 39.5446 2.38537C42.4981 3.23275 43.3615 5.24388 43.0292 6.40092L35.5126 32.6777Z" fill="white"/>
<path d="M17.3235 8.2087L15.2778 7.62231L14.6732 9.74252L16.7189 10.3289L17.3235 8.2087Z" fill="white"/>
<path d="M18.1801 5.22132L16.1339 4.63464L15.5277 6.75236L17.5748 7.33904L18.1801 5.22132Z" fill="white"/>
<path d="M21.0921 6.05568L19.0464 5.46948L18.4402 7.58768L20.4858 8.17436L21.0921 6.05568Z" fill="white"/>
<path d="M22.294 12.8668L20.2493 12.2806L19.6426 14.3988L21.6878 14.985L22.294 12.8668Z" fill="white"/>
<path d="M19.3811 12.0333L17.3354 11.4469L16.7314 13.5653L18.777 14.1516L19.3811 12.0333Z" fill="white"/>
</svg>
