<svg width="32" height="25" viewBox="0 0 32 25" fill="none" xmlns="http://www.w3.org/2000/svg">
<path d="M28.1449 0.00491191C28.0065 0.0255862 27.8772 0.0850069 27.7724 0.17605C27.6676 0.267093 27.5918 0.38591 27.554 0.518217L25.8724 6.43222H15.9984C15.9757 6.43117 15.9529 6.43117 15.9302 6.43222C15.8346 6.43649 15.7408 6.45922 15.6542 6.49912C15.5675 6.53901 15.4898 6.5953 15.4253 6.66474C15.3608 6.73418 15.3109 6.81543 15.2785 6.90382C15.246 6.99222 15.2316 7.08603 15.2361 7.1799C15.2405 7.27376 15.2638 7.36585 15.3046 7.45087C15.3453 7.5359 15.4027 7.61218 15.4735 7.67539C15.5443 7.73861 15.6271 7.7875 15.7172 7.81926C15.8072 7.85103 15.9028 7.86504 15.9984 7.8605H25.4747L22.5659 18.1152C22.5326 18.2439 22.5366 18.3791 22.5772 18.5058L23.4181 21.2731C23.4541 21.3891 23.5197 21.4942 23.6087 21.5785C23.6976 21.6627 23.8069 21.7234 23.9263 21.7546C24.0456 21.7859 24.1712 21.7867 24.291 21.7572C24.4108 21.7276 24.521 21.6685 24.6111 21.5855L26.7814 19.5881C26.8294 19.5454 26.8715 19.4966 26.9064 19.443V23.5717H3.4542C2.32804 23.5717 1.4544 22.7196 1.4544 21.6524V7.17985C2.02592 7.58349 2.69802 7.8605 3.4542 7.8605H13.0896C13.1859 7.86185 13.2816 7.84437 13.371 7.80908C13.4605 7.7738 13.5419 7.72142 13.6105 7.65497C13.6791 7.58852 13.7336 7.50934 13.7708 7.42203C13.808 7.33472 13.8272 7.24102 13.8272 7.14637C13.8272 7.05173 13.808 6.95802 13.7708 6.87071C13.7336 6.7834 13.6791 6.70422 13.6105 6.63777C13.5419 6.57133 13.4605 6.51893 13.371 6.48364C13.2816 6.44835 13.1859 6.43087 13.0896 6.43222H6.54479V1.4332C6.54477 1.2438 6.46815 1.06217 6.33178 0.928243C6.19541 0.794318 6.01045 0.719086 5.81759 0.719067H3.4542C1.5597 0.719067 0 2.21955 0 4.06663V21.6524C0 23.4995 1.5597 25 3.45419 25H27.6336C27.8264 25 28.0114 24.9247 28.1477 24.7908C28.2841 24.6569 28.3607 24.4752 28.3608 24.2858V14.7007C28.3619 14.6368 28.3542 14.5729 28.338 14.511L31.974 1.65637C31.9996 1.56477 32.0064 1.46908 31.9939 1.37489C31.9814 1.28069 31.9499 1.18991 31.9012 1.10782C31.8525 1.02573 31.7877 0.954002 31.7104 0.896831C31.6332 0.83966 31.5451 0.798178 31.4513 0.774848L28.4289 0.0272333C28.3367 0.00146951 28.2401 -0.00611657 28.1449 0.00491191ZM28.7584 1.57827L30.3719 1.97999L25.6451 18.6954L24.4748 19.7667L24.0316 18.3049L28.7584 1.57827ZM3.45419 2.14735H5.09039V6.43222H3.45419C2.39636 6.43222 1.56418 5.67233 1.46576 4.70266C1.46344 4.67643 1.45965 4.65036 1.4544 4.62455V4.06663C1.4544 2.99949 2.32804 2.14735 3.45419 2.14735ZM8.16962 12.1565C7.3226 12.1562 6.3735 12.2593 5.29492 12.5025C5.20115 12.5225 5.11234 12.5605 5.03359 12.6144C4.95485 12.6682 4.88773 12.7368 4.83609 12.8163C4.78445 12.8957 4.74932 12.9844 4.73272 13.0772C4.71611 13.17 4.71836 13.2651 4.73934 13.3571C4.76031 13.449 4.7996 13.536 4.85494 13.613C4.91027 13.69 4.98057 13.7555 5.06177 13.8057C5.14298 13.8559 5.23349 13.8898 5.3281 13.9055C5.42272 13.9213 5.51956 13.9184 5.61307 13.8973C9.58322 13.0021 11.1013 14.0017 12.8055 15.1582C14.5097 16.3147 16.4628 17.6985 20.157 16.8766C20.2503 16.8561 20.3386 16.8178 20.4167 16.7638C20.4949 16.7098 20.5615 16.6412 20.6127 16.5619C20.6639 16.4826 20.6987 16.3942 20.7151 16.3018C20.7315 16.2093 20.7291 16.1145 20.7083 16.023C20.6874 15.9314 20.6483 15.8447 20.5933 15.7679C20.5383 15.6912 20.4684 15.6258 20.3877 15.5755C20.307 15.5253 20.217 15.4911 20.1228 15.4751C20.0286 15.459 19.9322 15.4613 19.8389 15.4818C16.5542 16.2126 15.3756 15.1755 13.6236 13.9865C12.3097 13.0949 10.7107 12.1575 8.16962 12.1565Z" fill="white"/>
</svg>
