<svg width="21" height="38" viewBox="0 0 21 38" fill="none" xmlns="http://www.w3.org/2000/svg">
<path d="M14.8737 0L12.5965 5.4627C9.95353 3.67556 6.74974 2.62528 3.29812 2.62528H0V34.5784H2.66525L2.60222 38L6.13617 34.3332C13.8142 33.0172 19.6691 26.4666 19.6691 18.6016C19.6691 15.7429 18.8917 13.0594 17.5385 10.735L21 2.43196L14.8737 0ZM2.6884 33.3231H1.28632V31.1305H2.72914L2.6884 33.3231ZM2.81232 28.932L2.7673 29.0404L2.75186 29.8748H1.28632V27.7294H3.31398L2.81232 28.932ZM1.28632 26.4741V24.3296H4.42622V23.0743H1.28632V20.9298H3.36372V19.6745H1.28632V17.5292H3.36372V16.2739H1.28632V14.1285H4.42622V12.8732H1.28632V10.7296H3.36372V9.47427H1.28632V7.32894H3.36372V6.07362H1.28632V3.88017H3.29812C6.5808 3.88017 9.61994 4.91204 12.0987 6.65651L10.5217 10.4388C9.27693 9.38765 7.78651 8.59136 6.11644 8.16163L5.30949 7.95408V22.9421L3.36372 27.6098V26.4741H1.28632ZM10.0071 11.6736L6.59581 19.8565V9.61946C7.89113 10.0722 9.04282 10.7823 10.0071 11.6736ZM5.49558 33.165L4.15481 34.5563L3.94814 34.7709L3.952 34.5621L3.97515 33.3064L4.03475 30.0949L7.23211 31.3636L5.49558 33.165ZM18.3828 18.6016C18.3828 25.2117 13.8952 30.8171 7.7372 32.6716L8.8936 31.472L11.0563 26.2846C13.1123 24.3041 14.3596 21.5663 14.3596 18.6021C14.3596 18.5284 14.3515 18.4564 14.3502 18.3836L16.9056 12.2535C17.8519 14.1762 18.3828 16.3291 18.3828 18.6016ZM16.6925 9.43284L16.1064 10.8384L14.002 15.886L13.0553 18.1577L9.96553 25.5686L9.02309 27.829L7.98932 30.3091L5.31678 29.2484L5.30906 29.2454L4.24613 28.8237L5.30906 26.2733L6.59538 23.1877L10.9684 12.6996L11.5177 11.3828L13.1496 7.46786L13.6598 6.24351L15.5803 1.63651L19.3235 3.12238L16.6925 9.43284Z" fill="white"/>
</svg>
