<svg width="33" height="33" viewBox="0 0 33 33" fill="none" xmlns="http://www.w3.org/2000/svg">
<path d="M30.25 5.5H29.15C28.8462 5.5 28.6 5.74624 28.6 6.05V9.9H22.55C22.2462 9.9 22 10.1462 22 10.45C22 10.7538 22.2462 11 22.55 11H28.6V23.65C28.6 23.9538 28.8462 24.2 29.15 24.2H30.25C31.1613 24.2 31.9 24.9387 31.9 25.85C31.9 26.7613 31.1613 27.5 30.25 27.5H2.75C2.15299 27.502 1.57321 27.7003 1.1 28.0643V12.65C1.1 11.7387 1.83873 11 2.75 11H10.45C10.7538 11 11 10.7538 11 10.45C11 10.1462 10.7538 9.9 10.45 9.9H2.75C1.23197 9.90182 0.00181836 11.132 0 12.65V30.25C0.00181836 31.768 1.23197 32.9982 2.75 33H4.4C4.70376 33 4.95 32.7538 4.95 32.45V28.6H30.25C31.768 28.5982 32.9982 27.368 33 25.85V8.25C32.9982 6.73197 31.768 5.50182 30.25 5.5ZM3.85 31.9H2.75C1.83873 31.9 1.1 31.1613 1.1 30.25C1.1 29.3387 1.83873 28.6 2.75 28.6H3.85V31.9ZM30.25 23.1H29.7V6.6H30.25C31.1613 6.6 31.9 7.33873 31.9 8.25V23.6643C31.4268 23.3003 30.847 23.102 30.25 23.1Z" fill="white"/>
<path d="M18.15 3.1262V1.1C18.15 0.492487 17.6575 0 17.05 0H15.95C15.3425 0 14.85 0.492487 14.85 1.1V3.1273C12.9849 4.00963 12.1501 6.20801 12.9597 8.1059L8.95621 20.7559C8.58991 22.1188 8.86436 23.4509 9.65581 24.1533L10.197 24.6345L9.91761 25.7109C9.84916 26.002 10.0259 26.2945 10.3155 26.3693C10.6051 26.444 10.9013 26.2737 10.9824 25.9859L11.3465 24.585L13.5086 17.6H19.4568L21.6288 24.6103C21.6455 24.6614 21.6696 24.7097 21.7003 24.7539L22.0171 25.9869C22.0796 26.2302 22.2989 26.4001 22.55 26.4C22.5964 26.4 22.6426 26.3943 22.6875 26.383C22.8289 26.3467 22.9501 26.2557 23.0243 26.1301C23.0986 26.0044 23.1199 25.8544 23.0835 25.7131L22.7997 24.6131L23.3112 24.1582C24.1032 23.457 24.3782 22.1232 24.0048 20.7367L20.02 8.1532C20.8666 6.24779 20.036 4.01512 18.15 3.1262ZM15.95 1.1H17.05V2.794C16.6857 2.73533 16.3143 2.73533 15.95 2.794V1.1ZM16.5 3.85C18.0188 3.85 19.25 5.08122 19.25 6.6C19.25 8.11878 18.0188 9.35 16.5 9.35C14.9812 9.35 13.75 8.11878 13.75 6.6C13.75 5.08122 14.9812 3.85 16.5 3.85ZM16.5 10.45C16.7413 10.4494 16.982 10.4261 17.2189 10.3801L18.4344 14.3H14.5294L15.7449 10.373C15.9934 10.4236 16.2464 10.4493 16.5 10.45ZM10.01 21.065L13.7407 9.27685C14.023 9.56768 14.3493 9.8123 14.7076 10.0017L10.5386 23.4679L10.384 23.331C9.91816 22.9179 9.76746 21.9764 10.01 21.065ZM13.849 16.5L14.1895 15.4H18.7754L19.1164 16.5H13.849ZM22.9488 21.043C23.2001 21.978 23.0489 22.918 22.5803 23.3327L22.4268 23.4691L19.69 14.641V14.6344L18.26 10.0188C18.6191 9.83417 18.947 9.59439 19.2319 9.3082L22.9488 21.043Z" fill="white"/>
</svg>
