<svg width="48" height="199" viewBox="0 0 48 199" fill="none" xmlns="http://www.w3.org/2000/svg">
<path d="M34.582 189.284C38.1778 183.861 39.6778 177.294 38.8089 170.785C38.432 167.99 37.548 165.198 36.3234 162.453C35.3881 160.536 34.2112 158.706 32.8561 157.034C27.5606 161.474 23.9449 166.659 22.1081 172.63C22.0171 173.03 21.926 173.43 21.7677 173.826C19.6896 181.607 20.8401 190.229 24.9696 198.19C26.645 197.279 28.1977 196.158 29.6552 194.929C31.5523 193.119 33.2157 191.261 34.582 189.284Z" fill="#3E762D"/>
<path d="M19.315 174.327C23.5635 173.137 27.2429 170.432 29.6812 166.706C30.7262 165.105 31.5098 163.28 32.0978 161.328C32.4671 159.93 32.674 158.47 32.7193 157.011C28.0343 156.943 23.881 158.002 20.2926 160.253C20.0687 160.418 19.8447 160.583 19.588 160.716C15.0736 163.788 11.8436 168.723 10.4355 174.638C11.699 174.913 12.9926 175.026 14.285 175.041C16.0606 174.953 17.7375 174.737 19.315 174.327Z" fill="#56A33E"/>
<path d="M0 54C0 40.7452 10.7452 30 24 30H48V165H24C10.7452 165 0 154.255 0 141V54Z" fill="#6CBE45"/>
<path d="M4.40693 20.4475C5.81437 27.4642 9.7377 33.7434 15.4591 38.1384C17.9186 40.0224 20.7704 41.5106 23.851 42.6979C26.064 43.4642 28.3979 43.9755 30.7478 44.2252C31.4244 36.6544 30.2168 29.8075 27.0169 23.7303C26.7776 23.3481 26.5383 22.9659 26.3547 22.5345C21.9391 14.86 14.3608 9.03815 4.97878 6.04518C4.38185 8.05592 4.04352 10.1351 3.86227 12.2239C3.7898 15.107 3.93644 17.846 4.40693 20.4475Z" fill="#56A33E"/>
<path d="M7.46391 40.7799C10.8637 44.1955 15.4016 46.2614 20.2481 46.6007C22.3296 46.7436 24.4841 46.5184 26.6551 46.0391C28.1824 45.6462 29.6827 45.0653 31.0949 44.3315C28.6589 39.8296 25.4344 36.4351 21.3778 34.2136C21.1013 34.088 20.8248 33.9624 20.5613 33.7886C15.2281 31.1225 8.80842 30.6727 2.42833 32.4819C2.84107 33.8327 3.42443 35.1258 4.09958 36.3659C5.13117 38.0113 6.23222 39.4944 7.46391 40.7799Z" fill="#458A30"/>
</svg>
