<svg width="61" height="61" fill="none" xmlns="http://www.w3.org/2000/svg"><path fill-rule="evenodd" clip-rule="evenodd" d="M40.798 34.04c1.954 2.635 4.058 5.422 5.861 8.133l8.265-2.636c1.803-3.54 2.555-7.38 2.63-11.146-1.353-2.56-4.358-6.1-6.161-8.585-2.63.828-5.26 1.883-7.89 2.937a137.421 137.421 0 0 1-2.705 11.296zM30.054 0c16.68 0 30.13 13.48 30.13 30.123 0 16.719-13.45 30.199-30.13 30.199C13.45 60.322 0 46.842 0 30.123 0 13.48 13.45 0 30.054 0zm0 .602a28.92 28.92 0 0 0-15.928 4.745h1.127c-1.428 1.883-2.03 4.594-2.405 6.853-3.531 2.109-6.386 5.723-8.64 9.037l-2.33.301c-.15.527-.225.98-.375 1.431l2.554-.301c.526 3.464 1.728 6.777 3.757 9.64-.376 3.388-.977 7.154-.826 10.618-1.127.226-2.18.3-3.306.376 3.08 6.1 8.19 11.07 14.426 13.857-.376-1.582-.601-3.163-.601-4.745 2.855-.15 6.987-1.506 9.767-2.259 3.306 1.732 6.988 2.485 10.67 2.787 0 1.506.075 3.012.3 4.518a30.144 30.144 0 0 1-3.456 1.807c2.705-.376 5.26-1.204 7.664-2.334-.977.075-1.954.15-2.93.15a42.914 42.914 0 0 1-.226-4.443c2.78-2.56 5.935-5.723 7.589-9.112l8.19-2.636c.6.98.75 2.26.826 3.39 2.329-4.218 3.606-9.038 3.606-14.159 0-1.054 0-2.108-.15-3.087l-.902.376c-1.803-3.012-4.057-5.799-6.086-8.66 0-3.39-1.277-6.703-2.93-9.715l.676-.527c-.375-.301-.676-.603-1.052-.904l-.526.452C45.008 6.175 41.1 5.272 37.193 4.97 35.239 3.088 32.909 1.657 30.43.602h-.376zm-1.202.829c-4.132.602-8.115 1.883-11.721 3.916-1.803 1.506-2.555 4.594-2.93 6.928 2.63 1.205 5.184 2.636 7.663 4.217 3.607-1.732 7.439-2.937 11.421-3.238.827-2.56 1.653-5.12 2.78-7.455-2.029-1.958-4.583-3.39-7.213-4.368zm4.734 13.103c-3.907.302-7.664 1.507-11.196 3.163-1.052 3.766-1.728 7.531-2.329 11.372a833.07 833.07 0 0 0 8.415 8.058c3.757-.98 7.364-2.184 10.97-3.464a95.075 95.075 0 0 0 2.705-11.296c-2.254-3.239-5.11-5.875-8.566-7.833zM9.166 32.608c-.375 3.314-1.051 7.38-.826 10.619 2.63 2.937 5.485 5.648 8.79 7.907 2.18 0 7.064-1.581 9.543-2.184-.376-3.389.376-7.53.902-10.844a831.97 831.97 0 0 1-8.415-8.058c-3.306.904-6.688 1.732-9.993 2.56z" fill="#003820"/></svg>