<svg width="81" height="50" fill="none" xmlns="http://www.w3.org/2000/svg"><path d="M72.896 36.148c1.153-1.436 2.602-2.73 4.355-3.698-1.88.651-3.455 1.463-4.795 2.395-.623-1.57-1.662-3.096-3.303-4.453.937-2.357 2.206-4.672 3.942-6.779-2.296 1.57-4.013 3.577-5.288 5.78a16.582 16.582 0 0 0-1.58-.928c.504.408.96.837 1.37 1.273-1.373 2.499-2.22 5.215-2.711 7.815-.07-2.682-.463-5.501-1.456-8.066.926-2.583 2.19-5.162 3.93-7.56-1.96 1.667-3.494 3.652-4.724 5.798-1.057-2.007-2.56-3.785-4.655-5.113.267-.52.335-.977.34-1.022l.1-4.675 1.145 1.983c.123.213.433.267.687.12.254-.147.361-.439.239-.653l-1.225-2.122 4.34 2.381c.056.024 1.399.574 2.682-.166.974-.563 1.628-1.708 1.942-3.402.788-4.242-1.425-5.233-2.337-5.605.82-.543.65-1.682.432-3.112-.044-.308-.093-.635-.136-.98-.084-.666.011-1.371.103-2.054.184-1.353.372-2.749-1.174-3.22-.617-.186-1.325-.066-2.047.35-1.348.78-3.953 3.314-6.348 11.454-.033-.019-.07-.05-.102-.064.003-.038.011-.075.007-.112.008-.003.017-.003.023-.007a.225.225 0 0 0-.224-.39c-.008.005-.013.011-.019.017a.527.527 0 0 0-.223-.095c-.226-1.292-.45-3.552.166-4.39.123.062.273.07.402-.004a.43.43 0 0 0-.43-.745.423.423 0 0 0-.18.52c-.784.989-.45 3.546-.26 4.647-.03.01-.06.013-.09.03a.55.55 0 0 0-.188.189c-.864-.665-3.017-2.193-4.274-1.957a.424.424 0 0 0-.544-.08.43.43 0 1 0 .46.725.417.417 0 0 0 .19-.354c1.072-.162 3.078 1.193 4.086 1.983 0 .016-.006.029-.004.045-.008.003-.017.003-.023.007a.226.226 0 0 0-.081.307.215.215 0 0 0 .128.098c-7.892-1.85-11.273-.893-12.592-.131-.713.413-1.17.96-1.315 1.584a2.225 2.225 0 0 0-.047.41c-.002.024-.008.05-.009.074 0 .047.004.092.007.136.005.125.023.242.056.35.005.013.007.026.01.038.042.12.095.234.167.335.394.602 1.204.938 1.998 1.264.633.26 1.287.528 1.82.93.27.207.53.413.77.604 1.124.894 2.017 1.607 2.892 1.173-.132.969-.38 3.362 3.657 4.791.54.19 1.041.312 1.51.376.35 1.08.653 2.19.879 3.339-.44.667-.87 1.348-1.254 2.047-.888-1.18-2.068-2.25-3.622-3.14 1.538 1.028 2.498 2.514 3.064 4.235-.982 2.05-1.688 4.175-2.193 6.234-.436-2.382-1.216-4.855-2.489-7.181a17.849 17.849 0 0 1 1.654-4.352 12.568 12.568 0 0 0-2.48 2.992 19.015 19.015 0 0 0-3.948-4.402 28.845 28.845 0 0 1 3.007 6.29c-2.19 5.36-1.4 12.019-.595 15.926h-.907c.228-3.355.359-9.26-.96-14.451a11.812 11.812 0 0 1 2.277-1.552c-.862.337-1.655.703-2.403 1.115-.64-2.37-1.593-4.548-2.992-6.246.354-.49.698-.967 1.085-1.434a22.16 22.16 0 0 0-1.388 1.061c-.908-1.027-2.008-1.851-3.328-2.394.993.802 1.782 1.916 2.42 3.238a18.285 18.285 0 0 0-2.829 3.596 20.732 20.732 0 0 0-1.896-1.145 18.14 18.14 0 0 1 1.657 1.558c-1.335 2.333-2.188 4.88-2.721 7.341-.104-2.46-.502-5.01-1.408-7.357.986-3.165 2.337-6.26 4.238-8.862-2.15 1.75-3.851 4.15-5.18 6.818-.945-1.71-2.216-3.242-3.925-4.461.549-.883.453-1.745.389-2.216.758.377 1.533-.242 2.506-1.017.21-.165.433-.343.668-.524.463-.347 1.029-.58 1.577-.804.69-.283 1.393-.576 1.733-1.099a1.13 1.13 0 0 0 .142-.287l.01-.035c.028-.093.044-.194.049-.303.003-.038.006-.076.006-.117 0-.02-.006-.044-.008-.066a1.829 1.829 0 0 0-.04-.354c-.126-.54-.521-1.015-1.14-1.371-1.142-.66-4.073-1.492-10.912.114a.186.186 0 0 0 .11-.085.198.198 0 0 0-.07-.268c-.005-.003-.014-.003-.02-.004.002-.016-.002-.025-.002-.04.873-.686 2.611-1.859 3.54-1.718a.361.361 0 0 0 .165.306.37.37 0 0 0 .516-.114.375.375 0 0 0-.116-.515.372.372 0 0 0-.473.07c-1.09-.205-2.955 1.12-3.703 1.695a.471.471 0 0 0-.164-.161c-.025-.018-.052-.02-.078-.027.165-.954.453-3.17-.226-4.03a.366.366 0 0 0-.156-.45.373.373 0 1 0-.373.646.37.37 0 0 0 .349.005c.535.726.338 2.683.144 3.804a.476.476 0 0 0-.195.081c-.003-.005-.008-.008-.015-.012a.19.19 0 0 0-.263.072.192.192 0 0 0 .07.264c.003.005.012.005.019.007-.004.03.004.064.005.095-.028.013-.06.04-.089.056-2.074-7.054-4.332-9.25-5.5-9.926-.627-.36-1.24-.465-1.774-.303-1.34.409-1.177 1.62-1.019 2.79.08.592.162 1.204.09 1.78-.037.298-.08.583-.118.85-.188 1.238-.336 2.226.375 2.697-.791.322-2.708 1.18-2.026 4.857.272 1.468.839 2.462 1.684 2.948 1.11.642 2.274.166 2.323.145l3.761-2.062-1.061 1.837c-.106.185-.013.439.206.567.22.126.49.08.596-.105l.991-1.717.086 4.05c.01.072.178 1.308 1.28 1.945.735.424 1.71.45 2.876.123.178.545.338 1.097.48 1.654a22.661 22.661 0 0 0-1.774 2.722c-.879-1.132-2.036-2.156-3.528-3.012.162-.36.334-.716.52-1.065a11.975 11.975 0 0 0-2.423 2.907c-1.005-1.628-2.26-3.11-3.84-4.318a29.151 29.151 0 0 1 2.95 6.084c-.77 1.801-1.206 3.744-1.39 5.7-.765-4.79-2.806-9.598-7.603-11.945 2.13 2.092 3.492 4.804 4.307 7.686-1.178.809-2.101 1.69-2.812 2.592-1.65-1.79-3.856-3.363-6.801-4.456a24.023 24.023 0 0 1 5.582 6.445 9.685 9.685 0 0 0-.762 2.48C6.205 37.29 3.705 36.372 0 36.193c12.115 3.87 6.657 13.244 6.657 13.244h68.64c-.152-.227-7.038-8.327 5.17-12.139-3.446-.084-5.734.587-7.236 1.671a11.667 11.667 0 0 0-.335-2.822zm-60.93 10.033c-.793-1.868-1.592-4.321-1.737-6.875a27.244 27.244 0 0 1 1.82 6.875h-.083zm1.864-4.716c-.558-2.084-1.51-4.307-3.093-6.348a9.125 9.125 0 0 1 1.99-3.385c.893 3.273 1.153 6.743 1.103 9.733zm2.202 4.716c.079-.667.154-1.404.215-2.236.111.821.25 1.56.391 2.236h-.606zm11.126-28.707a.932.932 0 1 1 .342 1.274.937.937 0 0 1-.342-1.274zm-3.8 2.113a.936.936 0 0 1 1.274-.34.937.937 0 0 1 .342 1.273.933.933 0 0 1-1.617-.933zm-.316-4.691c.005.004.007.012.015.013a.193.193 0 0 0 .138.019l-.241.056c0-.013.003-.032.002-.045.026-.014.06-.025.086-.043zM16.36 11.24a.935.935 0 0 1 1.274-.342c.445.259.598.83.342 1.274a.934.934 0 0 1-1.274.343.935.935 0 0 1-.342-1.275zm1.689 5.281a.932.932 0 1 1-1.615-.93.932.932 0 0 1 1.615.93zm1.049 29.14c-.614-3.064-1.21-7.568-.77-12.13 1.088 4.74 1.022 9.148.77 12.13zm-.09-15.978a20.488 20.488 0 0 1 1.126-3.242c1.472.987 2.42 2.395 2.99 4.032-.873 1.77-1.521 3.595-2.005 5.38-.454-2.088-1.134-4.207-2.112-6.17zm3.168 15.977c.05-3.006.362-7.458 1.618-12.086.407 4.138-.666 8.87-1.618 12.086zm2.789.52h-.306c.344-1.03.72-2.283 1.018-3.673a60.178 60.178 0 0 1-.712 3.673zm1.251-8.17c.032-2.422-.365-4.91-1.602-7.132.324-.921.703-1.853 1.135-2.769.649 3.348.682 6.78.467 9.902zm.36-11.611a29.446 29.446 0 0 1 1.71-2.787 21.54 21.54 0 0 0-2.016 2.06c-.13-.302-.28-.594-.426-.888 1.223-.497 1.933-1.1 2.331-1.701 1.657 1.506 2.689 3.572 3.282 5.893-1.47 3.427-2.438 7.159-3.03 10.485.17-4.073-.163-8.822-1.85-13.062zm4.365 19.78h-.23c.063-3.071.327-7.91 1.422-12.919.314 4.752-.52 9.738-1.192 12.92zm11.731-9.712a12.77 12.77 0 0 0-.57-1.786c.11-.19.241-.376.356-.552.103.782.155 1.558.214 2.337zm-4.266-5.436a12.294 12.294 0 0 1 1.676 3.766c-2.072 2.356-3.212 5.038-3.793 7.456.121-3.279.652-7.283 2.117-11.222zm.567 14.989c.1-2.24.47-5.24 1.553-8.136.093 3.067-.713 5.982-1.553 8.136zm-.218-15.919a28.94 28.94 0 0 1 1.897-3.774c.783 1.882 1.309 4.104 1.634 6.406-.27.221-.549.446-.801.665-.645-1.152-1.544-2.262-2.73-3.297zm3.907 16.079h-.838c.379-1.067.756-2.355.987-3.785-.036 1.42-.08 2.7-.149 3.785zm6.16-1.14c-.523-2.906-1.026-6.881-.68-10.958.885 4.226.892 8.127.68 10.958zM61.978 7.616a1.076 1.076 0 1 1 1.077 1.863 1.076 1.076 0 0 1-1.077-1.863zm-.083 5.02a1.078 1.078 0 0 1 1.47.392 1.078 1.078 0 0 1-1.864 1.077 1.076 1.076 0 0 1 .394-1.47zm-6.173-.393c.008-.004.012-.012.018-.016.03.021.068.033.1.05-.002.016.003.037.002.053a40.774 40.774 0 0 0-.279-.066.22.22 0 0 0 .159-.021zm-1.816 5.005a1.078 1.078 0 0 1 1.47.393 1.078 1.078 0 0 1-1.864 1.077 1.078 1.078 0 0 1 .394-1.47zm-3.312-.574a1.077 1.077 0 1 1-1.077-1.865 1.077 1.077 0 0 1 1.077 1.865zm2.114 28.397c.072-2.888.395-6.874 1.46-11.047.285 3.775-.591 7.984-1.46 11.047zm2.88 1.11H55a34.34 34.34 0 0 0 .934-3.276 83.388 83.388 0 0 1-.347 3.276zm-.517-15.108c.181-.55.394-1.1.62-1.65.198 1.454.34 2.932.415 4.388-.236-.94-.57-1.864-1.035-2.738zm1.738-4.127a28.784 28.784 0 0 1 1.98-3.334 19.418 19.418 0 0 0-2.312 2.433c-.25-.62-.533-1.228-.838-1.825.448-.052.852-.18 1.21-.387.56-.324.903-.78 1.121-1.198 2.05 1.582 3.247 3.938 3.868 6.62-1.664 3.423-2.599 7.111-3.118 10.395.01-3.935-.412-8.53-1.911-12.704zm4.34 18.555c-.087-3.082.048-7.626 1.224-12.435.262 4.486-.515 9.212-1.224 12.435zm2.991.68c.04-.151.06-.308.082-.465.002.16.006.311.01.465h-.092zm4.694-14.94c1.1 1.6 1.671 3.29 1.892 4.973a16.592 16.592 0 0 0-3.909 5.37c.187-3.078.707-6.73 2.016-10.343zm-.126 14.94h-.36c.416-1.881 1.143-4.332 2.396-6.74-.268 2.57-1.172 4.941-2.036 6.74z" fill="#003820"/></svg>