<svg width="148" height="51" fill="none" xmlns="http://www.w3.org/2000/svg"><g clip-path="url(#clip0)"><path d="M66.77 14.772c-.105 5.494-.105 10.056-4.333 14.372-3.811 3.876-9.606 5.985-15.192 5.985-10.91 0-19.733-6.328-19.733-17.12C27.564 7.022 36.126.45 47.402.45c6.212 0 14.774 2.894 17.54 8.633l-12.163 4.17c-.992-1.717-2.871-2.6-4.907-2.6-4.647 0-7.205 3.728-7.205 7.799 0 3.679 2.454 7.162 6.683 7.162 2.036 0 4.646-.883 5.272-2.944h-5.899v-7.897H66.77z" fill="#fff"/><path d="M18.22 35.03c0 2.895.521 6.083 4.332 6.083 1.932 0 3.341-1.275 3.707-2.943h17.906c-2.453 8.584-12.633 12.557-21.352 12.557C10.911 50.727 0 44.94 0 32.677c0-11.822 9.71-19.18 21.77-19.18 8.665 0 16.13 3.384 20.098 9.369 2.245 3.335 3.446 7.407 3.08 12.214H18.22v-.05zm8.613-7.406c0-2.404-1.88-4.611-4.49-4.611-2.766 0-4.124 2.158-4.124 4.61h8.614zM87.86 17.323H76.95c.156.883.574 1.619 1.252 2.158.68.54 1.567.785 2.61.785 1.254 0 2.35-.442 3.29-1.275l2.87 1.275c-.73.932-1.565 1.668-2.557 2.11-.992.44-2.193.686-3.55.686-2.14 0-3.863-.638-5.168-1.913-1.358-1.276-1.984-2.845-1.984-4.71 0-1.961.679-3.53 1.984-4.855 1.357-1.276 3.028-1.913 5.011-1.913 2.14 0 3.863.637 5.22 1.913 1.358 1.275 1.984 2.992 1.984 5.101l-.052.638zm-3.445-2.502c-.209-.687-.679-1.275-1.305-1.717a4.057 4.057 0 0 0-2.297-.686c-.94 0-1.775.245-2.506.735-.47.295-.888.883-1.253 1.668h7.36zm6.16-4.806h3.445v6.131c0 1.178.105 2.012.261 2.502.157.442.47.834.836 1.08.365.245.887.392 1.41.392a2.94 2.94 0 0 0 1.461-.393c.418-.245.679-.637.888-1.128.156-.343.208-1.128.208-2.354v-6.23h3.394v5.396c0 2.207-.209 3.728-.575 4.562-.469.98-1.148 1.765-2.036 2.305-.887.54-2.036.785-3.393.785-1.462 0-2.662-.294-3.602-.932-.94-.638-1.566-1.472-1.932-2.6-.26-.785-.417-2.158-.417-4.218v-5.298h.052zm14.513 0h2.923v1.619c.314-.638.731-1.129 1.253-1.423.522-.343 1.096-.49 1.723-.49.418 0 .887.098 1.357.343l-1.044 2.747c-.417-.196-.731-.294-.992-.294-.522 0-.939.294-1.305.932-.365.588-.522 1.815-.522 3.58v5.788h-3.393V10.016zm15.296-.295c1.253 0 2.453.295 3.602.884 1.148.588 1.984 1.422 2.61 2.452.627 1.03.94 2.159.94 3.336s-.313 2.305-.94 3.384a6.765 6.765 0 0 1-2.61 2.453c-1.096.589-2.297.883-3.602.883-1.932 0-3.602-.638-4.96-1.962-1.357-1.275-2.036-2.894-2.036-4.71 0-2.01.783-3.629 2.35-4.953 1.305-1.178 2.871-1.766 4.646-1.766zm.052 2.993c-1.044 0-1.932.343-2.662 1.03-.679.687-1.045 1.57-1.045 2.649 0 1.128.366 2.011 1.045 2.698.678.686 1.566 1.03 2.662 1.03 1.044 0 1.932-.344 2.662-1.03.731-.687 1.045-1.57 1.045-2.698 0-1.08-.366-1.962-1.045-2.649-.678-.687-1.566-1.03-2.662-1.03zm-36.178 17.56h3.394v10.89c0 2.158-.47 3.727-1.358 4.757-1.253 1.374-3.08 2.06-5.586 2.06-1.305 0-2.453-.147-3.34-.49a6.247 6.247 0 0 1-2.298-1.373 4.895 4.895 0 0 1-1.357-2.208h3.759c.313.343.783.638 1.305.834.522.196 1.148.294 1.88.294.887 0 1.67-.147 2.192-.392.574-.245.94-.589 1.2-1.03.21-.442.366-1.128.366-2.159-.574.54-1.2.982-1.88 1.227a6.49 6.49 0 0 1-2.244.392c-1.828 0-3.341-.637-4.594-1.864-1.253-1.226-1.88-2.796-1.88-4.66 0-2.01.679-3.63 1.984-4.856 1.2-1.128 2.662-1.668 4.28-1.668a6.41 6.41 0 0 1 2.193.393c.68.245 1.41.735 2.089 1.324v-1.471h-.105zM80.76 32.92c-1.096 0-1.931.344-2.662 1.03-.679.687-1.044 1.521-1.044 2.551 0 1.08.365 1.913 1.096 2.6.731.687 1.619 1.03 2.715 1.03 1.044 0 1.931-.343 2.61-.98.679-.688 1.044-1.522 1.044-2.6 0-1.08-.365-1.914-1.044-2.6-.73-.736-1.618-1.03-2.715-1.03zm20.308-2.647h3.393v12.704h-3.393v-1.324c-.679.588-1.305 1.03-1.984 1.275a6.41 6.41 0 0 1-2.192.393c-1.723 0-3.237-.638-4.542-1.913-1.253-1.276-1.932-2.846-1.932-4.759 0-1.962.627-3.58 1.828-4.807 1.252-1.275 2.714-1.864 4.49-1.864.834 0 1.565.147 2.296.442.731.294 1.357.735 1.984 1.275v-1.422h.052zm-3.55 2.6c-1.044 0-1.931.343-2.61 1.03-.679.686-1.044 1.57-1.044 2.697 0 1.08.365 2.011 1.044 2.698.73.687 1.566 1.08 2.61 1.08 1.044 0 1.932-.344 2.663-1.03.678-.688 1.044-1.62 1.044-2.748 0-1.128-.366-2.01-1.044-2.697-.68-.687-1.566-1.03-2.663-1.03zm9.815-2.6h10.388l-6.108 10.006h5.743v2.698h-10.963l6.108-10.006h-5.168v-2.698zm18.689-.343c1.253 0 2.454.294 3.602.882 1.149.589 1.984 1.423 2.61 2.453a6.34 6.34 0 0 1 .94 3.335c0 1.178-.313 2.306-.94 3.385a6.764 6.764 0 0 1-2.61 2.453c-1.096.588-2.297.883-3.602.883-1.932 0-3.602-.638-4.96-1.962-1.357-1.276-2.036-2.895-2.036-4.71 0-2.01.784-3.63 2.35-4.954 1.305-1.177 2.871-1.766 4.646-1.766zm.052 2.992c-1.044 0-1.931.343-2.662 1.03-.731.686-1.044 1.57-1.044 2.648 0 1.129.365 2.011 1.044 2.698.678.687 1.566 1.03 2.662 1.03 1.044 0 1.932-.343 2.663-1.03.73-.687 1.044-1.57 1.044-2.698 0-1.079-.366-1.962-1.044-2.648-.679-.687-1.567-1.03-2.663-1.03zm9.919-2.649h3.393v1.324c.783-.589 1.462-1.03 2.088-1.275a5.17 5.17 0 0 1 1.932-.344c1.357 0 2.506.442 3.393 1.325.783.735 1.201 1.864 1.201 3.335v8.388h-3.393v-5.64c0-1.521-.052-2.552-.209-3.042-.157-.49-.418-.883-.783-1.128-.366-.245-.783-.393-1.357-.393-.679 0-1.253.197-1.775.638-.47.442-.836 1.03-1.045 1.815-.104.392-.156 1.275-.156 2.6v5.101h-3.393V30.273h.104z" fill="#fff"/><path d="M45 35.03c-9.814-.833-17.436-7.014-17.436-17.02 0-1.374.157-2.65.366-3.925 0 0 17.853 2.6 17.07 20.946z" fill="#70B62C"/></g><defs><clipPath id="clip0"><path fill="#fff" transform="translate(0 .449)" d="M0 0h148v50.279H0z"/></clipPath></defs></svg>