<svg width="86" height="88" fill="none" xmlns="http://www.w3.org/2000/svg"><path d="M14.576 7.921c0 .792.528 1.32 1.32 1.32s1.32-.528 1.32-1.32v-1.32c0-.792-.528-1.32-1.32-1.32s-1.32.528-1.32 1.32v1.32zm0 4.621c0 .792.528 1.32 1.32 1.32s1.32-.528 1.32-1.32v-.66c0-.792-.528-1.32-1.32-1.32s-1.32.528-1.32 1.32v.66zm1.32-8.582c.792 0 1.32-.527 1.32-1.32V1.32c0-.792-.528-1.32-1.32-1.32s-1.32.528-1.32 1.32v1.32c0 .66.66 1.32 1.32 1.32zm-9.77-.527c-.396-.66-1.188-.792-1.848-.396-.528.396-.66 1.32-.264 1.848l.792 1.056c.396.528 1.188.792 1.848.264.66-.396.792-1.188.264-1.848l-.792-.924zm4.621 11.222c.396.66 1.188.792 1.848.264.66-.396.792-1.189.264-1.849l-.792-1.056c-.264-.528-1.056-.66-1.716-.264-.66.396-.792 1.188-.264 1.848l.66 1.057zM9.163 7.79c-.396-.66-1.188-.793-1.848-.397-.529.396-.66 1.32-.265 1.849l.793 1.056c.396.528 1.188.792 1.848.264.528-.264.66-1.188.264-1.717L9.163 7.79zm17.955-1.85l.792-1.055c.396-.66.264-1.452-.264-1.849-.66-.396-1.452-.264-1.848.264l-.792 1.057c-.396.66-.265 1.452.264 1.848.66.528 1.452.396 1.848-.264zm-7.393 6.074l-.793 1.056c-.396.66-.264 1.453.265 1.849.66.396 1.452.264 1.848-.264l.792-1.057c.396-.66.264-1.452-.264-1.848-.66-.396-1.452-.264-1.848.264zm3.036-4.224l-.792 1.055c-.396.66-.264 1.453.264 1.849.66.396 1.452.264 1.848-.264l.792-1.056c.396-.66.264-1.453-.264-1.849-.66-.528-1.452-.396-1.848.264zm36.966-3.83c.793 0 1.32-.527 1.32-1.32V1.32c0-.792-.527-1.32-1.32-1.32-.792 0-1.32.528-1.32 1.32v1.32c0 .66.528 1.32 1.32 1.32zm-1.32 3.961c0 .792.528 1.32 1.32 1.32.793 0 1.32-.528 1.32-1.32v-1.32c0-.792-.527-1.32-1.32-1.32-.792 0-1.32.528-1.32 1.32v1.32zm0 4.621c0 .792.528 1.32 1.32 1.32.793 0 1.32-.528 1.32-1.32v-.66c0-.792-.527-1.32-1.32-1.32-.792 0-1.32.528-1.32 1.32v.66zm-3.828 2.112c.396.66 1.188.793 1.848.264.66-.396.792-1.188.264-1.848l-.792-1.056c-.396-.66-1.188-.792-1.849-.264-.66.396-.792 1.188-.264 1.848l.793 1.056zM52.994 7.79c-.396-.66-1.188-.793-1.848-.265-.66.396-.792 1.188-.264 1.849l.792 1.056c.396.528 1.188.792 1.848.264.66-.396.793-1.188.264-1.849l-.792-1.056zm-3.036-4.358c-.396-.66-1.188-.792-1.849-.264-.66.264-.792 1.189-.396 1.717l.792 1.056c.397.528 1.189.792 1.849.264.66-.396.792-1.188.264-1.848l-.66-.925zM70.95 5.94l.791-1.055c.397-.66.264-1.452-.264-1.849-.66-.396-1.452-.264-1.848.264l-.792 1.189c-.396.66-.264 1.452.264 1.848.66.396 1.452.264 1.848-.396zm-4.49 1.85l-.66 1.055c-.395.66-.263 1.453.265 1.849.66.396 1.452.264 1.848-.264l.792-1.056c.396-.66.264-1.453-.264-1.849-.66-.528-1.452-.396-1.98.264zm-2.904 4.224l-.792 1.056c-.396.66-.264 1.453.264 1.849.66.396 1.452.264 1.848-.264l.792-1.057c.396-.66.264-1.452-.264-1.848-.66-.396-1.452-.264-1.848.264zM37.02 52.281c0 .792.528 1.32 1.32 1.32s1.32-.528 1.32-1.32v-.66c0-.792-.528-1.32-1.32-1.32s-1.32.528-1.32 1.32v.66zm1.32-8.581c.792 0 1.32-.528 1.32-1.32v-1.32c0-.793-.528-1.321-1.32-1.321s-1.32.528-1.32 1.32v1.32c0 .66.528 1.32 1.32 1.32zm-1.32 3.96c0 .793.528 1.32 1.32 1.32s1.32-.527 1.32-1.32v-1.32c0-.792-.528-1.32-1.32-1.32s-1.32.528-1.32 1.32v1.32zm-8.582-4.489c-.396-.66-1.188-.792-1.848-.264-.66.397-.792 1.189-.264 1.849l.792 1.056c.396.528 1.188.792 1.848.264.66-.396.792-1.188.264-1.848l-.792-1.057zm4.621 11.222c.396.66 1.188.792 1.848.264.66-.396.792-1.188.264-1.848l-.66-1.056c-.396-.66-1.188-.792-1.848-.264-.66.396-.792 1.188-.264 1.848l.66 1.056zm-1.585-6.865c-.396-.66-1.188-.792-1.848-.264-.66.396-.792 1.188-.264 1.848l.792 1.057c.396.528 1.189.792 1.849.264.66-.396.792-1.188.264-1.849l-.793-1.056zm18.088-1.848l.792-1.056c.396-.66.264-1.453-.264-1.849-.66-.396-1.452-.264-1.849.264l-.792 1.057c-.396.66-.264 1.452.265 1.848.528.528 1.32.396 1.848-.264zm-4.489 1.848l-.792 1.056c-.396.66-.264 1.453.264 1.849.66.396 1.452.264 1.848-.264l.792-1.056c.396-.66.264-1.453-.264-1.849-.66-.528-1.452-.396-1.848.264zm-3.037 4.225l-.792 1.056c-.396.66-.264 1.453.264 1.849.66.396 1.453.264 1.849-.264l.792-1.057c.396-.66.264-1.452-.264-1.848-.66-.396-1.453-.264-1.849.264z" fill="#E4F3DD"/><path d="M16.292 68.652c-.924 0-1.98.396-2.64 1.056L1.373 80.798C-.21 82.25-.475 84.758.845 86.343c.792.924 1.849 1.452 3.037 1.452.924 0 1.848-.396 2.64-1.056l9.374-8.45c1.188-1.188 2.904-1.716 4.489-1.716h45.019C76.758 76.573 86 67.332 86 55.978v-5.281c0-11.222-8.978-20.332-20.2-20.596l.66-3.564h4.753l.397-.66c.924-1.717.792-3.697-.264-5.413-1.057-1.717-2.773-2.64-4.753-2.64H52.598c-1.98 0-3.696.923-4.753 2.64-1.056 1.716-1.056 3.696-.264 5.413l.396.66h4.753l.66 3.564H22.233l.66-3.564h4.753l.396-.66c.396-.793.66-1.585.66-2.509 0-3.036-2.508-5.545-5.545-5.545H8.9c-1.98 0-3.697.924-4.753 2.64-1.056 1.717-1.056 3.697-.264 5.413l.396.66H9.03l1.716 9.11c.396 2.64 2.64 4.489 5.28 4.489 1.717 0 3.17-.792 4.226-2.112h43.04c3.96 0 7.657 1.584 10.562 4.488a15.178 15.178 0 0 1 4.489 10.826c0 3.96-1.585 7.658-4.49 10.562-3.036 3.037-7.128 4.753-11.353 4.753H44.809l.396-2.245h4.753l.396-.792c.924-1.716.792-3.696-.264-5.413-1.056-1.716-2.773-2.64-4.753-2.64H31.21c-1.98 0-3.696.924-4.752 2.64-1.056 1.717-1.056 3.697-.264 5.413l.396.66h4.753l.396 2.245H16.292v.132zm12.41-6.997c.528-.925 1.452-1.32 2.508-1.32h14.127c1.056 0 1.98.527 2.508 1.32.397.66.529 1.452.397 2.112H28.438c-.264-.792-.132-1.584.264-2.112zm21.124-37.627c-.132-.66 0-1.452.396-2.112.528-.924 1.452-1.32 2.508-1.32h14.127c1.056 0 1.98.528 2.508 1.32.396.66.528 1.452.396 2.112H49.826zm5.677 2.64h8.317l-.66 3.565h-7.13l-.527-3.564zm-49.509-2.64c-.132-.66 0-1.452.396-2.112.528-.924 1.453-1.32 2.509-1.32h14.126c1.849 0 2.905 1.452 2.905 2.904v.528H5.995zm7.393 11.09l-1.584-8.581h8.318l-.66 3.564-.925 5.15c0 .263-.132.527-.264.923-.528.924-1.32 1.453-2.376 1.453-1.188-.133-2.377-1.057-2.509-2.509zM62.5 71.292c4.885 0 9.638-1.98 13.202-5.545 3.433-3.432 5.281-7.789 5.281-12.41 0-4.753-1.848-9.241-5.28-12.674a17.992 17.992 0 0 0-12.279-5.28H21.308l.529-2.641h43.831c9.902 0 17.956 8.053 17.956 17.955v5.28c0 9.902-8.054 17.956-17.956 17.956H20.517c-2.377 0-4.621.924-6.337 2.376l-9.242 8.318c-.528.528-1.452.396-1.98-.132-.396-.529-.264-1.453.264-1.98L15.5 71.424c.264-.265.528-.397.924-.397H62.5v.264zm-28.385-4.885h8.317l-.396 2.245h-7.525l-.396-2.245z" fill="#E4F3DD"/></svg>