<svg width="1221" height="646" fill="none" xmlns="http://www.w3.org/2000/svg"><path opacity=".8" d="M314.367-19.399C534.174 151.321 684.713 396.48 738.512 671.26c22.944 118.031 25.312 242.791 13.242 370.26-11.682 90.06-34.336 179.88-66.37 265.72-275.212-108.07-492.572-268.91-648.615-485.469-9.157-14.939-18.313-29.878-30.14-43.742-190.569-286.472-261.846-650.443-203.411-1027.82 80.324 14.232 158.548 38.622 234.386 68.628 101.594 47.576 194.378 100.25 276.763 161.764z" fill="#003820"/><path opacity=".8" d="M340.476 27.7c236.689 195.028 394.713 469.849 445.24 774.223 21.521 130.738 20.164 268.237 2.82 408.247-15.731 98.83-43.538 197.05-81.55 290.58C407.281 1372.97 172.974 1188.9 7.978 945.407c-9.611-16.746-19.222-33.492-31.809-49.138-200.803-321.599-267.748-724.77-191.39-1138.585 88.023 18.229 173.41 47.579 255.99 83.04 110.391 55.633 210.917 116.6 299.707 186.975z" fill="url(#paint0_linear)" fill-opacity=".5"/><defs><linearGradient id="paint0_linear" x1="-19.423" y1="-190.936" x2="-86.716" y2="307.703" gradientUnits="userSpaceOnUse"><stop stop-color="#6CBE45"/><stop offset="1" stop-color="#6CBE45" stop-opacity="0"/></linearGradient></defs></svg>