<svg width="35" height="35" fill="none" xmlns="http://www.w3.org/2000/svg"><path d="M31.07 21.219H14.567a.792.792 0 0 1-.556-.23.79.79 0 0 1-.23-.556V3.929a.79.79 0 0 1 .23-.555.79.79 0 0 1 .556-.23h6.287c.433 0 .786.352.786.785a.787.787 0 0 1-.786.786h-5.501v14.932h14.932V4.715h-1.572a.786.786 0 0 1 0-1.572h2.357c.207 0 .41.085.556.23.146.147.23.35.23.556v16.504a.79.79 0 0 1-.786.786zM24.783 4.715a.786.786 0 1 1 .001-1.572.786.786 0 0 1 0 1.572z" fill="#fff"/><path d="M3.565 32.221a.783.783 0 0 1-.786-.786V14.932c0-.207.084-.41.23-.556l5.113-5.113a.78.78 0 0 1 .556-.23.786.786 0 0 1 .556 1.342L4.35 15.256v14.281l9.43-9.43V4.904a.78.78 0 0 1-.332-.642.78.78 0 0 1 .23-.556l.332-.332a.78.78 0 0 1 .856-.17.785.785 0 0 1 .486.725v16.504c0 .207-.084.41-.23.556L4.12 31.99a.78.78 0 0 1-.555.23zm7.89-24.394a.787.787 0 1 1 .556-1.342.789.789 0 0 1 .001 1.111.781.781 0 0 1-.556.23z" fill="#fff"/><path d="M20.068 32.221H3.565a.784.784 0 1 1-.556-1.341l11.002-11.003a.79.79 0 0 1 .556-.23H31.07a.785.785 0 0 1 .556 1.341l-.332.332v.001a.78.78 0 0 1-.556.23.78.78 0 0 1-.642-.332H14.892l-9.43 9.43h14.28l4.883-4.882a.78.78 0 0 1 .556-.23.786.786 0 0 1 .555 1.341l-5.112 5.113a.78.78 0 0 1-.556.23zm7.891-7.892a.787.787 0 0 1 0-1.57c.21 0 .407.081.556.229a.788.788 0 0 1-.556 1.341zM14.567 4.715a.786.786 0 0 1-.786-.786V2.058l-.434.217a.782.782 0 0 1-1.055-.352.786.786 0 0 1 .352-1.054l1.572-.786a.795.795 0 0 1 .764.035.781.781 0 0 1 .373.668v3.143a.787.787 0 0 1-.786.786z" fill="#fff"/><path d="M16.138 2.358a.782.782 0 0 1-.351-.083l-1.571-.786A.783.783 0 0 1 14.568 0c.122.001.24.03.35.084L16.49.87a.778.778 0 0 1 .394.454.776.776 0 0 1-.043.6.78.78 0 0 1-.703.435zm18.076 18.861H31.07a.786.786 0 0 1 0-1.572h1.872l-.218-.435a.786.786 0 0 1 1.407-.702l.785 1.572a.78.78 0 0 1-.034.764.78.78 0 0 1-.668.373z" fill="#fff"/><path d="M33.427 22.79a.787.787 0 0 1-.703-1.137l.786-1.571a.783.783 0 0 1 1.055-.352.786.786 0 0 1 .351 1.054l-.785 1.572a.78.78 0 0 1-.704.434zM3.01 35a.77.77 0 0 1-.25-.04l-1.667-.556a.78.78 0 0 1-.516-.566.78.78 0 0 1 .209-.735l2.223-2.223a.78.78 0 0 1 .556-.23.78.78 0 0 1 .555.23.78.78 0 0 1 .23.555.78.78 0 0 1-.23.556l-1.324 1.324.462.153v.001c.2.066.36.206.454.394A.784.784 0 0 1 3.009 35z" fill="#fff"/><path d="M1.342 34.444a.784.784 0 0 1-.745-.537L.04 32.24a.787.787 0 0 1 1.492-.498l.555 1.667a.785.785 0 0 1-.745 1.035zM27.927 17.29a.786.786 0 0 1-.786-.786V7.859h-7.859a.786.786 0 0 1 0-1.572h8.645a.788.788 0 0 1 .785.786v9.43a.787.787 0 0 1-.785.786z" fill="#fff"/></svg>