<svg width="33" height="33" fill="none" xmlns="http://www.w3.org/2000/svg"><path d="M30.25 5.5h-1.1a.55.55 0 0 0-.55.55V9.9h-6.05a.55.55 0 1 0 0 1.1h6.05v12.65c0 .304.246.55.55.55h1.1a1.65 1.65 0 1 1 0 3.3H2.75a2.72 2.72 0 0 0-1.65.564V12.65c0-.911.739-1.65 1.65-1.65h7.7a.55.55 0 1 0 0-1.1h-7.7A2.753 2.753 0 0 0 0 12.65v17.6A2.753 2.753 0 0 0 2.75 33H4.4a.55.55 0 0 0 .55-.55V28.6h25.3A2.753 2.753 0 0 0 33 25.85V8.25a2.753 2.753 0 0 0-2.75-2.75zM3.85 31.9h-1.1a1.65 1.65 0 1 1 0-3.3h1.1v3.3zm26.4-8.8h-.55V6.6h.55c.911 0 1.65.739 1.65 1.65v15.414a2.721 2.721 0 0 0-1.65-.564z" fill="#fff"/><path d="M18.15 3.126V1.1a1.1 1.1 0 0 0-1.1-1.1h-1.1a1.1 1.1 0 0 0-1.1 1.1v2.027a3.84 3.84 0 0 0-1.89 4.979l-4.004 12.65c-.366 1.363-.092 2.695.7 3.397l.541.482-.28 1.076a.55.55 0 0 0 1.065.275l.365-1.401 2.162-6.985h5.948l2.172 7.01c.016.051.04.1.071.144l.317 1.233a.55.55 0 0 0 1.067-.274l-.284-1.1.511-.455c.792-.701 1.067-2.035.694-3.421L20.02 8.153a3.836 3.836 0 0 0-1.87-5.027zM15.95 1.1h1.1v1.694a3.46 3.46 0 0 0-1.1 0V1.1zm.55 2.75a2.75 2.75 0 1 1 0 5.5 2.75 2.75 0 0 1 0-5.5zm0 6.6c.241 0 .482-.024.719-.07l1.215 3.92H14.53l1.216-3.927a3.9 3.9 0 0 0 .755.077zm-6.49 10.615l3.73-11.788c.283.29.61.535.968.725l-4.17 13.466-.154-.137c-.466-.413-.617-1.355-.374-2.266zm3.839-4.565l.34-1.1h4.586l.341 1.1H13.85zm9.1 4.543c.251.935.1 1.875-.369 2.29l-.153.136-2.737-8.828v-.007l-1.43-4.615c.36-.185.687-.425.972-.71l3.717 11.734z" fill="#fff"/></svg>