<svg width="44" height="38" fill="none" xmlns="http://www.w3.org/2000/svg"><path d="M19.912 27.535l-8.915-9.71a.445.445 0 0 0-.483-.118.449.449 0 0 0-.299.4l-.53 9.172a.453.453 0 0 0 .425.476l9.445.538a.45.45 0 0 0 .433-.257.456.456 0 0 0-.076-.502zm-3.96-.236a.452.452 0 0 1-.867-.249l.262-.912-2.045-.586-.261.912a.45.45 0 1 1-.866-.247l.26-.914-1.458-.418a.451.451 0 0 1 .248-.869l1.459.418.574-2.007a.452.452 0 1 1 .866.25l-.574 2.006 2.045.587.096-.332a.45.45 0 1 1 .866.248l-.604 2.113zm9.255-13.597l-2.047-.586-.605 2.118 2.045.586.607-2.118zm.853-2.989l-2.045-.587-.605 2.12 2.046.587.605-2.12zm-1.708 5.977l-2.046-.586-.606 2.117 2.046.587.606-2.118zm-.35-9.798l-2.045-.587-.605 2.118 2.046.587.604-2.118zm-.856 2.986l-2.043-.586-.605 2.12 2.044.585.604-2.119zm3.77-2.153l-2.045-.586-.607 2.118 2.047.587.605-2.119zm2.913.835l-2.046-.586-.607 2.118 2.046.587.607-2.119zm-.856 2.987l-2.046-.586-.604 2.12 2.046.586.604-2.12zm-.854 2.989l-2.046-.586-.604 2.118 2.046.586.604-2.118zm-.855 2.988l-2.045-.586-.607 2.118 2.046.586.606-2.118zm-7.027-8.481l-2.045-.586-.607 2.12 2.046.586.606-2.12zm-4.97-4.658L13.222 3.8l-.604 2.118 2.044.587.605-2.119zm-2.911-.833l-2.047-.587-.604 2.12 2.046.586.605-2.12z" fill="#fff"/><path d="M39.793 1.516c-3.236-.927-5.172-.37-5.255-.347a.452.452 0 0 0-.304.31l-1.552 5.42L8.677.019a.45.45 0 0 0-.557.31l-1.233 4.31L5.567 3.2a.445.445 0 0 0-.483-.119.45.45 0 0 0-.298.4L4.17 14.134.017 28.649c-.068.24.07.49.31.56l2.924.838-.163 2.842a.453.453 0 0 0 .423.477l14.121.803 11.847 3.397c5.15 1.476 5.907-1.171 6.314-2.595l7.062-24.684 1.04-3.637c.515-1.798-.88-4.209-4.102-5.134zm-30.225.765a.45.45 0 0 1 .558-.31L30.51 7.815c.239.07.378.32.31.56l-4.548 15.898a.453.453 0 0 1-.56.311.454.454 0 0 1-.308-.56l1.005-3.512-2.045-.586-.509 1.776a.45.45 0 1 1-.866-.248l.508-1.777-2.479-.71a.451.451 0 0 1-.309-.56l.73-2.552-2.045-.587-.356 1.244a.451.451 0 0 1-.867-.248l.356-1.244-2.478-.71a.452.452 0 0 1-.31-.56l.731-2.552-2.046-.588-.23.805a.451.451 0 1 1-.866-.249l1.085-3.793-2.045-.586-.59 2.061a.451.451 0 1 1-.866-.248l.589-2.062-2.391-.685c-.032-.002-.062.001-.093-.008a.453.453 0 0 1-.31-.559l.861-3.005zM3.246 27.657a.45.45 0 1 1-.867-.25l.492-1.715a.451.451 0 1 1 .866.248l-.491 1.717zm.768 4.832l1.61-27.89 3.412 3.716-1.008.902a.452.452 0 0 0 .6.675l1.019-.912 1.155 1.257-1.015.907a.452.452 0 0 0 .6.675l1.025-.917 1.155 1.258-1.02.911a.454.454 0 0 0 .175.773.45.45 0 0 0 .426-.098l1.029-.92 1.155 1.256-1.025.917a.452.452 0 0 0 .6.675l1.035-.927 1.155 1.258-1.03.92a.454.454 0 0 0 .174.772c.145.04.306.01.426-.097l1.04-.93 1.154 1.258-1.035.925a.454.454 0 0 0 .175.772.45.45 0 0 0 .425-.097l1.045-.935 1.155 1.256-1.04.93a.453.453 0 0 0 .176.772.45.45 0 0 0 .424-.097l1.05-.94 1.155 1.259-1.043.933a.452.452 0 0 0 .174.772.45.45 0 0 0 .425-.098L22 22.438l1.154 1.257-1.049.938a.453.453 0 0 0 .174.772c.145.04.306.01.426-.097l1.06-.95 1.154 1.258-1.054.944a.45.45 0 1 0 .6.673l1.065-.952 1.225 1.335-.625 2.184a.449.449 0 0 0 .56.558c.012-.003.924-.245 2.504-.086l3.535 3.85-28.716-1.633zm31.499.189c-.596-1.18-1.876-2.282-3.822-2.84-2.09-.599-3.638-.58-4.494-.484l7.83-27.368c.57-.101 2.172-.272 4.518.4 2.953.847 3.816 2.858 3.484 4.015l-7.516 26.277z" fill="#fff"/><path d="M17.323 8.209l-2.045-.587-.605 2.12 2.046.587.604-2.12zm.857-2.988l-2.046-.586-.606 2.117 2.047.587.605-2.118zm2.912.835l-2.046-.587-.606 2.119 2.046.586.606-2.118zm1.202 6.811l-2.045-.586-.606 2.118 2.045.586.606-2.118zm-2.913-.834l-2.046-.586-.604 2.118 2.046.587.604-2.119z" fill="#fff"/></svg>