<svg width="21" height="38" fill="none" xmlns="http://www.w3.org/2000/svg"><path d="M14.874 0l-2.277 5.463a16.553 16.553 0 0 0-9.299-2.838H0v31.953h2.665L2.602 38l3.534-3.667c7.678-1.316 13.533-7.866 13.533-15.731 0-2.86-.777-5.543-2.13-7.867L21 2.432 14.874 0zM2.688 33.323H1.286v-2.192H2.73l-.04 2.192zm.124-4.391l-.045.108-.015.835H1.286v-2.146h2.028l-.502 1.203zm-1.526-2.458V24.33h3.14v-1.256h-3.14V20.93h2.078v-1.256H1.286V17.53h2.078v-1.255H1.286v-2.146h3.14v-1.255h-3.14V10.73h2.078V9.474H1.286V7.33h2.078V6.074H1.286V3.88h2.012c3.283 0 6.322 1.032 8.8 2.777l-1.576 3.782a11.107 11.107 0 0 0-4.406-2.277l-.807-.208v14.988L3.364 27.61v-1.136H1.286zm8.721-14.8l-3.411 8.183V9.619a9.773 9.773 0 0 1 3.411 2.055zM5.496 33.165l-1.341 1.391-.207.215.004-.209.023-1.256.06-3.211 3.197 1.269-1.736 1.801zm12.887-14.563c0 6.61-4.488 12.215-10.646 14.07l1.157-1.2 2.162-5.187c2.056-1.98 3.304-4.719 3.304-7.683 0-.074-.008-.146-.01-.218l2.556-6.13a14.331 14.331 0 0 1 1.477 6.348zm-1.69-9.17l-.587 1.406-2.104 5.048-.947 2.272-3.09 7.41-.942 2.261-1.034 2.48-2.672-1.06-.008-.004-1.063-.421 1.063-2.55 1.286-3.086L10.968 12.7l.55-1.317 1.632-3.915.51-1.224 1.92-4.607 3.743 1.485-2.63 6.31z" fill="#fff"/></svg>