<svg width="43" height="43" fill="none" xmlns="http://www.w3.org/2000/svg"><path d="M.652 9.446c-.326 0-.652.325-.652.65 0 3.187 2.41 5.788 5.538 6.113v1.69c0 .39.26.65.651.65s.652-.26.652-.65v-1.69c3.257-.195 5.863-2.861 5.863-6.178 0-.39-.325-.65-.651-.65-2.15 0-4.105 1.105-5.147 2.796v-1.626c1.173-.39 2.41-1.56 3.192-3.056 1.238-2.406 1.043-5.007-.586-7.218-.13-.195-.456-.325-.717-.26a.625.625 0 0 0-.456.585s-.195 2.536-2.084 2.861c-1.369.26-2.28 1.431-2.541 3.122-.196 1.43.195 3.316 1.563 3.966.065.065.13.065.26.065v1.17c-1.107-1.43-2.93-2.34-4.885-2.34zm.716 1.3c2.15.326 3.844 2.016 4.105 4.097a4.7 4.7 0 0 1-4.105-4.097zm9.968 0c-.325 2.146-2.02 3.837-4.104 4.097.26-2.08 1.954-3.771 4.104-4.097zm-6.32-4.031c.131-.846.522-1.821 1.434-1.951 1.498-.325 2.345-1.366 2.736-2.341.717 1.886.196 3.576-.26 4.487-.847 1.495-2.085 2.536-2.867 2.536-.065 0-.13 0-.195-.065-.652-.325-.978-1.496-.847-2.666zm36.876 27.116c-2.15 0-4.104 1.106-5.147 2.796v-1.625c1.173-.39 2.411-1.561 3.193-3.057 1.238-2.406 1.042-5.007-.587-7.218-.13-.195-.456-.325-.716-.26a.625.625 0 0 0-.456.585c0 .13-.196 2.537-2.085 2.862-1.303.26-2.215 1.43-2.476 3.056-.195 1.56.326 3.577 1.824 4.097v1.17a6.176 6.176 0 0 0-4.886-2.406c-.39 0-.652.26-.652.65 0 3.187 2.411 5.788 5.538 6.113v1.69c0 .39.261.651.652.651.39 0 .651-.26.651-.65v-1.691c3.258-.195 5.864-2.861 5.864-6.178a.763.763 0 0 0-.717-.585zm-10.684 1.3c2.15.326 3.843 2.017 4.104 4.097-2.085-.26-3.779-1.95-4.104-4.096zm3.648-4.031c.065-.39.326-1.756 1.433-1.95 1.499-.326 2.346-1.366 2.737-2.342.716 1.886.195 3.577-.26 4.487-.652 1.236-2.281 2.861-2.998 2.471-.651-.325-1.042-1.43-.912-2.666zm2.215 8.194c.326-2.146 2.02-3.837 4.105-4.097-.326 2.08-2.02 3.771-4.105 4.096zM17.07 30.45h.651c.391 0 .652-.26.652-.65s-.26-.65-.652-.65h-.651c-.391 0-.652.26-.652.65s.26.65.652.65zm5.212-1.3c-.391 0-.652.26-.652.65s.26.65.652.65h.651c.391 0 .652-.26.652-.65s-.26-.65-.652-.65h-.651zm-1.955 0h-.651c-.391 0-.652.26-.652.65s.26.65.652.65h.651c.391 0 .652-.26.652-.65s-.326-.65-.652-.65zm-4.56.65c0-.39-.261-.65-.652-.65h-.652c-.39 0-.651.26-.651.65s.26.65.652.65h.651c.326 0 .652-.325.652-.65zm4.235 5.592c-.261-.195-.717-.13-.913.13-.195.26-.13.715.13.91l.522.39c.26.195.716.13.912-.13.195-.26.13-.715-.13-.91l-.521-.39zm-2.346-.065c.26.195.717.13.912-.13.196-.26.13-.716-.13-.91l-.521-.39c-.261-.196-.717-.13-.913.13-.195.26-.13.715.13.91l.522.39zM12.9 31.815l.521.39c.26.196.717.13.912-.13.196-.26.13-.715-.13-.91l-.521-.39c-.26-.195-.717-.13-.912.13-.196.325-.13.715.13.91zm2.606 1.951c.26.195.717.13.912-.13.196-.26.13-.715-.13-.91l-.521-.39c-.261-.195-.717-.13-.912.13-.196.26-.13.715.13.91l.521.39zm-1.824-5.007l.521-.39c.26-.195.326-.65.13-.91-.195-.26-.651-.326-.912-.13l-.521.39c-.26.195-.326.65-.13.91.195.26.651.325.912.13zm2.085-1.561l.52-.39c.261-.195.327-.65.131-.91-.195-.26-.651-.325-.912-.13l-.521.39c-.26.195-.326.65-.13.91.26.26.651.325.912.13zm4.235-3.056l.52-.39c.261-.195.326-.65.131-.91s-.651-.326-.912-.13l-.521.39c-.26.195-.326.65-.13.91.195.26.586.325.912.13zm-7.754 4.878c-.195-.261-.651-.326-.912-.13l-.52.39a.676.676 0 0 0 0 1.04l.52.39c.26.195.717.13.912-.13.196-.26.13-.52 0-.78.13-.26.196-.586 0-.78zm6.32-4.618c-.195-.26-.651-.325-.912-.13l-.521.39c-.26.195-.326.65-.13.91.195.26.651.326.912.13l.52-.39c.261-.26.327-.65.131-.91z" fill="#fff"/><path d="M40.59 11.33h-.978V7.755c1.433-.195 2.606-1.235 2.802-2.666.456-1.105-.978-5.072-4.756-5.072-3.453 0-5.278 3.577-4.757 5.007a3.176 3.176 0 0 0 2.672 2.666v3.577h-.977c-1.304 0-2.411 1.105-2.411 2.406 0 1.3 1.042 2.406 2.41 2.406v1.56h-3.127c-3.518 0-6.385 2.862-6.385 6.438v10.535c0 2.796-2.28 5.137-5.147 5.137H8.47v-2.471c1.303 0 2.41-1.106 2.41-2.406s-1.107-2.406-2.41-2.406h-.978v-3.577a3.327 3.327 0 0 0 2.672-2.666c.456-1.105-.978-5.072-4.756-5.072-2.476 0-4.561 1.886-4.822 4.357v.455c0 .065 0 .13.066.195.195 1.43 1.368 2.536 2.866 2.731v3.577H2.411C1.108 32.465 0 33.57 0 34.87c0 1.3 1.042 2.406 2.41 2.406v5.072c0 .39.261.65.652.65h4.756c.391 0 .652-.26.652-.65v-1.236h11.4c3.518 0 6.45-2.86 6.45-6.437v-10.6c0-2.796 2.28-5.137 5.082-5.137h3.127v2.211c0 .39.26.65.652.65h4.756c.39 0 .651-.26.651-.65v-5.072c1.303 0 2.411-1.106 2.411-2.406 0-1.236-1.108-2.341-2.41-2.341zM1.823 25.768c.065-1.886 1.629-3.381 3.518-3.381 1.89 0 3.453 1.495 3.519 3.316a1.934 1.934 0 0 1-1.955 1.82H3.78c-1.043.066-1.89-.78-1.955-1.755zm2.867 3.121h1.498V32.4H4.691v-3.512zm-3.388 5.918c0-.585.521-1.106 1.108-1.106h6.06c.586 0 1.107.52 1.107 1.106 0 .585-.52 1.105-1.107 1.105H2.41a1.097 1.097 0 0 1-1.107-1.105zm5.864 6.828H3.714v-4.422h3.453v4.422zm30.49-40.317c3.714 0 4.822 5.202 1.564 5.202h-3.127c-3.258 0-2.15-5.202 1.564-5.202zM36.81 7.82h1.498v3.512H36.81V7.819zm-.978 12.746v-4.422h3.453v4.422h-3.453zm4.756-5.723H34.53c-.586 0-1.107-.52-1.107-1.105s.52-1.106 1.107-1.106h6.06c.586 0 1.107.52 1.107 1.106 0 .585-.521 1.105-1.108 1.105z" fill="#fff"/><path d="M22.673 9.316h.651c.391 0 .652-.26.652-.65s-.26-.65-.652-.65h-.651c-.391 0-.652.26-.652.65s.326.65.652.65zm-1.303-.65c0-.39-.26-.65-.652-.65h-.651c-.391 0-.652.26-.652.65s.26.65.652.65h.651c.391 0 .652-.26.652-.65zm5.212 0c0-.39-.26-.65-.652-.65h-.651c-.391 0-.652.26-.652.65s.26.65.652.65h.651c.391 0 .652-.26.652-.65zm2.606 0c0-.39-.26-.65-.652-.65h-.651c-.391 0-.652.26-.652.65s.261.65.652.65h.651c.391 0 .652-.26.652-.65zm-2.085 4.161c.13 0 .26-.065.39-.13l.522-.39c.26-.195.326-.65.13-.91-.195-.26-.651-.325-.912-.13l-.52.39c-.262.195-.327.65-.131.91.13.13.325.26.521.26zm-2.671 1.236c.13.195.326.26.521.26.13 0 .26-.065.39-.13l.522-.39c.26-.195.326-.65.13-.91-.195-.26-.651-.326-.912-.13l-.52.39c-.261.26-.327.65-.131.91zm-.522.39c-.195-.26-.651-.325-.912-.13l-.52.39c-.261.195-.327.65-.131.91.13.196.326.26.521.26.13 0 .26-.064.391-.13l.521-.39c.326-.195.391-.585.13-.91zm5.278-3.186c.13 0 .26-.065.39-.13l.522-.39c.26-.196.326-.65.13-.911-.195-.26-.651-.325-.912-.13l-.521.39c-.26.195-.326.65-.13.91.13.13.325.26.52.26zm.912-4.682l-.521-.39c-.26-.196-.717-.13-.912.13-.196.26-.13.715.13.91l.521.39c.13.065.26.13.391.13.195 0 .391-.065.521-.26.196-.26.13-.65-.13-.91zm-6.32-4.617l-.521-.39c-.26-.196-.717-.13-.912.13-.196.26-.13.715.13.91l.521.39c.13.065.261.13.391.13.196 0 .391-.065.522-.26.26-.26.195-.65-.13-.91zm8.405 6.177l-.521-.39c-.26-.195-.717-.13-.912.13-.196.26-.13.52 0 .78-.196.196-.196.52 0 .78.52.716 1.303-.194 1.433-.26.13-.064.26-.324.26-.52 0-.195-.13-.455-.26-.52zm-7.037-3.576c.13.065.261.13.391.13.196 0 .391-.065.521-.26.196-.26.13-.716-.13-.91l-.521-.39a.79.79 0 0 0-.977.13c-.196.26-.13.715.13.91l.586.39zm2.085 1.561c.13.065.26.13.391.13.196 0 .391-.065.521-.26.196-.26.13-.716-.13-.911l-.521-.39c-.26-.195-.717-.13-.912.13-.26.26-.196.715.13.91l.521.39z" fill="#fff"/></svg>