<svg width="32" height="25" fill="none" xmlns="http://www.w3.org/2000/svg"><path d="M28.145.005a.733.733 0 0 0-.373.171.713.713 0 0 0-.218.342l-1.682 5.914h-9.874a.739.739 0 0 0-.573.233.71.71 0 0 0-.12.786.715.715 0 0 0 .412.368.74.74 0 0 0 .281.042h9.477l-2.91 10.254a.702.702 0 0 0 .012.39l.841 2.768a.73.73 0 0 0 .873.484c.12-.03.23-.088.32-.171l2.17-1.998a.72.72 0 0 0 .125-.145v4.129H3.454c-1.126 0-2-.852-2-1.92V7.18c.572.403 1.244.68 2 .68h9.636a.739.739 0 0 0 .52-.205.714.714 0 0 0 .217-.509.703.703 0 0 0-.216-.508.728.728 0 0 0-.521-.206H6.545V1.433a.708.708 0 0 0-.213-.505.734.734 0 0 0-.514-.209H3.454C1.56.72 0 2.22 0 4.067v17.585C0 23.5 1.56 25 3.454 25h24.18a.734.734 0 0 0 .514-.21.708.708 0 0 0 .213-.504V14.7a.702.702 0 0 0-.023-.19l3.636-12.855a.702.702 0 0 0-.264-.76.732.732 0 0 0-.259-.121L28.43.027a.74.74 0 0 0-.284-.022zm.613 1.573l1.614.402-4.727 16.715-1.17 1.072-.443-1.462 4.726-16.727zm-25.304.57H5.09v4.284H3.454c-1.058 0-1.89-.76-1.988-1.73a.702.702 0 0 0-.012-.077v-.558c0-1.068.874-1.92 2-1.92zM8.17 12.155c-.847 0-1.796.103-2.875.346a.734.734 0 0 0-.459.314.707.707 0 0 0 .226.99.736.736 0 0 0 .551.091c3.97-.895 5.488.105 7.192 1.261 1.705 1.157 3.658 2.54 7.352 1.719a.733.733 0 0 0 .456-.315.708.708 0 0 0-.225-.987.735.735 0 0 0-.55-.093c-3.284.73-4.462-.306-6.214-1.495-1.314-.892-2.913-1.83-5.454-1.83z" fill="#fff"/></svg>