<svg width="34" height="34" fill="none" xmlns="http://www.w3.org/2000/svg"><path d="M10.767 28.333a.567.567 0 0 0 .4-.967l-.566-.567a.567.567 0 0 0-.802.802l.567.566c.106.107.25.167.4.166zm8.666-1.866a.567.567 0 0 0 .8-.801l-.566-.567a.567.567 0 0 0-.801.802l.567.566zm.234 3.733a.567.567 0 0 0-.801.8l.567.567a.567.567 0 0 0 .8-.801l-.566-.567zm5.999 1.367a.567.567 0 0 0 .801-.801l-.566-.567a.567.567 0 0 0-.802.802l.567.566zM13.6 27.2c.15 0 .295-.06.4-.166l.567-.567a.567.567 0 0 0-.801-.8l-.567.566a.567.567 0 0 0 .401.967zm8.5 2.267c.15 0 .294-.06.4-.166l.567-.567a.567.567 0 0 0-.801-.801l-.567.566a.567.567 0 0 0 .4.968zm.567-5.1c.15 0 .294-.06.4-.166l.567-.567a.567.567 0 0 0-.801-.801l-.567.566a.567.567 0 0 0 .4.968zM10.933 30.2l-.567.566a.566.566 0 1 0 .801.801l.567-.566a.567.567 0 0 0-.801-.802zm4.533-1.7l-.567.566a.567.567 0 1 0 .802.801l.566-.566a.567.567 0 0 0-.801-.802zM25.5 27.2c.15 0 .294-.06.4-.166l.567-.567a.567.567 0 0 0-.801-.8l-.567.566a.567.567 0 0 0 .4.967zM4.7 30.766l-.567.567a.567.567 0 1 0 .801.8l.567-.566a.567.567 0 0 0-.802-.801zm3.4-1.133l-.567.566a.567.567 0 1 0 .801.802l.567-.567a.567.567 0 0 0-.802-.801zm5.334-1.7a.566.566 0 0 0-.801 0l-.567.566a.566.566 0 1 0 .801.802l.567-.567a.566.566 0 0 0 0-.801zM14 30.766a.566.566 0 0 0-.8.801l.566.567a.566.566 0 1 0 .801-.801l-.566-.567zm8.833-.566l-.567.566a.566.566 0 1 0 .801.801l.567-.566a.567.567 0 0 0-.801-.802zm5.667 1.934a.567.567 0 0 0 .8-.801l-.566-.567a.567.567 0 0 0-.801.801l.566.567zm-5.833-5.501c.15 0 .294-.06.4-.166l.567-.566a.567.567 0 0 0-.801-.802l-.567.567a.567.567 0 0 0 .4.967zM18.133 28.9c.15 0 .295-.06.401-.166l.567-.567a.566.566 0 0 0-.802-.8l-.566.566a.567.567 0 0 0 .4.967z" fill="#fff"/><path d="M16.822 17.142c1.51.49 3.084.753 4.671.78a10.044 10.044 0 0 0 5.883-1.78C33.633 11.777 33.988 1.037 34 .582a.568.568 0 0 0-.613-.58C25.72.624 20.425 2.958 17.652 6.94a12.233 12.233 0 0 0-1.79 9.548 9.7 9.7 0 0 0-.521 1.719 8.085 8.085 0 0 0-1.073-1.419 9.57 9.57 0 0 0-1.432-7.322C10.675 6.364 6.563 4.546.613 4.064a.568.568 0 0 0-.613.58c.01.353.285 8.694 5.161 12.095a7.863 7.863 0 0 0 4.606 1.395 12.462 12.462 0 0 0 3.64-.607 7.849 7.849 0 0 1 1.72 2.9 12.27 12.27 0 0 0 .397 2.977 6.713 6.713 0 0 0-2.707-.572 6.944 6.944 0 0 0-6.739 5.582 4.892 4.892 0 0 0-1.03-.108A5.094 5.094 0 0 0 0 33.433.567.567 0 0 0 .567 34h32.866a.567.567 0 0 0 .567-.567 5.099 5.099 0 0 0-4.846-5.123 7.1 7.1 0 0 0 .065-.958 6.816 6.816 0 0 0-12.5-3.895 10.238 10.238 0 0 1 .103-6.315zM5.812 15.81C2.136 13.25 1.339 7.228 1.174 5.252c5.233.526 8.838 2.155 10.722 4.847a8.26 8.26 0 0 1 1.423 5.088C11.775 12.838 8.15 8.166 2.529 5.85a.567.567 0 1 0-.43 1.05c5.927 2.44 9.614 7.821 10.717 9.621-2.801.806-5.16.576-7.003-.71zm12.78-8.238C21.088 4 25.877 1.854 32.829 1.188c-.176 2.35-1.139 10.562-6.102 14.023-2.486 1.735-5.665 2.03-9.45.892 1.281-2.13 6.142-9.467 14.105-12.746a.567.567 0 1 0-.431-1.049C23.334 5.446 18.558 11.94 16.75 14.79a11.01 11.01 0 0 1 1.841-7.216zm-1.148 16.865a5.692 5.692 0 0 1 4.934-2.905 5.77 5.77 0 0 1 5.708 5.82c0 .477-.057.952-.17 1.416a.567.567 0 0 0 .636.694c.132-.018.266-.026.4-.024a3.948 3.948 0 0 1 3.875 3.428H1.173a3.948 3.948 0 0 1 3.876-3.428c.265 0 .53.028.79.083.307.066.627.007.89-.163a1.13 1.13 0 0 0 .493-.732 5.748 5.748 0 0 1 5.595-4.661 5.59 5.59 0 0 1 3.007.877 1.149 1.149 0 0 0 1.62-.405z" fill="#fff"/></svg>