<svg width="48" height="47" fill="none" xmlns="http://www.w3.org/2000/svg"><path d="M14.19 10.604c-.07 0-.137-.002-.202-.005-.931-.044-1.658-.113-2.536-.608-.24-.135-.437-.29-.627-.438a5.154 5.154 0 0 0-.493-.354c-.304-.185-.569-.23-.934-.294l-.223-.04c-.471-.087-.814-.166-1.27-.452-.088-.056-.2-.113-.317-.174-.285-.149-.608-.317-.807-.54-.632-.71.054-1.461.509-1.958.11-.12.217-.236.3-.343.26-.34.487-.717.728-1.117.561-.935 1.142-1.9 2.193-2.377.757-.342 1.618-.439 2.365-.267.764.177 2.01.723 2.69 1.299.45.38.638.93.82 1.46.104.308.204.6.35.842.127.216.39.38.667.554.403.251.859.537.956 1.059.104.564-.32 1.015-.66 1.376-.073.078-.145.153-.208.227a4.72 4.72 0 0 0-.435.629c-.118.19-.239.388-.39.582-.545.699-1.63.939-2.476.939zm-2.073-8.556c-.465 0-.949.104-1.393.305-.908.411-1.424 1.27-1.97 2.178-.237.394-.482.802-.76 1.164-.09.118-.206.244-.327.377-.51.556-.82.948-.504 1.303.137.154.417.3.663.428.131.068.254.133.353.195.367.23.626.296 1.09.383l.217.038c.39.067.727.125 1.114.362.202.122.374.257.54.386.185.144.358.28.565.396.78.441 1.42.501 2.307.543.804.039 1.812-.176 2.251-.739a5.85 5.85 0 0 0 .36-.538c.14-.229.287-.465.48-.692.069-.08.145-.16.223-.244.292-.31.594-.63.534-.952-.057-.31-.384-.515-.73-.731-.316-.198-.643-.402-.832-.721-.171-.288-.284-.617-.392-.935-.168-.489-.325-.95-.67-1.243-.603-.51-1.768-1.028-2.476-1.191a2.835 2.835 0 0 0-.643-.072zm1.433 7.982c-.16 0-.323-.017-.488-.054-.74-.167-1.715-.6-2.226-1.191-.364-.423-.415-.899-.463-1.36-.016-.152-.032-.306-.061-.459-.094-.497-.327-.826-.623-1.243l-.1-.142c-.207-.296-.278-.578-.21-.839.104-.403.511-.653.854-.825.126-.063.26-.136.402-.214.512-.277 1.093-.593 1.69-.708.42-.08.8-.047 1.126.1.138.062.244.156.338.24.093.084.173.156.265.18.15.04.283.066.404.09.432.086.804.16 1.188.692.473.656.727 1.373.736 2.073l.005.253c.02.868.044 1.948-.697 2.543-.35.283-1.19.864-2.14.864zm-.792-6.583c-.105 0-.217.012-.336.034-.518.1-1.062.395-1.542.655-.147.08-.286.155-.416.22-.364.184-.554.345-.596.508-.03.117.017.264.138.438l.098.14c.317.447.59.832.704 1.434.031.166.05.333.067.499.044.421.083.784.347 1.09.413.48 1.295.88 1.953 1.03.64.145 1.46-.121 2.194-.71.55-.443.529-1.39.512-2.15l-.005-.258c-.008-.6-.23-1.22-.643-1.794-.268-.372-.471-.412-.875-.492a6.821 6.821 0 0 1-.437-.097c-.21-.056-.357-.188-.475-.294-.072-.064-.14-.126-.205-.155a1.161 1.161 0 0 0-.483-.098zM9.783 34.509a.995.995 0 0 1-.887-.512c-.363-.617-.044-1.309.109-1.641.091-.197.136-.404.184-.623.042-.188.085-.383.16-.58.18-.477.68-1.02 1.25-1.083.369-.037.692.125.92.465.537.802.3 2.215-.08 2.928-.262.494-.98 1.032-1.63 1.045h-.026zm.923-3.95a.408.408 0 0 0-.049.002c-.309.034-.691.384-.835.764a3.68 3.68 0 0 0-.138.511c-.052.235-.105.478-.218.723-.22.476-.326.861-.132 1.192.108.184.256.283.464.262.444-.01 1.006-.426 1.193-.779.32-.602.515-1.817.105-2.428-.111-.166-.24-.248-.39-.248zm22.455-7.939h-.02c-.47-.008-.919-.253-1.265-.692-.547-.692-.881-1.513-1.206-2.307-.482-1.184-.938-2.302-2.039-2.982a13.517 13.517 0 0 0-.597-.341c-.625-.344-1.273-.7-1.72-1.296-.352-.47-.457-.897-.312-1.267.168-.43.648-.73 1.427-.89.54-.112 1.084-.209 1.62-.305.307-.055.612-.11.913-.166.666-.126 1.19-.466 1.745-.826.185-.12.373-.242.572-.36 1.534-.915 2.054-2.76 2.513-4.389l.1-.36c.206-.755.54-2.018 1.784-1.83.683.103.889.595 1.053.99.287.685.35 1.473.186 2.34-.185.985-.404 2.021-.852 2.892-.11.213-.222.421-.336.63-.323.592-.627 1.15-.824 1.781-.564 1.805-.848 3.864-.78 5.65.044 1.175.022 2.218-.701 3.08-.351.418-.798.647-1.26.647zM36.45 5.084c-.613 0-.84.645-1.068 1.48l-.1.365c-.485 1.717-1.034 3.663-2.74 4.68-.192.114-.375.234-.555.35-.598.388-1.163.755-1.928.899-.302.057-.608.111-.917.166-.532.095-1.07.192-1.607.303-.583.12-.96.327-1.06.583-.079.203.005.471.249.798.382.51.98.839 1.559 1.157.211.116.42.231.62.354 1.239.765 1.747 2.012 2.239 3.217.31.762.632 1.55 1.135 2.188.254.322.556.494.872.5h.013c.309 0 .618-.166.871-.468.612-.729.628-1.637.587-2.749-.07-1.838.222-3.956.802-5.811.211-.677.542-1.284.861-1.87.112-.205.223-.41.331-.62.417-.812.626-1.808.805-2.76.147-.772.094-1.466-.156-2.063-.182-.436-.3-.633-.663-.689a1.135 1.135 0 0 0-.15-.01zM32.411 17.94c-.972 0-2.11-.845-2.374-1.646-.23-.7.019-1.518.137-1.837.379-1.023 1.339-1.677 2.186-2.254l.351-.244c.474-.34 1.191-.855 1.736-.589.246.12.39.33.418.606.045.46-.243 1.024-.474 1.476a3.67 3.67 0 0 0-.194.414c-.188.594-.3 1.366-.363 1.908-.01.082-.017.17-.025.26-.061.694-.146 1.644-1.044 1.865a1.508 1.508 0 0 1-.355.041zm-1.893-1.798c.222.673 1.378 1.459 2.123 1.277.509-.125.6-.695.664-1.428.009-.095.016-.186.026-.272.065-.563.183-1.368.383-2 .04-.127.126-.294.224-.488.192-.375.454-.89.423-1.207-.01-.106-.05-.168-.14-.211-.269-.128-.928.343-1.211.546l-.361.25c-.824.561-1.676 1.142-2 2.017-.209.565-.258 1.132-.131 1.516z" fill="#fff" stroke="#fff" stroke-width=".4"/><path d="M13.42 8.647c-.416 0-.833-.203-1.206-.599-.374-.396-.753-.828-.929-1.353a1.616 1.616 0 0 1 .096-1.227c.156-.295.4-.5.707-.594.4-.123.725.04.985.171.166.083.323.162.482.166.087.003.17 0 .25-.002.387-.014.924-.03.965.847.008.169.045.345.08.515.023.11.046.218.062.325.093.613-.21 1.206-.786 1.548a1.371 1.371 0 0 1-.706.203zm-1.046-3.321a.463.463 0 0 0-.136.02.675.675 0 0 0-.408.35 1.13 1.13 0 0 0-.065.846c.144.43.485.815.82 1.172.295.312.755.618 1.279.308.4-.237.61-.64.548-1.053a5.142 5.142 0 0 0-.057-.297c-.04-.19-.08-.386-.09-.593-.018-.389-.05-.386-.445-.375a4.7 4.7 0 0 1-.28.003c-.273-.008-.498-.121-.697-.221-.189-.095-.328-.16-.469-.16zM7.79 36.193c-.434 0-.719-.168-.89-.328-.654-.604-.547-1.786-.498-2.134.115-.832.642-1.162 1.106-1.453.34-.214.663-.416.842-.81.22-.485.15-1.215.088-1.86a9.264 9.264 0 0 1-.057-.87v-.139c.002-1.654.008-5.528 2.434-5.661.594-.036.938.206 1.121.412.531.597.4 1.591.32 1.99a8.107 8.107 0 0 1-.263.912c-.184.556-.374 1.132-.299 1.66.046.325.206.638.376.968.158.309.322.627.402.979.19.825.215 1.682.216 2.337.001 1.44-.465 3.165-1.783 3.285-.22.018-.43 0-.631-.018-.281-.025-.548-.05-.804.042a2.484 2.484 0 0 0-.502.273c-.242.157-.493.319-.82.38-.13.024-.249.035-.359.035zm3.137-12.764c-.027 0-.055 0-.083.002-1.95.107-1.956 3.654-1.958 5.169v.138c0 .244.026.526.055.824.067.704.143 1.503-.13 2.104-.24.531-.66.795-1.03 1.027-.444.278-.794.498-.878 1.104-.08.568-.037 1.357.343 1.709.192.177.455.232.807.165.228-.043.426-.171.637-.307.185-.12.377-.243.607-.325.363-.13.7-.1 1.024-.07.187.017.363.033.538.018 1.047-.095 1.325-1.8 1.323-2.792 0-.629-.024-1.451-.203-2.23-.067-.291-.21-.57-.36-.864-.181-.352-.368-.716-.425-1.122-.092-.641.117-1.271.319-1.882a7.4 7.4 0 0 0 .247-.854c.107-.527.109-1.217-.205-1.57-.146-.163-.352-.244-.628-.244zm10.808-.224a.856.856 0 0 1-.62-.243.965.965 0 0 1-.155-.198c-.266-.445.021-.946.231-1.312.064-.112.125-.217.163-.31.116-.285.086-.632.058-.967-.05-.58-.105-1.237.625-1.582a1.695 1.695 0 0 1 1.55.05c.486.265.81.736.868 1.26.13 1.191-.783 2.415-1.707 2.962-.422.25-.754.34-1.013.34zm-.263-.592c.227.22.677.029 1.015-.171.801-.474 1.57-1.535 1.466-2.487a1.159 1.159 0 0 0-.612-.88 1.186 1.186 0 0 0-1.084-.037c-.399.188-.391.505-.341 1.096.031.374.068.797-.092 1.19a3.332 3.332 0 0 1-.192.37c-.167.29-.355.62-.235.82a.452.452 0 0 0 .075.099z" fill="#fff" stroke="#fff" stroke-width=".4"/><path d="M19.519 25.227a1.17 1.17 0 0 1-.074-.002c-.318-.023-.533-.2-.588-.483-.166-.852.143-1.599.441-2.322.225-.545.439-1.06.453-1.61.011-.413-.23-.914-.463-1.398-.289-.6-.588-1.222-.454-1.775.135-.554.514-.926 1.097-1.075 1.267-.326 3.39.513 4.633 1.83.892.946 1.197 1.986.86 2.93-.32.9-4.407 3.905-5.905 3.905zm-.193-7.476c-.093.385.168.927.42 1.45.258.537.526 1.092.51 1.623-.016.638-.257 1.22-.49 1.782-.283.686-.55 1.334-.413 2.043.008.042.014.074.13.082 1.142.101 5.211-2.864 5.464-3.572.368-1.03-.315-1.965-.754-2.431-1.113-1.178-3.046-1.968-4.134-1.688-.402.104-.641.336-.733.711zM11.623 44.16c-1.179 0-2.366-.403-3.1-.71a8.372 8.372 0 0 1-2.922-2.026c-.128-.135-.26-.27-.392-.405-.674-.688-1.37-1.4-1.674-2.36a21.823 21.823 0 0 0-.28-.809c-.263-.736-.536-1.496-.588-2.34-.039-.623.06-1.236.154-1.828.09-.564.176-1.097.152-1.635-.046-1.021.181-1.619.556-2.51l.205-.48c.273-.638.555-1.296.763-1.958.447-1.421.826-2.82.549-4.302-.246-1.314-.907-2.666-1.967-4.018-.58-.74-1.275-1.325-1.939-1.846l.113-.232.16-.192.03.026c.703.553 1.425 1.162 2.038 1.943 1.109 1.415 1.803 2.838 2.063 4.23.298 1.593-.096 3.055-.563 4.537-.215.685-.502 1.354-.78 2.003l-.203.478c-.36.853-.561 1.38-.52 2.298.027.588-.067 1.171-.157 1.735-.095.592-.185 1.151-.15 1.721.048.775.297 1.47.562 2.206.098.272.196.546.285.827.27.85.924 1.518 1.556 2.164.135.138.269.275.399.413a7.876 7.876 0 0 0 2.75 1.905c.795.334 2.802 1.042 4.246.42 1.267-.545 1.837-2.132 1.948-3.435.119-1.399-.14-2.703-.415-4.085-.15-.754-.305-1.535-.39-2.326-.123-1.127-.05-2.445.206-3.713.11-.547.266-1.122.488-1.806.075-.232.175-.452.272-.666.11-.241.212-.47.28-.71.058-.204.08-.399.102-.604.03-.273.06-.554.18-.861l.098-.25c.437-1.116.89-2.271.945-3.48.041-.925.057-1.9-.255-2.781-.309-.872-.917-1.266-1.688-1.764l-.302-.197a12.883 12.883 0 0 0-1.229-.686l-.19-.098c-.39-.2-.764-.43-1.124-.65a19.407 19.407 0 0 0-.828-.492c-.155-.087-.315-.164-.474-.241a8.317 8.317 0 0 1-.573-.296c-1.2-.7-2.201-1.523-3.263-2.395l-.162-.134a20.952 20.952 0 0 1-.983-.876 31.91 31.91 0 0 0-.638-.581c-.141-.125-.288-.241-.433-.357-.396-.315-.805-.641-1.103-1.112-.88-1.394-.041-2.636.7-3.73.25-.37.508-.753.694-1.126.53-1.069 1.323-1.952 2.03-2.676.083-.084.168-.16.256-.23l.321.38a2.442 2.442 0 0 0-.212.192c-.679.695-1.44 1.542-1.94 2.55-.2.402-.468.798-.727 1.182-.721 1.065-1.402 2.072-.691 3.197.253.4.611.686.991.988.152.121.305.243.453.373.22.193.434.392.647.59.31.288.63.585.96.856l.163.134c1.045.859 2.032 1.67 3.196 2.348.175.102.357.19.54.278.166.081.334.163.499.254.288.16.567.332.846.503.352.217.717.44 1.09.633l.19.097c.427.218.869.444 1.277.714l.298.195c.782.505 1.522.983 1.887 2.014.34.963.326 1.993.281 2.965-.058 1.289-.526 2.482-.978 3.635l-.097.25c-.096.247-.122.484-.15.736-.024.217-.048.441-.117.685-.078.274-.194.53-.306.778-.095.21-.184.408-.251.614a15.3 15.3 0 0 0-.474 1.753c-.246 1.22-.317 2.486-.2 3.565.083.77.236 1.54.384 2.283.27 1.354.547 2.753.422 4.22-.122 1.445-.778 3.215-2.248 3.848-.487.21-1.017.293-1.549.293z" fill="#fff" stroke="#fff" stroke-width=".4"/><path d="M12.297 41.45c-.532 0-1.076-.179-1.482-.397-.537-.286-.83-.757-1.111-1.213-.231-.371-.448-.722-.784-.95-.347-.232-.687-.135-1.216.041-.443.15-.945.318-1.49.151-.891-.271-1.25-1.222-1.537-1.986l-.118-.31c-.403-1.01-.722-1.81-.673-3.032.043-1.102.255-2.068.648-2.955.342-.77.868-1.114 1.377-1.447.26-.17.53-.345.787-.583.523-.484.8-1.343.645-1.997-.27-1.14-.321-1.993-.177-2.942l.036-.238c.18-1.165.383-2.486.104-3.597-.42-1.668-1.58-3.905-2.987-4.955-.717-.536-1.635-.777-2.523-1.01a35.329 35.329 0 0 1-.615-.165l.14-.475c.2.056.402.11.606.163.935.246 1.902.5 2.698 1.094 1.5 1.12 2.731 3.48 3.171 5.23.303 1.206.092 2.578-.094 3.79l-.037.236c-.134.884-.085 1.682.17 2.757.195.826-.137 1.864-.79 2.469-.289.266-.577.454-.854.635-.49.32-.913.596-1.194 1.233-.368.829-.567 1.737-.608 2.776-.044 1.12.242 1.839.64 2.834.04.101.08.208.121.318.262.696.56 1.486 1.213 1.685.386.116.77-.01 1.177-.147.513-.171 1.093-.365 1.665.02.426.288.682.701.93 1.1.258.419.503.813.92 1.037.621.331 1.316.427 1.769.241.296-.12.5-.36.604-.71.313-1.057.07-2.355-.146-3.5-.046-.244-.09-.482-.129-.71a9.629 9.629 0 0 0-.178-.79c-.11-.43-.223-.876-.24-1.33-.018-.484.05-.962.116-1.423.03-.216.061-.431.083-.647a43.45 43.45 0 0 1 .508-3.559c.099-.532.226-1.04.349-1.532.314-1.257.612-2.445.39-3.815-.03-.18-.052-.343-.073-.499-.073-.533-.125-.919-.38-1.439a17.94 17.94 0 0 1-.291-.625c-.213-.47-.413-.915-.719-1.36-.287-.422-.623-.757-.977-1.113l-.224-.225c-.17-.173-.354-.325-.548-.486a8.77 8.77 0 0 1-.52-.456c-.095-.09-.175-.174-.25-.252-.221-.232-.367-.385-.68-.526-.201-.091-.4-.194-.598-.297a9.253 9.253 0 0 0-.759-.365 21.617 21.617 0 0 0-.767-.291c-.86-.315-1.751-.64-2.476-1.333-.758-.724-1.216-1.641-1.586-2.445-.114-.246-.205-.542-.303-.854-.183-.594-.392-1.267-.767-1.557-.172-.133-.375-.119-.692-.085-.106.011-.21.022-.314.025l-.014-.495c.09-.002.182-.012.274-.022.337-.035.717-.075 1.06.189.498.386.732 1.138.937 1.801.092.297.179.578.279.795.351.762.784 1.63 1.479 2.293.649.62 1.451.913 2.3 1.224.261.096.524.191.785.298.276.113.543.25.8.385.19.098.38.197.574.285.402.182.603.392.837.637.07.073.146.153.235.24.158.153.325.29.492.429.196.162.398.33.585.52l.222.223c.371.371.722.723 1.036 1.182.33.482.539.945.76 1.436.091.2.183.403.285.61.29.591.353 1.053.426 1.588.02.152.042.312.07.488.239 1.468-.07 2.703-.397 4.01-.121.484-.247.985-.343 1.503a43.152 43.152 0 0 0-.502 3.518c-.023.222-.054.444-.086.667-.066.46-.127.895-.111 1.337.015.402.117.803.225 1.228.07.27.14.549.187.83.037.225.082.46.127.7.225 1.2.48 2.558.134 3.727-.147.494-.456.85-.895 1.029a1.873 1.873 0 0 1-.721.133zM1.775 2.82c-.165 0-.326-.03-.476-.098a.93.93 0 0 1-.209-.132l.325-.38a.453.453 0 0 0 .097.063c.395.18 1.056-.148 1.585-.412a6.26 6.26 0 0 1 .577-.265c.226-.083.452-.158.676-.234.333-.11.646-.215.959-.343l.195.457c-.328.134-.664.246-.99.355-.22.073-.441.147-.663.228-.144.053-.328.145-.524.242-.474.237-1.038.519-1.552.519zm23.012 2.25c-.377 0-.756-.053-1.13-.248-.608-.318-.98-.773-1.374-1.255a12.235 12.235 0 0 0-.358-.425l-.12-.137c-.424-.482-.824-.937-1.36-1.222a3.29 3.29 0 0 0-.833-.295l.114-.482c.373.084.678.193.96.342.618.328 1.068.84 1.503 1.335l.12.135c.129.147.25.295.369.44.36.441.7.858 1.218 1.128.467.243.982.2 1.528.153a10.066 10.066 0 0 1 .908-.044c.447-.007.832-.012 1.286-.145 1.31-.385 2.517-1.092 3.686-1.776l.389-.227c.71-.413 1.24-.816 1.664-1.267l.372.335c-.458.487-1.023.919-1.778 1.357L31.563 3c-1.195.7-2.43 1.422-3.8 1.824-.52.153-.96.16-1.425.166-.117.002-.24.004-.367.008-.167.005-.335.02-.503.034-.224.019-.452.039-.68.039z" fill="#fff" stroke="#fff" stroke-width=".4"/><path d="M25.324 2.592a1.63 1.63 0 0 1-.914-.272c-.385-.25-.665-.577-.941-.92l.397-.306c.259.321.5.604.823.814.31.2.593.235 1.084.135.154-.03.311-.084.464-.134l.206-.067c.118-.036.243-.072.372-.108.523-.15 1.117-.319 1.484-.62l.233.133.162.19-.038.03c-.48.394-1.128.578-1.7.741-.125.036-.246.07-.36.106l-.196.063c-.173.057-.351.116-.524.15a2.772 2.772 0 0 1-.552.065zm-6.675 43.331l-.367-.34a9.144 9.144 0 0 0 1.087-1.368c.378-.63.967-2.021.487-2.775-.197-.309-.397-.481-.545-.463-.423.028-.913 1.087-1.207 1.72-.154.333-.287.62-.41.8-.107.155-.239.323-.378.5-.43.546-.917 1.165-.901 1.749l-.506.013c-.02-.76.548-1.482 1.006-2.063a9.38 9.38 0 0 0 .359-.475c.1-.145.23-.428.37-.728.426-.92.908-1.963 1.633-2.01.36-.02.7.212 1.008.695.607.953-.017 2.515-.48 3.288a9.47 9.47 0 0 1-1.156 1.457zm4.393-.056l-.447-.23c.317-.591.612-1.24.62-1.973.007-.562-.009-1.038-.104-1.535-.231-1.203-.614-2.084-1.17-2.694a4.38 4.38 0 0 0-.443-.405c-.26-.218-.527-.443-.717-.743-.08-.127-.148-.241-.211-.35-.163-.276-.291-.494-.544-.77-1.058-1.157-1.48-2.083-1.29-2.831.182-.715.703-1.226 1.206-1.72.254-.249.494-.484.683-.737.462-.618.361-1.024.209-1.64a7.416 7.416 0 0 1-.134-.623c-.341-2.15 1.883-3.847 2.854-4.477 2.17-1.407 3.398-2.807 3.651-4.162.159-.845-.068-1.693-.675-2.518-.368-.502-.723-.756-1.223-1.087-.247-.164-.422-.38-.591-.588-.176-.215-.341-.42-.567-.535-.1-.052-.193-.05-.32-.05a1.22 1.22 0 0 1-.4-.045c-.242-.075-.442-.224-.635-.37a2.604 2.604 0 0 0-.352-.237 7.491 7.491 0 0 0-.723-.302c-.556-.212-1.13-.43-1.53-.852-.356-.376-.48-.862-.34-1.332.146-.488.564-.875 1.091-1.01.399-.101.805-.11 1.197-.12.57-.013 1.11-.026 1.568-.318.147-.093.288-.196.43-.3.486-.355.998-.714 1.69-.71.408.008.775.152 1.13.292.233.09.453.177.675.222 1.322.269 2.87-.68 4.071-1.54.106-.075.22-.153.335-.231.723-.49 1.47-.997 1.315-1.794-.223-1.14-.331-2.095.447-3.16 1.044-1.428 2.313-2.126 3.994-2.195 1.484-.06 2.794.848 3.212 2.211.28.915.278 2.203-.005 3.28-.31 1.176-1.12 2.04-1.903 2.874-.261.279-.531.567-.774.858-.477.574-.927 1.193-.982 1.825-.073.835-.075 1.705-.077 2.545-.002.71-.005 1.445-.049 2.166-.018.29-.01.607-.002.941.015.607.03 1.234-.11 1.783-.135.53-.478.872-.81 1.204-.247.245-.479.476-.611.77-.437.973.31 1.65 1.103 2.364.32.29.622.563.847.86.332.439.374.495.832.572.668.113 1.26.242 1.739.69.686.645.943 1.658 1.12 2.656l.031.188c.069.424.082.513.44.607.215.057.454.056.704.055a3.42 3.42 0 0 1 .737.048c2.209.453 3.296 2.298 3.747 3.358l-.467.19c-.413-.97-1.402-2.658-3.383-3.064a2.999 2.999 0 0 0-.632-.037c-.273-.001-.558.002-.837-.073-.674-.178-.736-.563-.808-1.008l-.03-.18c-.161-.915-.391-1.837-.972-2.382-.374-.352-.89-.462-1.475-.56-.657-.112-.792-.29-1.152-.766-.197-.26-.482-.518-.784-.79-.804-.728-1.804-1.632-1.223-2.927.17-.378.446-.653.713-.919.298-.297.58-.577.681-.976.123-.484.11-1.078.096-1.652-.008-.33-.017-.671.003-.983.043-.706.045-1.433.047-2.137.003-.85.005-1.73.08-2.587.067-.765.565-1.458 1.093-2.093.253-.303.528-.597.794-.881.775-.826 1.507-1.607 1.785-2.663.258-.982.262-2.193.01-3.015-.345-1.128-1.49-1.905-2.706-1.86-1.513.064-2.658.696-3.605 1.99-.663.906-.568 1.723-.362 2.779.218 1.113-.747 1.768-1.522 2.293a16.34 16.34 0 0 0-.326.224c-1.285.92-2.957 1.937-4.473 1.625a4.646 4.646 0 0 1-.759-.247c-.327-.129-.636-.25-.952-.256-.55-.005-.941.292-1.378.612-.15.11-.301.22-.457.319-.579.367-1.215.382-1.83.397-.38.008-.74.017-1.082.104-.356.09-.637.348-.733.67-.09.3-.008.612.224.857.32.339.84.536 1.343.727.261.1.531.203.772.325.154.078.293.182.428.283.165.124.322.242.478.29a.766.766 0 0 0 .247.022c.154 0 .345-.002.557.107.32.164.527.419.727.665.153.187.297.364.48.485.527.35.934.642 1.35 1.208.69.94.946 1.914.762 2.897-.28 1.491-1.582 3-3.87 4.484-.694.45-2.938 2.07-2.633 3.988.033.21.08.402.126.584.158.64.308 1.245-.292 2.048-.212.284-.477.544-.733.794-.476.467-.926.908-1.073 1.49-.145.569.25 1.37 1.175 2.381.289.315.443.577.605.854.062.105.127.215.203.336.15.236.377.426.617.629.167.14.34.285.49.45.62.68 1.042 1.639 1.29 2.934.109.568.118 1.12.113 1.631-.01.841-.348 1.584-.678 2.2zm-20.405-.104l-.505-.02.007-.177c.035-.902.056-1.447.787-2.313.548-.65.305-1.432-.229-2.405-.215-.395-.485-.78-.746-1.154-.33-.474-.673-.963-.927-1.496l.458-.21c.237.497.567.97.886 1.427.269.383.546.78.775 1.199.367.67 1.049 1.915.173 2.954-.623.737-.638 1.138-.673 2.017l-.006.178zm43.92-16.798a11.29 11.29 0 0 0-1.4-1.305c-.723-.58-1.29-1.02-1.995-1.39l-.238-.126c-1.373-.717-2.457-1.285-3.041-2.961-.528-1.514-.547-3.177-.497-4.604.043-1.203.523-2.093 1.011-2.902.274-.454.543-.9.944-1.254.692-.61 1.51-.904 2.3-1.187.338-.122.688-.248 1.022-.397.605-.269.985-.702 1.129-1.285.236-.958-.222-2.084-.782-2.776l-.064-.08c-.568-.7-1.153-1.425-1.582-2.211-.307-.565-.443-1.208-.575-1.83l-.067-.312c-.133-.6-.409-.986-.79-1.52l-.145-.203c-.283-.391-.604-.835-.7-1.33l.497-.091c.075.388.35.768.615 1.136l.147.204c.385.538.717 1.003.87 1.7l.068.316c.124.587.253 1.195.527 1.697.406.747.978 1.453 1.53 2.137l.066.08c.775.958 1.119 2.214.876 3.198-.18.729-.668 1.289-1.412 1.62-.35.156-.71.285-1.057.41-.78.28-1.516.544-2.135 1.09-.344.303-.582.699-.834 1.116-.583.966-.919 1.705-.954 2.69-.05 1.382-.032 2.99.47 4.427.519 1.492 1.426 1.967 2.8 2.685l.24.126c.802.422 1.48.965 2.076 1.444a11.9 11.9 0 0 1 1.46 1.362l-.38.326zm-33.187-16.5c-.442 0-.899-.074-1.367-.244-.74-.269-1.198-.783-1.64-1.279-.507-.569-.987-1.106-1.871-1.236-.11-.016-.228-.03-.35-.047-1.155-.15-2.9-.378-2.996-1.9-.065-1.028.643-1.911 1.267-2.69.248-.31.482-.602.658-.886l.086-.139c.7-1.132 1.425-2.303 2.537-3.005l.274.415C8.955 2.094 8.261 3.216 7.59 4.3l-.086.14a9.93 9.93 0 0 1-.692.933c-.597.745-1.214 1.515-1.161 2.355.065 1.032 1.197 1.263 2.558 1.44.126.017.245.033.358.05 1.069.155 1.632.788 2.177 1.4.42.47.815.915 1.435 1.14 1.938.705 3.665-.454 4.954-1.542.712-.601 1.487-1.138 2.432-1.758.104-.07.23-.145.369-.228.644-.389 1.617-.976 1.558-1.574-.043-.44-.537-.577-1.23-.724-.253-.054-.493-.104-.684-.186-.197-.083-.404-.187-.614-.291-.145-.072-.291-.145-.434-.211-.58-.268-.95-.795-1.276-1.26a8.695 8.695 0 0 0-.332-.453 21.492 21.492 0 0 1-.237-.3c-.238-.306-.485-.622-.751-.879-.346-.333-.75-.615-1.274-.888l.238-.436a5.9 5.9 0 0 1 1.39.972c.292.28.55.611.8.93.078.1.155.2.232.295.12.15.235.313.35.478.305.434.62.883 1.075 1.093.147.068.298.143.448.218.2.1.398.199.586.278.146.062.361.108.59.156.651.137 1.543.326 1.626 1.159.09.905-1.045 1.59-1.796 2.042-.132.08-.253.152-.353.218-.93.61-1.691 1.136-2.384 1.721-1.013.858-2.447 1.877-4.092 1.877z" fill="#fff" stroke="#fff" stroke-width=".4"/><path d="M27.01 45.764l-.504-.023c.027-.597-.076-1.267-.316-2.048-1.224-3.982-3.074-10-1.082-14.906.821-2.022 3.095-4.04 5.684-3.813 2.795.25 3.63 2.753 4.302 4.765l.092.276c.63 1.873 1.94 2.56 3.457 3.357.513.27 1.044.548 1.584.89 1.339.843 2.225 2.198 3.082 3.509.46.704.937 1.432 1.478 2.076.725.86 1.437 1.788 2.163 2.742l-.405.296a70.417 70.417 0 0 0-2.148-2.724c-.561-.666-1.046-1.407-1.514-2.124-.866-1.324-1.683-2.575-2.93-3.36a22.333 22.333 0 0 0-1.55-.87c-1.544-.81-3.003-1.577-3.697-3.638l-.093-.277c-.657-1.97-1.402-4.205-3.866-4.425-2.342-.21-4.415 1.648-5.168 3.503-1.927 4.745-.108 10.664 1.096 14.581.255.835.366 1.558.335 2.213z" fill="#fff" stroke="#fff" stroke-width=".4"/><path d="M44.646 45.818a21.756 21.756 0 0 1-.129-.492 16.959 16.959 0 0 0-.13-.494c-.213-.756-.407-1.391-.805-2.093-.274-.484-.504-1.026-.727-1.551-.415-.977-.845-1.988-1.575-2.69-.432-.414-.972-.725-1.543-1.054-.386-.223-.784-.452-1.145-.716-.304-.223-.593-.468-.873-.705-.415-.352-.845-.715-1.317-.998-.825-.494-1.656-.837-2.536-1.2-.885-.366-.986-.918-1.084-1.45-.046-.252-.094-.512-.225-.782-.41-.84-.986-1.197-1.913-1.194-1.914.006-3.34 1.244-3.552 3.08-.266 2.318-.32 4.4-.158 6.186.081.907.42 1.638.778 2.413.123.267.25.539.369.826.417 1.003.365 2.123.247 2.885l-.5-.073c.109-.702.159-1.726-.215-2.625-.117-.281-.241-.548-.362-.81-.376-.814-.732-1.582-.821-2.572-.164-1.82-.11-3.934.16-6.284.24-2.099 1.869-3.513 4.052-3.52h.013c1.117 0 1.866.47 2.358 1.475.16.33.217.637.266.908.091.493.151.82.783 1.08.858.355 1.746.722 2.603 1.236.508.303.953.68 1.383 1.045.273.231.556.47.846.683.338.248.725.47 1.098.686.572.33 1.164.67 1.64 1.128.804.772 1.254 1.829 1.689 2.852.227.536.442 1.041.703 1.501.424.75.627 1.413.85 2.202.046.166.09.335.133.505.04.16.081.321.126.481l-.487.131z" fill="#fff" stroke="#fff" stroke-width=".4"/><path d="M29.841 45.757l-.505-.008c.009-.537-.013-1.086-.033-1.618-.02-.47-.037-.94-.036-1.41 0-.308.007-.616.014-.925.012-.59.026-1.2-.005-1.796a9.778 9.778 0 0 1-.003-.68c.008-.45.016-.917-.09-1.293a4.507 4.507 0 0 0-.258-.614c-.285-.607-.61-1.294-.333-1.822.147-.28.443-.465.878-.548 1.208-.23 2.696-.017 3.993.22.762.14 1.1.285 1.606.861.38.433.848.754 1.344 1.094.306.21.62.425.914.67a15.31 15.31 0 0 1 1.985 2.008c.212.256.423.504.632.749 1.058 1.242 2.057 2.414 2.56 4.05.108.349.164.704.167 1.055l-.506.005a3.242 3.242 0 0 0-.144-.917c-.475-1.539-1.442-2.674-2.466-3.876-.21-.247-.424-.498-.636-.755-.6-.727-1.246-1.38-1.92-1.942-.275-.23-.58-.439-.875-.64-.5-.344-1.018-.698-1.439-1.178-.415-.475-.654-.575-1.316-.697-1.25-.229-2.679-.434-3.802-.22-.276.051-.453.149-.525.288-.165.313.116.91.342 1.39.118.249.229.484.286.69.125.445.116.946.108 1.432-.004.223-.009.442.002.646.031.614.018 1.233.005 1.832-.006.305-.012.61-.013.916-.001.462.017.925.035 1.39.021.537.043 1.093.034 1.643z" fill="#fff" stroke="#fff" stroke-width=".4"/><path d="M37.91 45.962a3.548 3.548 0 0 1-.311-.211c-.497-.384-.853-.976-1.003-1.666a17.018 17.018 0 0 1-.214-1.315 16.485 16.485 0 0 0-.202-1.252l-.06-.281a11.96 11.96 0 0 0-.27-1.113c-.186-.608-.684-1.127-1.181-1.234-.342-.072-.658.05-.944.366-.332.368-.426.89-.471 1.304-.04.36-.034.728-.03 1.118.01.75.02 1.525-.298 2.245-.218.49-.456.946-.686 1.388-.097.185-.194.369-.286.552l-.453-.219.289-.558c.227-.435.461-.884.672-1.36.276-.622.267-1.311.258-2.041a9.746 9.746 0 0 1 .031-1.177c.053-.487.169-1.106.596-1.579.518-.573 1.064-.6 1.43-.522.677.146 1.317.794 1.558 1.575.12.39.201.78.28 1.156l.06.279c.091.424.151.864.209 1.289.057.422.116.86.207 1.277.125.578.416 1.068.821 1.38.085.065.176.124.268.181l-.27.418z" fill="#fff" stroke="#fff" stroke-width=".4"/><path d="M33.945 45.787l-.5-.069c.08-.564.22-.961.436-1.252.236-.318.745-.517 1.202-.482.362.03.64.198.78.475.14.275.183.69.214.993l.013.125c.006.051.01.104.013.156l-.504.036-.011-.139-.014-.129c-.025-.25-.064-.627-.163-.822-.076-.149-.243-.192-.37-.203-.286-.024-.617.1-.75.28-.167.224-.277.552-.346 1.03zM46.566 7.58l.181-.172-.212.141-.063-.064c-.756-.762-.951-1.598-.651-2.798.14-.559.432-.974.728-1.338l.396.307c-.3.37-.523.708-.634 1.15-.256 1.025-.104 1.703.524 2.336l.062.063-.15.203-.181.172zm.004 18.481a59.11 59.11 0 0 1-.601-.583c-.467-.456-.95-.928-1.461-1.357-.69-.578-1.548-1.298-1.588-2.502-.037-1.144.602-1.517 1.38-1.856.837-.365 1.325-1.02 1.409-1.892.026-.272.01-.586-.007-.917-.036-.745-.079-1.59.383-2.19.132-.172.294-.326.51-.485l.305.395c-.178.13-.308.253-.411.387-.352.458-.316 1.175-.281 1.869.017.35.033.68.004.988-.103 1.06-.693 1.855-1.708 2.297-.781.34-1.104.61-1.078 1.389.03.913.63 1.487 1.41 2.142.527.442 1.017.92 1.49 1.383.198.194.396.387.597.578l-.352.354zM1.504 27.296l-.503-.047c.021-.214.036-.435.047-.67.033-.641.674-.938 1.24-1.2.475-.22.924-.428.974-.768.012-.05.317-1.024-.195-1.911a3.308 3.308 0 0 1-.453-1.453c-.021-.208-.037-.359-.113-.469-.107-.158-.484-.459-.787-.7-.26-.206-.503-.4-.646-.55l.37-.338c.119.125.36.318.594.504.38.303.74.59.89.81.144.212.168.445.194.692.034.319.077.716.391 1.261.623 1.08.261 2.217.245 2.265-.079.563-.7.85-1.248 1.104-.564.26-.935.456-.951.776a13.91 13.91 0 0 1-.049.694z" fill="#fff" stroke="#fff" stroke-width=".4"/><path d="M47 46H1V1h46v45zm-45.495-.495h44.99V1.495H1.505v44.01z" fill="#fff" stroke="#fff" stroke-width=".4"/></svg>