<svg width="45" height="45" fill="none" xmlns="http://www.w3.org/2000/svg"><path d="M.682 45h43.636c.41 0 .682-.272.682-.68 0-.408-.273-.68-.682-.68H40.16c1.296-1.155 2.182-2.922 2.182-4.962 0-.408-.273-.68-.682-.68a5.24 5.24 0 0 0-3 .952c-.273-1.427-1.568-4.078-2.523-3.059-.75.884-1.295 1.904-1.5 3.06a5.24 5.24 0 0 0-3-.953.682.682 0 0 0-.681.68c0 1.972.818 3.807 2.181 4.895h-7.568c1.296-1.156 2.182-2.923 2.182-4.963 0-.408-.273-.68-.682-.68a5.24 5.24 0 0 0-3 .952c-.204-1.155-.75-2.175-1.5-3.059a.738.738 0 0 0-.477-.204c-.205 0-.41.068-.477.204-.75.884-1.296 1.904-1.5 3.06a5.24 5.24 0 0 0-3-.953c-.41 0-.682.34-.682.68 0 1.971.818 3.807 2.182 4.895h-8.387c1.296-1.156 2.182-2.924 2.182-4.963 0-.408-.273-.68-.682-.68a5.24 5.24 0 0 0-3 .952c-.272-1.427-1.636-4.078-2.522-3.059-.75.884-1.296 1.904-1.5 3.06a5.24 5.24 0 0 0-3-.953c-.41 0-.682.34-.682.68 0 1.972.818 3.807 2.182 4.895H.682c-.41 0-.682.271-.682.68 0 .407.273.883.682.883zm31.704-5.574c.887.136 1.705.612 2.319 1.36a.771.771 0 0 0 .75.203c.272-.068.409-.34.409-.611 0-1.02.272-2.04.818-2.855.545.815.818 1.835.818 2.855 0 .272.205.543.41.611.272.068.545 0 .75-.203.613-.748 1.43-1.156 2.317-1.36-.75 5.574-7.84 5.574-8.59 0zm-14.659 0c.887.136 1.705.612 2.319 1.36a.77.77 0 0 0 .75.203c.272-.068.409-.34.409-.611 0-1.02.272-2.04.818-2.855.545.815.818 1.835.818 2.855 0 .272.204.543.409.611.273.068.546 0 .75-.203.614-.748 1.432-1.156 2.318-1.36-.75 5.574-7.84 5.574-8.59 0zm-15.34 0c.886.136 1.704.612 2.318 1.36a.771.771 0 0 0 .75.203c.272-.068.409-.34.409-.611 0-1.02.272-2.04.818-2.855.545.815.818 1.835.818 2.855 0 .272.205.543.41.611.272.068.545 0 .75-.203.613-.748 1.43-1.156 2.317-1.36-.681 5.574-7.84 5.574-8.59 0zM.682 33.648h43.636c.41 0 .682-.272.682-.68 0-.408-.273-.68-.682-.68H40.16c1.296-1.155 2.182-2.922 2.182-4.962 0-.408-.273-.68-.682-.68a5.24 5.24 0 0 0-3 .952c-.204-1.155-.75-2.175-1.5-3.059a.743.743 0 0 0-1.023 0 6.277 6.277 0 0 0-1.431 2.651V24.2c0-1.632-1.364-2.991-3-2.991h-4.569v-2.04h.75c.41 0 .682-.272.682-.68 0-3.262-2.659-6.05-6.136-6.05-3.341 0-6.068 2.72-6.068 6.05 0 .408.272.68.681.68h.75v2.04h-4.5c-1.636 0-3 1.359-3 2.99v2.72a3.893 3.893 0 0 0-1.5.747c-.204-1.155-.75-2.175-1.5-3.059a.743.743 0 0 0-1.022 0c-.75.884-1.296 1.904-1.5 3.06a5.24 5.24 0 0 0-3-.953c-.41 0-.682.34-.682.68 0 1.972.818 3.807 2.182 4.895H.682c-.41 0-.682.271-.682.68 0 .407.273.679.682.679zM22.5 13.799c2.386 0 4.364 1.768 4.704 4.01h-9.409c.341-2.243 2.319-4.01 4.705-4.01zm3.273 5.37v2.04h-6.614v-2.04h6.614zm-8.046 8.973c.887.136 1.705.612 2.319 1.36.204.203.477.271.75.203.272-.067.409-.34.409-.611 0-1.02.272-2.04.818-2.855.545.815.818 1.835.818 2.855 0 .272.204.543.409.611.273.068.546 0 .75-.203.614-.748 1.432-1.156 2.318-1.36-.75 5.438-7.84 5.642-8.59 0zm17.728 1.495c.272-.067.409-.34.409-.611 0-1.02.272-2.04.818-2.855.545.815.818 1.835.818 2.855 0 .272.205.544.41.611.272.068.545 0 .75-.204.613-.747 1.43-1.155 2.317-1.359-.75 5.574-7.84 5.574-8.59 0 .886.136 1.704.612 2.318 1.36.136.203.477.34.75.203zM11.59 24.2c0-.883.75-1.631 1.636-1.631h18.41c.886 0 1.636.748 1.636 1.631v2.787a5.136 5.136 0 0 0-1.773-.34c-.41 0-.682.34-.682.68 0 1.972.818 3.807 2.182 4.895h-7.432c1.296-1.156 2.182-2.923 2.182-4.963 0-.407-.273-.68-.682-.68a5.24 5.24 0 0 0-3 .952c-.204-1.155-.75-2.175-1.5-3.059a.737.737 0 0 0-.477-.204c-.205 0-.41.068-.477.204-.75.884-1.296 1.904-1.5 3.06a5.24 5.24 0 0 0-3-.953c-.41 0-.682.34-.682.68 0 1.972.818 3.807 2.182 4.895h-8.387c1.296-1.156 2.182-2.923 2.182-4.963 0-.408-.273-.68-.682-.68h-.136V24.2zm-9.205 3.943c.887.136 1.705.612 2.319 1.36.204.136.477.271.75.136.272-.069.409-.34.409-.612 0-1.02.272-2.04.818-2.855.545.815.818 1.835.818 2.855 0 .272.205.544.41.611.272.068.545 0 .75-.204.613-.747 1.43-1.155 2.317-1.359-.34 2.38-2.113 4.214-4.295 4.214s-3.955-1.835-4.296-4.146zM23.182.68c0-.408-.273-.68-.682-.68-.409 0-.682.272-.682.68v.68c0 .407.273.68.682.68.41 0 .682-.273.682-.68V.68zM22.5 8.157c-.409 0-.682.272-.682.68v.272c0 .408.273.68.682.68.41 0 .682-.272.682-.68v-.272c0-.34-.273-.68-.682-.68zm.682-2.039c0-.408-.273-.68-.682-.68-.409 0-.682.272-.682.68v.68c0 .407.273.68.682.68.41 0 .682-.273.682-.68v-.68zm0-2.719c0-.408-.273-.68-.682-.68-.409 0-.682.272-.682.68v.68c0 .407.273.68.682.68.41 0 .682-.273.682-.68v-.68zm-4.296 6.865c.205.34.614.408.955.272.34-.204.41-.612.273-.951l-.137-.204c-.204-.34-.613-.408-.954-.272-.341.204-.41.612-.273.951l.136.204zm-2.932-6.457c.341-.204.41-.612.273-.952l-.34-.612c-.205-.34-.614-.408-.955-.272-.341.136-.478.68-.273 1.02l.341.612c.204.272.614.408.954.204zm2.728 4.69c.34-.204.409-.612.273-.952l-.341-.611c-.205-.34-.614-.408-.955-.272-.34.204-.409.611-.273.951l.341.612c.205.34.614.476.955.272zm-2.318-2.583c.204.34.613.408.954.272.341-.204.41-.612.273-.952l-.341-.612c-.204-.34-.614-.408-.954-.272-.341.204-.41.612-.273.952l.34.612zm-5.182 2.651c.204-.34.068-.748-.273-.952l-.614-.34c-.34-.204-.75-.068-.954.272-.205.34-.068.748.273.952l.613.34c.341.204.75.068.955-.272zm5.522 4.01l.205.136c.341.204.75.068.955-.271.204-.34.068-.748-.273-.952l-.205-.068c-.34-.204-.75-.068-.954.272a.686.686 0 0 0 .273.883zm-1.09-2.175L15 10.06c-.34-.204-.75-.068-.955.272-.204.34-.068.748.273.952l.614.34c.34.204.75.068.954-.272.205-.34.069-.816-.272-.952zm-2.318-1.36l-.614-.34c-.341-.203-.75-.067-.955.273-.204.34-.068.748.273.951l.614.34c.34.204.75.068.954-.272.137-.34 0-.815-.272-.951zm-.478 5.37h-.682c-.409 0-.681.273-.681.68 0 .409.272.68.681.68h.682c.41 0 .682-.271.682-.68 0-.407-.34-.68-.682-.68z" fill="#fff"/><path d="M15.136 14.41h-.272c-.41 0-.682.273-.682.68 0 .409.273.68.682.68h.272c.41 0 .682-.271.682-.68 0-.407-.34-.68-.682-.68zm-8.454 0c-.41 0-.682.273-.682.68 0 .409.273.68.682.68h.682c.409 0 .681-.271.681-.68 0-.407-.272-.68-.681-.68h-.682zm3.408 0h-.68c-.41 0-.683.273-.683.68 0 .409.273.68.682.68h.682c.409 0 .682-.271.682-.68a.683.683 0 0 0-.682-.68zm24.82 1.36h.68c.41 0 .683-.271.683-.68 0-.407-.273-.68-.682-.68h-.682c-.409 0-.682.273-.682.68 0 .409.341.68.682.68zm-4.774-1.36h-.272c-.41 0-.682.273-.682.68 0 .409.273.68.682.68h.272c.41 0 .682-.271.682-.68 0-.407-.273-.68-.682-.68zm2.046 1.36h.682c.409 0 .681-.271.681-.68 0-.407-.272-.68-.681-.68h-.682c-.41 0-.682.273-.682.68 0 .409.34.68.682.68zm5.454-1.36c-.409 0-.681.273-.681.68 0 .409.272.68.681.68h.682c.41 0 .682-.271.682-.68 0-.407-.273-.68-.682-.68h-.682zm-6.75-4.146c-.204-.34-.613-.408-.954-.272l-.614.34c-.34.204-.409.612-.273.952.205.34.614.408.955.272l.614-.34c.34-.204.477-.612.272-.952zm1.5-.068l.614-.34c.34-.203.41-.611.273-.951-.205-.34-.614-.408-.955-.272l-.613.408c-.341.204-.41.612-.273.951.273.272.682.408.954.204zm3-1.699c.341-.204.41-.612.273-.952-.204-.34-.614-.408-.954-.272l-.614.34c-.341.204-.41.612-.273.952.205.34.614.408.955.272l.613-.34zm-7.363 4.214l.204-.136c.341-.204.41-.611.273-.951-.205-.34-.614-.408-.955-.272l-.204.136c-.341.204-.41.612-.273.952.273.34.682.475.955.271zm.681-8.293c-.34-.203-.75-.068-.954.272l-.34.612c-.206.34-.07.748.272.952.34.204.75.068.954-.272l.341-.68c.205-.272.069-.748-.273-.884zM25.023 9.38l-.137.205c-.204.34-.068.747.273.951.341.204.75.068.955-.272l.136-.204c.205-.34.068-.747-.273-.951-.34-.204-.75-.068-.954.272zm2.25-1.087l.34-.612c.205-.34.069-.747-.272-.951-.341-.204-.75-.068-.955.272l-.34.611c-.205.34-.069.748.272.952.341.136.75 0 .955-.272zM30 3.535l.34-.544c.206-.34.07-.748-.272-.952-.34-.204-.75-.068-.954.272l-.341.612c-.205.34-.068.748.273.952.34.136.75 0 .954-.34z" fill="#fff"/></svg>