<svg width="35" height="40" fill="none" xmlns="http://www.w3.org/2000/svg"><path d="M26.328 17.662l-.387.253 7.332 10.892-15.03 4.748L4.15 15.892l14.95-4.025-.122-.443-15.63 4.207 3.71 4.65L1 25.612 21.554 39l7.74-8.455L34 29.058l-7.672-11.396zM21.477 38.4L1.76 25.56l5.587-4.918 10.73 13.448 10.336-3.266-6.936 7.577z" fill="#fff" stroke="#fff"/><path d="M19.071 17.172c-1.206-.989-2.361-1.229-2.41-1.238l-.074.36c.011.001 1.126.236 2.261 1.172.392.324.74.694 1.042 1.105l-.016.067.075.017c.814 1.143 1.286 2.598 1.38 4.292-.047.199-.442 1.731-1.639 2.267-.799.358-1.8.205-2.974-.455l-.184.32c.82.46 1.57.69 2.244.69.382 0 .74-.073 1.07-.222 1.447-.65 1.835-2.471 1.851-2.549l.005-.022-.001-.023c-.099-1.87-.622-3.244-1.264-4.24l4.802-3.926 7.338-11.598-.475-1.04-.749.193-.188-.71-.959.248-.233-.88-1.355.246-7.322 11.42-.02.033-1.277 5.409a6.52 6.52 0 0 0-.928-.936zm9.686-15.394l.884-.218.233.88.96-.248.187.71.75-.194.228.528-6.971 11.02-.174-.658-.75.194-.188-.71-.959.247-.233-.88-.887.23 6.92-10.901zm-7.124 11.427l.76-.196.232.88.96-.247.188.71.749-.194.125.474.078-.02-4.242 3.467 1.15-4.874z" fill="#fff" stroke="#fff"/></svg>