<svg width="36" height="36" fill="none" xmlns="http://www.w3.org/2000/svg"><path d="M0 36h28.952V.398H0V36zM1.036 1.43h26.88v33.538H1.036V1.43zM33.192 0L30.61 3.926V36H36V3.915L33.192 0zm.037 1.828l1.393 1.942h-2.67l1.277-1.942zm-.442 9.337v14.828h2.177v6.685h-3.317V4.803h3.317v6.362h-2.177zm2.177 1.032v12.764h-1.14V12.197h1.14zm-3.317 22.77v-1.256h3.317v1.257h-3.317z" fill="#fff"/><path d="M26.872 7.074c0-2.391-1.952-4.336-4.353-4.336a4.351 4.351 0 0 0-4.319 3.82h-7.524a4.351 4.351 0 0 0-4.32-3.82c-2.4 0-4.352 1.945-4.352 4.336 0 2.216 1.678 4.046 3.835 4.302v11.308h-2.73v5.302h2.73v.732c0 2.297 1.876 4.166 4.182 4.166h4.078V21.597h1.092v11.287h3.664c2.306 0 4.183-1.869 4.183-4.166v-.731h2.57v-5.303h-2.57V11.376c2.157-.256 3.834-2.086 3.834-4.302zM22.52 3.77a3.314 3.314 0 0 1 3.317 3.304 3.314 3.314 0 0 1-3.317 3.304 3.314 3.314 0 0 1-3.316-3.304A3.314 3.314 0 0 1 22.52 3.77zM3.04 7.074A3.314 3.314 0 0 1 6.357 3.77a3.314 3.314 0 0 1 3.317 3.304 3.314 3.314 0 0 1-3.317 3.304A3.314 3.314 0 0 1 3.04 7.074zm1.106 16.643h4.353v3.237H4.146v-3.237zm8.917 8.135h-3.042a3.143 3.143 0 0 1-3.145-3.134v-.731h2.66v-5.303h-2.66V11.376a4.349 4.349 0 0 0 3.8-3.786h3.32v8.225H9.328v5.782h3.735v10.255zm5.56-15.005v3.717h-8.258v-3.717h8.258zm5.95 10.107h-4.354v-3.237h4.353v3.237zm-5.39-4.27v5.303H22v.731a3.143 3.143 0 0 1-3.146 3.134h-2.627V21.597h3.431v-5.782h-4.627V7.59H18.2a4.348 4.348 0 0 0 3.801 3.786v11.308h-2.818z" fill="#fff"/><path d="M7.998 5.436L5.41 7.545l-.585-.92-.875.554 1.21 1.903 3.494-2.847-.657-.8zm16.695.799l-.656-.8-2.588 2.11-.585-.92-.875.554 1.21 1.903 3.494-2.847zm-7.66 11.955h-5.32v1.032h5.32V18.19zM6.728 24.23l-.578.54-.58-.54-.707.755.528.492-.528.492.708.754.579-.54.578.54.708-.754-.528-.492.528-.492-.708-.754zm15.089 2.493l.579-.54.578.54.708-.754-.528-.492.528-.492-.707-.754-.58.54-.578-.54-.708.754.528.492-.528.492.707.754z" fill="#fff"/></svg>