<svg width="32" height="33" fill="none" xmlns="http://www.w3.org/2000/svg"><path d="M19.063 16.5c0 1.744-1.372 3.158-3.063 3.158s-3.063-1.414-3.063-3.158S14.31 13.342 16 13.342s3.063 1.414 3.063 3.158z" fill="#fff"/><path d="M23.162 10.912a2.946 2.946 0 0 0-.687-1.09 2.838 2.838 0 0 0-1.056-.708c-.324-.13-.81-.284-1.706-.326-.97-.045-1.26-.055-3.713-.055-2.453 0-2.744.01-3.713.055-.895.042-1.382.197-1.706.326-.399.152-.76.394-1.056.709-.305.306-.54.678-.687 1.09-.126.333-.276.835-.317 1.759-.044.999-.053 1.298-.053 3.828s.01 2.83.053 3.829c.041.924.19 1.425.317 1.76.147.41.382.783.687 1.088.296.315.657.557 1.056.71.324.13.81.284 1.706.326.97.045 1.26.055 3.713.055 2.453 0 2.744-.01 3.712-.055.896-.043 1.383-.197 1.707-.327a3.092 3.092 0 0 0 1.743-1.798c.126-.334.276-.835.317-1.759.044-1 .053-1.299.053-3.829 0-2.53-.01-2.83-.053-3.828-.041-.924-.19-1.426-.317-1.76zM16 21.365c-2.606 0-4.718-2.178-4.718-4.865 0-2.687 2.112-4.865 4.718-4.865 2.605 0 4.718 2.178 4.718 4.865 0 2.687-2.113 4.865-4.718 4.865zm4.904-8.785c-.609 0-1.102-.51-1.102-1.137 0-.628.493-1.137 1.102-1.137.61 0 1.103.509 1.103 1.137 0 .627-.494 1.136-1.103 1.136z" fill="#fff"/><path d="M16 0C7.165 0 0 7.389 0 16.5S7.165 33 16 33s16-7.389 16-16.5S24.835 0 16 0zm9.132 20.406c-.044 1.009-.2 1.697-.427 2.3a4.774 4.774 0 0 1-2.687 2.771c-.584.234-1.252.394-2.23.44-.98.046-1.293.058-3.788.058s-2.808-.012-3.788-.058c-.978-.046-1.646-.206-2.23-.44a4.49 4.49 0 0 1-1.627-1.093 4.66 4.66 0 0 1-1.06-1.678c-.227-.602-.382-1.291-.427-2.3-.045-1.01-.056-1.333-.056-3.906 0-2.573.011-2.896.056-3.906.044-1.009.2-1.697.427-2.3a4.658 4.658 0 0 1 1.06-1.678 4.49 4.49 0 0 1 1.627-1.093c.584-.234 1.252-.394 2.23-.44.98-.047 1.293-.058 3.788-.058s2.808.011 3.788.058c.978.046 1.646.206 2.23.44a4.493 4.493 0 0 1 1.627 1.093 4.66 4.66 0 0 1 1.06 1.678c.227.603.383 1.291.427 2.3.045 1.01.055 1.333.055 3.906 0 2.573-.01 2.896-.055 3.906z" fill="#fff"/></svg>