<svg width="48" height="199" fill="none" xmlns="http://www.w3.org/2000/svg"><path d="M34.582 189.284c3.596-5.423 5.096-11.99 4.227-18.499-.377-2.795-1.261-5.587-2.486-8.332a28.498 28.498 0 0 0-3.467-5.419c-5.295 4.44-8.911 9.625-10.748 15.596-.09.4-.182.8-.34 1.196-2.078 7.781-.928 16.403 3.202 24.364 1.675-.911 3.228-2.032 4.685-3.261 1.897-1.81 3.56-3.668 4.927-5.645z" fill="#3E762D"/><path d="M19.315 174.327a18.295 18.295 0 0 0 10.366-7.621c1.045-1.601 1.829-3.426 2.417-5.378.37-1.398.576-2.858.621-4.317-4.685-.068-8.838.991-12.426 3.242-.224.165-.448.33-.705.463-4.514 3.072-7.744 8.007-9.153 13.922 1.264.275 2.558.388 3.85.403 1.776-.088 3.453-.304 5.03-.714z" fill="#56A33E"/><path d="M0 54c0-13.255 10.745-24 24-24h24v135H24c-13.255 0-24-10.745-24-24V54z" fill="#6CBE45"/><path d="M4.407 20.448c1.407 7.016 5.33 13.295 11.052 17.69 2.46 1.884 5.311 3.373 8.392 4.56a31.249 31.249 0 0 0 6.897 1.527c.676-7.57-.531-14.418-3.731-20.495-.24-.382-.479-.764-.662-1.195C21.939 14.86 14.36 9.038 4.979 6.045c-.597 2.01-.935 4.09-1.117 6.179-.072 2.883.074 5.622.545 8.224z" fill="#56A33E"/><path d="M7.464 40.78a19.986 19.986 0 0 0 12.784 5.82c2.082.144 4.236-.082 6.407-.56a21.048 21.048 0 0 0 4.44-1.709c-2.436-4.501-5.66-7.896-9.717-10.117a5.801 5.801 0 0 1-.817-.425c-5.333-2.667-11.753-3.116-18.133-1.307.413 1.35.996 2.644 1.672 3.884 1.031 1.645 2.132 3.128 3.364 4.414z" fill="#458A30"/></svg>