<svg width="32" height="33" fill="none" xmlns="http://www.w3.org/2000/svg"><path d="M16 0C7.165 0 0 7.389 0 16.5S7.165 33 16 33s16-7.389 16-16.5S24.835 0 16 0zm9.132 20.406c-.044 1.009-.2 1.697-.427 2.3a4.774 4.774 0 0 1-2.687 2.771c-.584.234-1.252.394-2.23.44-.98.046-1.293.058-3.788.058s-2.808-.012-3.788-.058c-.978-.046-1.646-.206-2.23-.44a4.49 4.49 0 0 1-1.627-1.093 4.66 4.66 0 0 1-1.06-1.678c-.227-.602-.382-1.291-.427-2.3-.045-1.01-.056-1.333-.056-3.906 0-2.573.011-2.896.056-3.906.044-1.009.2-1.697.427-2.3a4.658 4.658 0 0 1 1.06-1.678 4.49 4.49 0 0 1 1.627-1.093c.584-.234 1.252-.394 2.23-.44.98-.047 1.293-.058 3.788-.058s2.808.011 3.788.058c.978.046 1.646.206 2.23.44a4.493 4.493 0 0 1 1.627 1.093 4.66 4.66 0 0 1 1.06 1.678c.227.603.383 1.291.427 2.3.045 1.01.055 1.333.055 3.906 0 2.573-.01 2.896-.055 3.906z" fill="#fff"/></svg>