<svg width="61" height="61" viewBox="0 0 61 61" fill="none" xmlns="http://www.w3.org/2000/svg">
<path fill-rule="evenodd" clip-rule="evenodd" d="M40.7985 34.0393C42.7521 36.6751 44.8559 39.4615 46.6591 42.1726L54.924 39.5368C56.7273 35.9973 57.4786 32.1566 57.5537 28.3912C56.2013 25.8307 53.1959 22.2912 51.3926 19.806C48.7629 20.6344 46.1332 21.6888 43.5034 22.7431C42.7521 26.5838 41.8504 30.3492 40.7985 34.0393ZM30.0542 0C46.7342 0 60.1835 13.4802 60.1835 30.1233C60.1835 46.8417 46.7342 60.3218 30.0542 60.3218C13.4492 60.3218 0 46.8417 0 30.1233C0 13.4802 13.4492 0 30.0542 0ZM30.0542 0.602465C24.1936 0.602465 18.7087 2.33455 14.1255 5.34688C14.5011 5.34688 14.8768 5.34688 15.2525 5.34688C13.8249 7.22958 13.2238 9.94068 12.8482 12.1999C9.31679 14.3086 6.46165 17.9233 4.20758 21.2369L1.87839 21.5381C1.72812 22.0653 1.65298 22.5171 1.50271 22.969L4.05731 22.6678C4.58326 26.1319 5.78543 29.4455 7.81409 32.3072C7.43841 35.6961 6.83733 39.4615 6.9876 42.9257C5.86056 43.1516 4.80867 43.2269 3.68164 43.3022C6.76219 49.4022 11.8714 54.3725 18.1076 57.1589C17.732 55.5774 17.5066 53.996 17.5066 52.4145C20.3617 52.2639 24.4942 50.9083 27.2742 50.1552C30.5801 51.8873 34.2618 52.6404 37.9434 52.9416C37.9434 54.4478 38.0185 55.954 38.2439 57.4601C37.1169 58.1379 35.9899 58.7404 34.7877 59.2675C37.4926 58.891 40.0472 58.0626 42.4515 56.933C41.4748 57.0083 40.498 57.0836 39.5212 57.0836C39.371 55.6527 39.2958 54.1466 39.2958 52.6404C42.0758 50.0799 45.2315 46.917 46.8845 43.5281L55.0743 40.8923C55.6754 41.8713 55.8256 43.1516 55.9008 44.2812C58.23 40.0639 59.5073 35.2442 59.5073 30.1233C59.5073 29.069 59.5073 28.0146 59.357 27.0356L58.4554 27.4122C56.6521 24.3998 54.3981 21.6134 52.3694 18.7517C52.3694 15.3629 51.0921 12.0493 49.4391 9.03698L50.1153 8.50982C49.7397 8.20859 49.4391 7.90736 49.0634 7.60612L48.5375 8.05797C45.0061 6.17527 41.0991 5.27157 37.192 4.97034C35.2385 3.08763 32.9093 1.65678 30.4299 0.602465H30.0542ZM28.852 1.43086C24.7196 2.03332 20.7374 3.31356 17.1309 5.34688C15.3276 6.85304 14.5763 9.94068 14.2006 12.2752C16.8303 13.4802 19.3849 14.911 21.8644 16.4925C25.4709 14.7604 29.3028 13.5555 33.285 13.2542C34.1115 10.6938 34.938 8.13328 36.065 5.79873C34.0364 3.84072 31.4817 2.40986 28.852 1.43086ZM33.5855 14.5345C29.6785 14.8357 25.9217 16.0406 22.3904 17.6974C21.3385 21.4628 20.6622 25.2282 20.0612 29.069C22.8412 31.78 25.6963 34.4911 28.4763 37.1269C32.2331 36.1479 35.8396 34.943 39.4461 33.6628C40.5731 29.9727 41.4748 26.2072 42.151 22.3665C39.8969 19.1283 37.0418 16.4925 33.5855 14.5345ZM9.16652 32.6084C8.79085 35.922 8.11463 39.9886 8.34003 43.2269C10.9698 46.1639 13.8249 48.875 17.1309 51.1342C19.3098 51.1342 24.1936 49.5528 26.6731 48.9503C26.2974 45.5614 27.0488 41.4195 27.5747 38.1059C24.7947 35.4701 21.9395 32.7591 19.1595 30.048C15.8536 30.9517 12.4725 31.78 9.16652 32.6084Z" fill="#003820"/>
</svg>
