<svg width="81" height="50" viewBox="0 0 81 50" fill="none" xmlns="http://www.w3.org/2000/svg">
<path d="M72.8962 36.1483C74.0495 34.7124 75.498 33.4177 77.2513 32.4503C75.3719 33.1012 73.7956 33.9131 72.4563 34.8447C71.8331 33.2747 70.7942 31.7494 69.1535 30.3921C70.0896 28.0353 71.3592 25.7196 73.0947 23.6131C70.7986 25.1823 69.082 27.1904 67.807 29.3925C67.3206 29.0716 66.7958 28.7559 66.2262 28.4645C66.7305 28.8731 67.1874 29.3022 67.5978 29.7385C66.2236 32.2366 65.3769 34.9529 64.886 37.5529C64.8163 34.8706 64.4229 32.0516 63.4295 29.4873C64.3558 26.9043 65.62 24.3248 67.3599 21.9278C65.4001 23.5943 63.8658 25.5792 62.6356 27.725C61.5788 25.7178 60.0758 23.9404 57.9809 22.6117C58.2483 22.0914 58.3162 21.6354 58.3216 21.5898L58.4208 16.9146L59.5662 18.8977C59.6895 19.1114 59.9989 19.165 60.2528 19.0184C60.5067 18.8709 60.614 18.5794 60.4915 18.3648L59.2666 16.2431L63.6066 18.6241C63.6629 18.6482 65.0058 19.1981 66.2888 18.4578C67.2625 17.8945 67.917 16.7501 68.2308 15.0558C69.0185 10.8142 66.8056 9.82266 65.8945 9.45072C66.7135 8.908 66.5436 7.76893 66.3264 6.33928C66.2817 6.03082 66.2334 5.70358 66.1896 5.35935C66.1064 4.69325 66.2012 3.98782 66.2933 3.30473C66.4766 1.95197 66.6652 0.556293 65.1194 0.0851073C64.5024 -0.100864 63.7943 0.0189453 63.0719 0.434698C61.7236 1.21524 59.1191 3.7491 56.7238 11.8889C56.6908 11.8701 56.6541 11.8388 56.6219 11.8245C56.6246 11.787 56.6335 11.7503 56.6291 11.7128C56.6371 11.7101 56.6461 11.7101 56.6523 11.7056C56.7578 11.6439 56.7945 11.5062 56.7328 11.3998C56.672 11.2925 56.5334 11.255 56.4279 11.3167C56.4198 11.3212 56.4154 11.3274 56.4091 11.3328C56.343 11.2827 56.2661 11.2532 56.1856 11.238C55.9603 9.94604 55.7359 7.68578 56.3519 6.84801C56.4753 6.90971 56.6246 6.91775 56.7542 6.84354C56.959 6.72374 57.0314 6.46177 56.9116 6.25523C56.7936 6.05049 56.5298 5.97896 56.3242 6.09877C56.1391 6.20427 56.072 6.426 56.1436 6.61823C55.3603 7.60799 55.6938 10.1651 55.8834 11.2657C55.8539 11.2764 55.8235 11.2791 55.794 11.2961C55.7117 11.3435 55.6545 11.4097 55.6062 11.4848C54.7425 10.8196 52.5887 9.29156 51.3316 9.5285C51.1957 9.37561 50.9659 9.33359 50.788 9.44714C50.5877 9.5741 50.5269 9.83875 50.653 10.0399C50.7817 10.2429 51.0473 10.301 51.2484 10.1731C51.3745 10.0927 51.4362 9.95856 51.438 9.81908C52.51 9.65725 54.5163 11.0118 55.524 11.8022C55.5231 11.8183 55.5177 11.8308 55.5204 11.8469C55.5123 11.8496 55.5034 11.8496 55.4971 11.854C55.3907 11.9157 55.3541 12.0543 55.4158 12.1607C55.4444 12.2117 55.4918 12.243 55.5436 12.2591C47.6515 10.4083 44.2709 11.3659 42.9521 12.1276C42.2387 12.5407 41.7827 13.0879 41.6369 13.712C41.603 13.8604 41.5958 13.9909 41.5896 14.1214C41.5878 14.1456 41.5824 14.1724 41.5815 14.1957C41.5806 14.243 41.5851 14.2877 41.5878 14.3316C41.5931 14.4567 41.611 14.5739 41.6441 14.682C41.6486 14.6946 41.6512 14.708 41.6548 14.7205C41.696 14.8403 41.7487 14.9538 41.8211 15.0549C42.2145 15.6566 43.0246 15.9928 43.8185 16.3191C44.4524 16.5784 45.106 16.8466 45.6389 17.249C45.9098 17.4564 46.1682 17.662 46.4087 17.8534C47.5326 18.7475 48.4258 19.4601 49.3011 19.0264C49.1688 19.9947 48.9211 22.3882 52.9579 23.817C53.498 24.0074 53.9995 24.129 54.4689 24.1934C54.8185 25.2726 55.1207 26.3839 55.3469 27.5319C54.9062 28.1989 54.4761 28.8802 54.0934 29.5794C53.2047 28.3983 52.0254 27.3281 50.4706 26.4384C52.0093 27.4667 52.9695 28.9526 53.5346 30.6738C52.5529 32.7248 51.8475 34.8492 51.3423 36.9083C50.906 34.5264 50.1263 32.0533 48.8532 29.7269C49.2197 28.2132 49.7589 26.7496 50.5072 25.3754C49.4951 26.2623 48.6922 27.2673 48.027 28.367C46.9934 26.7836 45.7077 25.2886 44.0787 23.9645C45.4002 26.0245 46.3694 28.1524 47.0864 30.2544C44.8959 35.6145 45.6854 42.2737 46.491 46.1809H45.5835C45.8123 42.8263 45.9429 36.9208 44.6232 31.7297C45.2875 31.1467 46.052 30.6273 46.9014 30.1784C46.0386 30.5146 45.2464 30.8812 44.498 31.2934C43.8588 28.9222 42.9048 26.7451 41.5055 25.0472C41.8596 24.5573 42.2038 24.0798 42.5909 23.6131C42.1063 23.9502 41.6486 24.3087 41.2033 24.6744C40.2949 23.6471 39.1952 22.8227 37.8755 22.28C38.8679 23.082 39.6574 24.1961 40.2958 25.5184C39.1827 26.6155 38.2457 27.8207 37.466 29.1136C36.8741 28.7157 36.2491 28.3277 35.5696 27.9691C36.174 28.4725 36.7239 28.9884 37.2273 29.5275C35.8915 31.8602 35.0385 34.4066 34.5057 36.868C34.402 34.4084 34.0041 31.8584 33.0984 29.5106C34.0837 26.3455 35.4355 23.251 37.3355 20.6492C35.1852 22.3989 33.4846 24.7987 32.156 27.4667C31.2109 25.7563 29.9395 24.2247 28.2309 23.006C28.7799 22.1227 28.6842 21.2608 28.6199 20.7896C29.3781 21.1669 30.1532 20.5482 31.126 19.773C31.3352 19.6076 31.5587 19.4297 31.7939 19.2491C32.257 18.9022 32.823 18.6697 33.3711 18.4453C34.0613 18.1618 34.7641 17.8695 35.1038 17.3464C35.1655 17.2588 35.2102 17.1623 35.246 17.0594C35.2496 17.0478 35.2522 17.0362 35.2558 17.0237C35.2844 16.9307 35.3005 16.8297 35.305 16.7215C35.3077 16.683 35.3112 16.6446 35.3112 16.6043C35.3103 16.5838 35.305 16.5596 35.3032 16.5382C35.2978 16.4255 35.2925 16.312 35.263 16.1841C35.1369 15.6441 34.7417 15.1693 34.123 14.8126C32.9812 14.1536 30.0504 13.3212 23.2106 14.927C23.2553 14.9127 23.2964 14.8859 23.3206 14.8421C23.376 14.7491 23.342 14.6293 23.2517 14.5739C23.2464 14.5712 23.2374 14.5712 23.2303 14.5703C23.233 14.5542 23.2294 14.5452 23.2294 14.5292C24.102 13.8443 25.8401 12.6712 26.7691 12.8116C26.7709 12.9341 26.8254 13.0494 26.9336 13.1183C27.1089 13.2309 27.3386 13.1791 27.4504 13.0038C27.5604 12.8286 27.5067 12.5979 27.3342 12.4888C27.1777 12.3914 26.9792 12.428 26.8612 12.5595C25.7713 12.3538 23.9062 13.6789 23.1579 14.2538C23.1158 14.1894 23.0658 14.1331 22.9942 14.0928C22.9692 14.075 22.9415 14.0732 22.9156 14.066C23.081 13.112 23.3689 10.8956 22.6903 10.0363C22.7519 9.87004 22.6947 9.67871 22.5338 9.58662C22.3559 9.4838 22.127 9.5446 22.025 9.72163C21.9213 9.90044 21.9821 10.1275 22.1609 10.2322C22.2745 10.2965 22.4032 10.2885 22.5096 10.2366C23.0452 10.9626 22.8485 12.9198 22.6545 14.041C22.5847 14.0535 22.5186 14.0794 22.4587 14.1223C22.456 14.117 22.4515 14.1143 22.4435 14.1098C22.3514 14.0544 22.2316 14.0893 22.1806 14.1822C22.1252 14.2752 22.1592 14.3906 22.2504 14.446C22.2539 14.4505 22.2629 14.4505 22.27 14.4532C22.2656 14.4836 22.2736 14.5166 22.2745 14.5479C22.2468 14.5613 22.2155 14.5882 22.186 14.6043C20.1117 7.54988 17.8541 5.35488 16.6855 4.67805C16.0588 4.31774 15.4454 4.21313 14.9117 4.37496C13.5714 4.78356 13.735 5.99416 13.8933 7.16542C13.9729 7.75731 14.0551 8.36886 13.9836 8.94466C13.946 9.24328 13.9031 9.52761 13.8647 9.79494C13.6769 11.0333 13.5294 12.0212 14.2402 12.4915C13.4489 12.8143 11.532 13.6726 12.2142 17.3491C12.486 18.8172 13.0528 19.8106 13.8978 20.2969C15.0082 20.9389 16.1723 20.4632 16.2215 20.4418L19.982 18.38L18.9208 20.2174C18.8153 20.4024 18.9082 20.6555 19.1273 20.7842C19.3472 20.9103 19.6164 20.8638 19.7228 20.6787L20.7143 18.9621L20.8001 23.0114C20.8091 23.0838 20.9781 24.3195 22.0796 24.9569C22.8154 25.3807 23.7891 25.4067 24.9559 25.0803C25.1338 25.6248 25.2938 26.1774 25.4369 26.7344C24.7663 27.6097 24.1879 28.5181 23.6621 29.456C22.7832 28.3241 21.6263 27.3004 20.134 26.4438C20.2959 26.0844 20.4684 25.7276 20.6535 25.379C19.662 26.2373 18.8716 27.2226 18.2314 28.2856C17.2256 26.6584 15.9703 25.1751 14.3904 23.9681C15.66 25.9583 16.6292 28.0103 17.3409 30.0515C16.5702 31.8531 16.1348 33.7959 15.9515 35.7513C15.1861 30.9626 13.1449 26.1541 8.34813 23.8071C10.4788 25.8993 11.8396 28.6111 12.655 31.4928C11.4775 32.3019 10.5539 33.1835 9.84305 34.0847C8.19345 32.2948 5.98684 30.722 3.0417 29.6286C5.49151 31.6126 7.29668 33.8371 8.62351 36.0741C8.24084 36.9047 8.00122 37.7228 7.86175 38.5534C6.20499 37.29 3.70511 36.3727 0 36.1948C12.1149 40.0644 6.65651 49.4381 6.65651 49.4381H75.2977C75.1448 49.211 68.2585 41.1114 80.4673 37.299C77.0206 37.2149 74.7326 37.8855 73.2306 38.97C73.2279 38.0366 73.1331 37.0907 72.8962 36.1483ZM11.9656 46.1809C11.1726 44.3131 10.3741 41.8597 10.2293 39.3062C11.3103 41.9268 11.8109 44.3382 12.0497 46.1809H11.9656ZM13.8298 41.4645C13.2719 39.3813 12.3197 37.1577 10.7371 35.1174C11.1288 33.9229 11.768 32.7677 12.7265 31.7324C13.6197 35.0047 13.8799 38.4747 13.8298 41.4645ZM16.032 46.1809C16.1106 45.5139 16.1857 44.7772 16.2474 43.9448C16.3583 44.7664 16.4969 45.5041 16.6381 46.1809H16.032ZM27.158 17.4743C27.4173 17.0299 27.9904 16.8779 28.4339 17.1336C28.88 17.3911 29.0329 17.9634 28.7754 18.4068C28.5188 18.8557 27.9484 19.0068 27.5005 18.7484C27.057 18.4936 26.9041 17.9222 27.158 17.4743ZM23.3572 19.587C23.6147 19.1427 24.1834 18.9907 24.6322 19.2464C25.0757 19.503 25.2277 20.0752 24.9738 20.5196C24.7154 20.9666 24.1423 21.1195 23.6988 20.8611C23.2517 20.6036 23.0989 20.0341 23.3572 19.587ZM23.0416 14.8957C23.047 14.9002 23.0488 14.9082 23.0568 14.9091C23.1006 14.9342 23.1498 14.9378 23.1954 14.9279C23.1149 14.9467 23.0354 14.9646 22.954 14.9842C22.9531 14.9708 22.9567 14.9521 22.9558 14.9386C22.9817 14.9252 23.0157 14.9136 23.0416 14.8957ZM16.361 11.2407C16.6185 10.7972 17.1889 10.6416 17.6351 10.8991C18.0803 11.1575 18.2332 11.7298 17.9766 12.1732C17.7182 12.6176 17.1478 12.7741 16.7025 12.5157C16.2573 12.2573 16.1035 11.6868 16.361 11.2407ZM18.0499 16.5221C17.7924 16.9691 17.2202 17.122 16.7758 16.8636C16.3297 16.6088 16.1768 16.0366 16.4343 15.5904C16.6909 15.1452 17.2622 14.9932 17.7093 15.2489C18.1527 15.5055 18.3056 16.0777 18.0499 16.5221ZM19.0987 45.6623C18.4853 42.5983 17.8881 38.0938 18.3298 33.5322C19.417 38.2726 19.3508 42.6796 19.0987 45.6623ZM19.0084 29.684C19.2954 28.5753 19.6664 27.4881 20.1349 26.442C21.6066 27.4291 22.5543 28.8373 23.1248 30.4744C22.2521 32.2447 21.6039 34.0686 21.1202 35.8532C20.666 33.7655 19.9856 31.6465 19.0084 29.684ZM22.177 45.6614C22.2271 42.6546 22.5392 38.2029 23.7953 33.5751C24.2022 37.7129 23.1292 42.4445 22.177 45.6614ZM24.9657 46.1809H24.6599C25.0042 45.1509 25.3806 43.8983 25.6783 42.508C25.4503 43.9018 25.2026 45.1464 24.9657 46.1809ZM26.2174 38.0116C26.2487 35.5895 25.8518 33.1003 24.6152 30.8794C24.9389 29.9576 25.318 29.0259 25.7498 28.1104C26.3989 31.4579 26.432 34.8894 26.2174 38.0116ZM26.5778 26.4C27.0963 25.4496 27.656 24.5144 28.2864 23.6131C27.5613 24.264 26.888 24.948 26.2711 25.6722C26.1414 25.3709 25.9903 25.0794 25.8446 24.7853C27.0677 24.2882 27.7776 23.6847 28.1764 23.0838C29.8331 24.5904 30.8649 26.6557 31.4577 28.9768C29.9878 32.4038 29.0195 36.1358 28.4285 39.4618C28.5984 35.3892 28.2649 30.6398 26.5778 26.4ZM30.9418 46.1809H30.712C30.7746 43.1088 31.0393 38.2709 32.1336 33.2613C32.4484 38.0125 31.6142 42.9988 30.9418 46.1809ZM42.6732 36.4675C42.5284 35.8801 42.346 35.273 42.1037 34.682C42.2127 34.4915 42.3442 34.3056 42.4586 34.1303C42.5623 34.9118 42.6142 35.6878 42.6732 36.4675ZM38.4066 31.0323C39.2113 32.2474 39.7549 33.5134 40.083 34.7982C38.0114 37.1541 36.8714 39.8355 36.2903 42.254C36.411 38.9754 36.9421 34.9708 38.4066 31.0323ZM38.9743 46.0208C39.0745 43.7811 39.4437 40.7806 40.5274 37.8846C40.6195 40.9522 39.8139 43.867 38.9743 46.0208ZM38.7562 30.1024C39.2864 28.8266 39.9131 27.5614 40.6525 26.3276C41.4358 28.2096 41.9615 30.4324 42.2869 32.7337C42.0178 32.9555 41.738 33.1799 41.4858 33.399C40.8412 32.2474 39.9417 31.1369 38.7562 30.1024ZM42.6634 46.1809H41.8247C42.2038 45.1142 42.5811 43.8259 42.8118 42.3962C42.776 43.816 42.7322 45.0963 42.6634 46.1809ZM48.8236 45.0409C48.2997 42.1351 47.7972 38.16 48.1432 34.0829C49.0284 38.3093 49.0347 42.2102 48.8236 45.0409ZM61.9775 7.61604C62.4916 7.31741 63.1506 7.49623 63.4474 8.00944C63.746 8.52265 63.5681 9.18338 63.054 9.48022C62.5408 9.77795 61.881 9.60003 61.5841 9.08593C61.2873 8.57272 61.4625 7.91288 61.9775 7.61604ZM61.8935 12.6355C62.4085 12.3386 63.0674 12.5148 63.3643 13.028C63.6602 13.5421 63.4859 14.2019 62.9709 14.4988C62.4568 14.7956 61.7969 14.6186 61.5001 14.1054C61.2023 13.5913 61.3794 12.9314 61.8935 12.6355ZM55.7207 12.243C55.7287 12.2394 55.7332 12.2313 55.7394 12.2269C55.769 12.2483 55.8065 12.2599 55.8387 12.2769C55.8369 12.293 55.8423 12.3136 55.8414 12.3297C55.7475 12.3073 55.6554 12.2859 55.5624 12.2644C55.6152 12.2751 55.6715 12.2716 55.7207 12.243ZM53.9048 17.2481C54.4198 16.9512 55.0787 17.1274 55.3755 17.6406C55.6724 18.1547 55.4963 18.8145 54.9822 19.1114C54.4689 19.4082 53.8082 19.233 53.5114 18.718C53.2154 18.203 53.3916 17.544 53.9048 17.2481ZM50.5931 16.6741C50.0789 16.9709 49.4191 16.7957 49.1223 16.2807C48.8263 15.7675 49.0007 15.1076 49.5157 14.8108C50.0289 14.514 50.6896 14.6901 50.9874 15.2033C51.2833 15.7192 51.1063 16.3781 50.5931 16.6741ZM52.7067 45.0713C52.7791 42.1834 53.1019 38.1966 54.1667 34.0239C54.452 37.7988 53.5757 42.0082 52.7067 45.0713ZM55.5866 46.1809H55C55.3183 45.2448 55.6482 44.1379 55.9344 42.9049C55.8208 44.1361 55.7126 45.2421 55.5866 46.1809ZM55.0698 31.0734C55.2513 30.5227 55.4641 29.9728 55.6894 29.4238C55.8879 30.8767 56.0291 32.3547 56.1051 33.8111C55.8691 32.8714 55.5356 31.9469 55.0698 31.0734ZM56.8079 26.9463C57.381 25.8063 58.048 24.6923 58.7883 23.6122C57.9282 24.3776 57.1566 25.1876 56.4762 26.0451C56.2258 25.4246 55.9433 24.8166 55.6384 24.2202C56.0855 24.1675 56.4896 24.0396 56.8472 23.8331C57.4078 23.5094 57.7511 23.0534 57.9693 22.635C60.0195 24.2175 61.2158 26.5726 61.8372 29.2548C60.1732 32.6783 59.238 36.3664 58.7186 39.6495C58.7293 35.7146 58.3073 31.1208 56.8079 26.9463ZM61.1478 45.5014C61.0611 42.4194 61.1961 37.8748 62.3718 33.0663C62.6338 37.552 61.8568 42.2782 61.1478 45.5014ZM64.1394 46.1809C64.1797 46.0298 64.1993 45.8733 64.2208 45.716C64.2235 45.8751 64.2271 46.0271 64.2306 46.1809H64.1394ZM68.8325 31.2406C69.9323 32.8401 70.5045 34.5309 70.7253 36.2144C68.8879 37.8855 67.6505 39.7738 66.8163 41.5835C67.0032 38.506 67.5227 34.8536 68.8325 31.2406ZM68.7065 46.1809H68.3479C68.7628 44.2997 69.4897 41.849 70.7432 39.4412C70.475 42.0108 69.571 44.382 68.7065 46.1809Z" fill="#003820"/>
</svg>
