<svg width="148" height="51" viewBox="0 0 148 51" fill="none" xmlns="http://www.w3.org/2000/svg">
<g clip-path="url(#clip0)">
<path d="M66.7697 14.772C66.6653 20.2659 66.6653 24.8278 62.4367 29.1444C58.6258 33.0195 52.8311 35.1288 47.2452 35.1288C36.3344 35.1288 27.5118 28.801 27.5118 18.0095C27.564 7.02175 36.1256 0.44873 47.4018 0.44873C53.6141 0.44873 62.1757 3.34282 64.9425 9.08196L52.7789 13.2514C51.787 11.5346 49.9076 10.6516 47.8716 10.6516C43.2254 10.6516 40.6674 14.3796 40.6674 18.451C40.6674 22.1299 43.121 25.6126 47.3496 25.6126C49.3856 25.6126 51.9958 24.7297 52.6222 22.6695H46.7231V14.772H66.7697Z" fill="white"/>
<path d="M18.2194 35.0307C18.2194 37.9247 18.7414 41.1132 22.5524 41.1132C24.484 41.1132 25.8935 39.8378 26.2589 38.17H44.1651C41.7115 46.7542 31.5316 50.7274 22.8134 50.7274C10.9108 50.7274 0 44.9392 0 32.6761C0 20.8545 9.71005 13.4966 21.7693 13.4966C30.4353 13.4966 37.9005 16.8813 41.8681 22.8657C44.1129 26.2012 45.3136 30.2726 44.9481 35.0797H18.2194V35.0307ZM26.8332 27.6237C26.8332 25.2202 24.9538 23.0128 22.3436 23.0128C19.5767 23.0128 18.2194 25.1711 18.2194 27.6237H26.8332Z" fill="white"/>
<path d="M87.8603 17.3228H76.9496C77.1062 18.2057 77.5238 18.9415 78.2025 19.4811C78.8811 20.0207 79.7686 20.2659 80.8127 20.2659C82.0656 20.2659 83.1619 19.8244 84.1016 18.9906L86.9729 20.2659C86.242 21.1979 85.4067 21.9337 84.4148 22.3752C83.4229 22.8166 82.2222 23.0619 80.8649 23.0619C78.7245 23.0619 77.0018 22.4242 75.6967 21.1489C74.3393 19.8735 73.7129 18.3038 73.7129 16.4398C73.7129 14.4777 74.3916 12.9081 75.6967 11.5836C77.054 10.3083 78.7245 9.67059 80.7083 9.67059C82.8487 9.67059 84.5714 10.3083 85.9288 11.5836C87.2861 12.859 87.9125 14.5758 87.9125 16.6851L87.8603 17.3228ZM84.4148 14.8211C84.206 14.1344 83.7362 13.5457 83.1097 13.1043C82.4311 12.6628 81.7002 12.4175 80.8127 12.4175C79.873 12.4175 79.0378 12.6628 78.3069 13.1533C77.8371 13.4476 77.4194 14.0363 77.054 14.8211H84.4148Z" fill="white"/>
<path d="M90.575 10.015H94.0205V16.1465C94.0205 17.3238 94.1249 18.1577 94.2815 18.6482C94.4381 19.0897 94.7513 19.4821 95.1168 19.7273C95.4822 19.9726 96.0043 20.1198 96.5263 20.1198C97.0483 20.1198 97.5704 19.9726 97.988 19.7273C98.4057 19.4821 98.6667 19.0897 98.8755 18.5991C99.0321 18.2558 99.0843 17.4709 99.0843 16.2446V10.015H102.478V15.4107C102.478 17.6181 102.269 19.1387 101.903 19.9726C101.434 20.9536 100.755 21.7385 99.8674 22.2781C98.9799 22.8176 97.8314 23.0629 96.4741 23.0629C95.0124 23.0629 93.8117 22.7686 92.872 22.1309C91.9323 21.4932 91.3058 20.6593 90.9404 19.5311C90.6794 18.7463 90.5228 17.3728 90.5228 15.3126V10.015H90.575Z" fill="white"/>
<path d="M105.088 10.015H108.011V11.6337C108.325 10.9961 108.742 10.5055 109.264 10.2112C109.786 9.86786 110.36 9.7207 110.987 9.7207C111.405 9.7207 111.874 9.81881 112.344 10.0641L111.3 12.811C110.883 12.6148 110.569 12.5167 110.308 12.5167C109.786 12.5167 109.369 12.811 109.003 13.4487C108.638 14.0373 108.481 15.2636 108.481 17.0295V17.6672V22.8177H105.088V10.015Z" fill="white"/>
<path d="M120.384 9.7207C121.637 9.7207 122.837 10.015 123.986 10.6036C125.134 11.1923 125.97 12.0262 126.596 13.0563C127.223 14.0864 127.536 15.2146 127.536 16.3918C127.536 17.5691 127.223 18.6973 126.596 19.7764C125.97 20.8065 125.082 21.6404 123.986 22.2291C122.89 22.8177 121.689 23.112 120.384 23.112C118.452 23.112 116.782 22.4743 115.424 21.1499C114.067 19.8745 113.388 18.2558 113.388 16.4409C113.388 14.4297 114.171 12.811 115.738 11.4866C117.043 10.3093 118.609 9.7207 120.384 9.7207ZM120.436 12.7129C119.392 12.7129 118.504 13.0563 117.774 13.743C117.095 14.4297 116.729 15.3127 116.729 16.3918C116.729 17.52 117.095 18.403 117.774 19.0897C118.452 19.7764 119.34 20.1198 120.436 20.1198C121.48 20.1198 122.368 19.7764 123.098 19.0897C123.829 18.403 124.143 17.52 124.143 16.3918C124.143 15.3127 123.777 14.4297 123.098 13.743C122.42 13.0563 121.532 12.7129 120.436 12.7129Z" fill="white"/>
<path d="M84.2582 30.2726H87.6515V41.1622C87.6515 43.3205 87.1817 44.8902 86.2942 45.9203C85.0413 47.2938 83.2141 47.9805 80.7083 47.9805C79.4032 47.9805 78.2547 47.8334 77.3672 47.49C76.4797 47.1957 75.6967 46.7051 75.0702 46.1165C74.4438 45.5279 73.9739 44.7921 73.7129 43.9092H77.4716C77.7848 44.2525 78.2547 44.5468 78.7767 44.7431C79.2988 44.9393 79.9252 45.0374 80.6561 45.0374C81.5436 45.0374 82.3266 44.8902 82.8487 44.6449C83.4229 44.3997 83.7884 44.0563 84.0494 43.6149C84.2582 43.1734 84.4148 42.4866 84.4148 41.4565C83.8406 41.9961 83.2141 42.4376 82.5355 42.6829C81.8568 42.9281 81.1259 43.0753 80.2907 43.0753C78.4635 43.0753 76.9496 42.4376 75.6967 41.2113C74.4438 39.985 73.8173 38.4153 73.8173 36.5513C73.8173 34.5402 74.496 32.9214 75.8011 31.6951C77.0018 30.5669 78.4635 30.0273 80.0818 30.0273C80.8649 30.0273 81.5958 30.1745 82.2744 30.4198C82.9531 30.665 83.684 31.1555 84.3626 31.7442V30.2726H84.2582ZM80.7605 32.9214C79.6642 32.9214 78.8289 33.2648 78.0981 33.9515C77.4194 34.6383 77.054 35.4722 77.054 36.5023C77.054 37.5814 77.4194 38.4153 78.1503 39.102C78.8811 39.7888 79.7686 40.1321 80.8649 40.1321C81.909 40.1321 82.7965 39.7888 83.4751 39.1511C84.1538 38.4644 84.5192 37.6305 84.5192 36.5513C84.5192 35.4722 84.1538 34.6383 83.4751 33.9515C82.7443 33.2157 81.8568 32.9214 80.7605 32.9214Z" fill="white"/>
<path d="M101.068 30.2726H104.461V42.9772H101.068V41.6527C100.389 42.2414 99.763 42.6828 99.0843 42.9281C98.4056 43.1734 97.6748 43.3205 96.8917 43.3205C95.169 43.3205 93.655 42.6828 92.3499 41.4075C91.097 40.1321 90.4183 38.5624 90.4183 36.6494C90.4183 34.6873 91.0448 33.0686 92.2455 31.8423C93.4984 30.5669 94.9601 29.9783 96.7351 29.9783C97.5704 29.9783 98.3012 30.1254 99.0321 30.4197C99.763 30.7141 100.389 31.1555 101.016 31.6951V30.2726H101.068ZM97.5182 32.8724C96.4741 32.8724 95.5866 33.2157 94.9079 33.9025C94.2293 34.5892 93.8638 35.4721 93.8638 36.6003C93.8638 37.6795 94.2293 38.6115 94.9079 39.2982C95.6388 39.985 96.4741 40.3774 97.5182 40.3774C98.5623 40.3774 99.4497 40.034 100.181 39.3473C100.859 38.6605 101.225 37.7285 101.225 36.6003C101.225 35.4721 100.859 34.5892 100.181 33.9025C99.5019 33.2157 98.6145 32.8724 97.5182 32.8724Z" fill="white"/>
<path d="M107.333 30.2726H117.721L111.613 40.2793H117.356V42.9772H106.393L112.501 32.9705H107.333V30.2726Z" fill="white"/>
<path d="M126.022 29.9293C127.275 29.9293 128.476 30.2236 129.624 30.8122C130.773 31.4008 131.608 32.2347 132.234 33.2648C132.861 34.2949 133.174 35.4231 133.174 36.6004C133.174 37.7776 132.861 38.9059 132.234 39.985C131.608 41.0151 130.72 41.849 129.624 42.4376C128.528 43.0263 127.327 43.3206 126.022 43.3206C124.09 43.3206 122.42 42.6829 121.062 41.3585C119.705 40.0831 119.026 38.4644 119.026 36.6494C119.026 34.6383 119.81 33.0196 121.376 31.6951C122.681 30.5179 124.247 29.9293 126.022 29.9293ZM126.074 32.9215C125.03 32.9215 124.143 33.2648 123.412 33.9516C122.681 34.6383 122.368 35.5212 122.368 36.6004C122.368 37.7286 122.733 38.6115 123.412 39.2983C124.09 39.985 124.978 40.3284 126.074 40.3284C127.118 40.3284 128.006 39.985 128.737 39.2983C129.467 38.6115 129.781 37.7286 129.781 36.6004C129.781 35.5212 129.415 34.6383 128.737 33.9516C128.058 33.2648 127.17 32.9215 126.074 32.9215Z" fill="white"/>
<path d="M135.993 30.2726H139.386V31.597C140.169 31.0084 140.848 30.5669 141.474 30.3216C142.101 30.0764 142.727 29.9783 143.406 29.9783C144.763 29.9783 145.912 30.4197 146.799 31.3027C147.582 32.0385 148 33.1667 148 34.6382V43.0262H144.607V37.3852C144.607 35.8646 144.555 34.8345 144.398 34.3439C144.241 33.8534 143.98 33.461 143.615 33.2157C143.249 32.9705 142.832 32.8233 142.258 32.8233C141.579 32.8233 141.005 33.0195 140.483 33.461C140.013 33.9025 139.647 34.4911 139.438 35.2759C139.334 35.6683 139.282 36.5513 139.282 37.8757V42.9772H135.889V30.2726H135.993Z" fill="white"/>
<path d="M45.0004 35.0307C35.1859 34.1968 27.564 28.0162 27.564 18.0095C27.564 16.6361 27.7206 15.3607 27.9295 14.0853C27.9295 14.0853 45.7834 16.6851 45.0004 35.0307Z" fill="#70B62C"/>
</g>
<defs>
<clipPath id="clip0">
<rect width="148" height="50.2787" fill="white" transform="translate(0 0.44873)"/>
</clipPath>
</defs>
</svg>
