<svg width="86" height="88" viewBox="0 0 86 88" fill="none" xmlns="http://www.w3.org/2000/svg">
<path d="M14.5757 7.92134C14.5757 8.71348 15.1038 9.24157 15.8959 9.24157C16.688 9.24157 17.2161 8.71348 17.2161 7.92134V6.60111C17.2161 5.80897 16.688 5.28088 15.8959 5.28088C15.1038 5.28088 14.5757 5.80897 14.5757 6.60111V7.92134Z" fill="#E4F3DD"/>
<path d="M14.5757 12.5421C14.5757 13.3342 15.1038 13.8623 15.8959 13.8623C16.688 13.8623 17.2161 13.3342 17.2161 12.5421V11.882C17.2161 11.0899 16.688 10.5618 15.8959 10.5618C15.1038 10.5618 14.5757 11.0899 14.5757 11.882V12.5421Z" fill="#E4F3DD"/>
<path d="M15.8959 3.96068C16.688 3.96068 17.2161 3.43259 17.2161 2.64046V1.32023C17.2161 0.528091 16.688 0 15.8959 0C15.1038 0 14.5757 0.528091 14.5757 1.32023V2.64046C14.5757 3.30057 15.2358 3.96068 15.8959 3.96068Z" fill="#E4F3DD"/>
<path d="M6.12623 3.4327C5.73016 2.77259 4.93802 2.64056 4.27791 3.03663C3.74982 3.4327 3.61779 4.35686 4.01386 4.88495L4.806 5.94113C5.20207 6.46922 5.9942 6.73327 6.65432 6.20518C7.31443 5.80911 7.44645 5.01697 6.91836 4.35686L6.12623 3.4327Z" fill="#E4F3DD"/>
<path d="M10.747 14.6546C11.143 15.3147 11.9352 15.4467 12.5953 14.9186C13.2554 14.5225 13.3874 13.7304 12.8593 13.0703L12.0672 12.0141C11.8031 11.486 11.011 11.354 10.3509 11.7501C9.69077 12.1461 9.55875 12.9383 10.0868 13.5984L10.747 14.6546Z" fill="#E4F3DD"/>
<path d="M9.16285 7.78927C8.76678 7.12915 7.97464 6.99713 7.31453 7.3932C6.78644 7.78927 6.65441 8.71343 7.05048 9.24152L7.84262 10.2977C8.23869 10.8258 9.03082 11.0898 9.69094 10.5617C10.219 10.2977 10.3511 9.37354 9.95498 8.84545L9.16285 7.78927Z" fill="#E4F3DD"/>
<path d="M27.1179 5.94095L27.9101 4.88476C28.3061 4.22465 28.1741 3.43251 27.646 3.03644C26.9859 2.64038 26.1938 2.7724 25.7977 3.30049L25.0056 4.35667C24.6095 5.01679 24.7415 5.80892 25.2696 6.20499C25.9297 6.73308 26.7219 6.60106 27.1179 5.94095Z" fill="#E4F3DD"/>
<path d="M19.7246 12.0141L18.9324 13.0703C18.5364 13.7304 18.6684 14.5225 19.1965 14.9186C19.8566 15.3147 20.6487 15.1827 21.0448 14.6546L21.8369 13.5984C22.233 12.9383 22.101 12.1461 21.5729 11.7501C20.9128 11.354 20.1206 11.486 19.7246 12.0141Z" fill="#E4F3DD"/>
<path d="M22.7611 7.78924L21.9689 8.84542C21.5729 9.50554 21.7049 10.2977 22.233 10.6937C22.8931 11.0898 23.6852 10.9578 24.0813 10.4297L24.8734 9.37352C25.2695 8.7134 25.1375 7.92127 24.6094 7.5252C23.9493 6.99711 23.1571 7.12913 22.7611 7.78924Z" fill="#E4F3DD"/>
<path d="M59.7275 3.96068C60.5196 3.96068 61.0477 3.43259 61.0477 2.64046V1.32023C61.0477 0.528091 60.5196 0 59.7275 0C58.9353 0 58.4072 0.528091 58.4072 1.32023V2.64046C58.4072 3.30057 58.9353 3.96068 59.7275 3.96068Z" fill="#E4F3DD"/>
<path d="M58.4072 7.92134C58.4072 8.71348 58.9353 9.24157 59.7275 9.24157C60.5196 9.24157 61.0477 8.71348 61.0477 7.92134V6.60111C61.0477 5.80897 60.5196 5.28088 59.7275 5.28088C58.9353 5.28088 58.4072 5.80897 58.4072 6.60111V7.92134Z" fill="#E4F3DD"/>
<path d="M58.4072 12.5421C58.4072 13.3342 58.9353 13.8623 59.7275 13.8623C60.5196 13.8623 61.0477 13.3342 61.0477 12.5421V11.882C61.0477 11.0899 60.5196 10.5618 59.7275 10.5618C58.9353 10.5618 58.4072 11.0899 58.4072 11.882V12.5421Z" fill="#E4F3DD"/>
<path d="M54.5786 14.6544C54.9746 15.3145 55.7668 15.4466 56.4269 14.9185C57.087 14.5224 57.219 13.7303 56.6909 13.0702L55.8988 12.014C55.5027 11.3539 54.7106 11.2218 54.0505 11.7499C53.3904 12.146 53.2583 12.9381 53.7864 13.5982L54.5786 14.6544Z" fill="#E4F3DD"/>
<path d="M52.9942 7.78924C52.5982 7.12913 51.806 6.99711 51.1459 7.5252C50.4858 7.92127 50.3538 8.7134 50.8819 9.37352L51.674 10.4297C52.0701 10.9578 52.8622 11.2218 53.5223 10.6937C54.1825 10.2977 54.3145 9.50554 53.7864 8.84542L52.9942 7.78924Z" fill="#E4F3DD"/>
<path d="M49.9578 3.43243C49.5617 2.77232 48.7696 2.64029 48.1095 3.16839C47.4493 3.43243 47.3173 4.35659 47.7134 4.88468L48.5055 5.94086C48.9016 6.46895 49.6937 6.733 50.3538 6.20491C51.014 5.80884 51.146 5.0167 50.6179 4.35659L49.9578 3.43243Z" fill="#E4F3DD"/>
<path d="M70.9493 5.94095L71.7415 4.88476C72.1376 4.22465 72.0055 3.43251 71.4774 3.03644C70.8173 2.64038 70.0252 2.7724 69.6291 3.30049L68.837 4.48869C68.4409 5.14881 68.5729 5.94094 69.101 6.33701C69.7611 6.73308 70.5533 6.60106 70.9493 5.94095Z" fill="#E4F3DD"/>
<path d="M66.4607 7.78924L65.8006 8.84542C65.4045 9.50554 65.5366 10.2977 66.0647 10.6937C66.7248 11.0898 67.5169 10.9578 67.913 10.4297L68.7051 9.37352C69.1012 8.7134 68.9692 7.92127 68.4411 7.5252C67.7809 6.99711 66.9888 7.12913 66.4607 7.78924Z" fill="#E4F3DD"/>
<path d="M63.5561 12.0141L62.764 13.0703C62.3679 13.7304 62.4999 14.5225 63.028 14.9186C63.6881 15.3147 64.4803 15.1827 64.8763 14.6546L65.6685 13.5984C66.0645 12.9383 65.9325 12.1461 65.4044 11.7501C64.7443 11.354 63.9522 11.486 63.5561 12.0141Z" fill="#E4F3DD"/>
<path d="M37.0195 52.2811C37.0195 53.0733 37.5476 53.6014 38.3398 53.6014C39.1319 53.6014 39.66 53.0733 39.66 52.2811V51.621C39.66 50.8289 39.1319 50.3008 38.3398 50.3008C37.5476 50.3008 37.0195 50.8289 37.0195 51.621V52.2811Z" fill="#E4F3DD"/>
<path d="M38.3398 43.6997C39.1319 43.6997 39.66 43.1716 39.66 42.3795V41.0592C39.66 40.2671 39.1319 39.739 38.3398 39.739C37.5476 39.739 37.0195 40.2671 37.0195 41.0592V42.3795C37.0195 43.0396 37.5476 43.6997 38.3398 43.6997Z" fill="#E4F3DD"/>
<path d="M37.0195 47.6604C37.0195 48.4525 37.5476 48.9806 38.3398 48.9806C39.1319 48.9806 39.66 48.4525 39.66 47.6604V46.3401C39.66 45.548 39.1319 45.0199 38.3398 45.0199C37.5476 45.0199 37.0195 45.548 37.0195 46.3401V47.6604Z" fill="#E4F3DD"/>
<path d="M28.4381 43.1714C28.042 42.5113 27.2499 42.3793 26.5898 42.9074C25.9297 43.3035 25.7976 44.0956 26.3257 44.7557L27.1179 45.8119C27.5139 46.34 28.3061 46.604 28.9662 46.0759C29.6263 45.6799 29.7583 44.8877 29.2302 44.2276L28.4381 43.1714Z" fill="#E4F3DD"/>
<path d="M33.0588 54.3933C33.4549 55.0534 34.247 55.1855 34.9072 54.6574C35.5673 54.2613 35.6993 53.4692 35.1712 52.809L34.5111 51.7529C34.115 51.0928 33.3229 50.9607 32.6628 51.4888C32.0027 51.8849 31.8706 52.677 32.3987 53.3371L33.0588 54.3933Z" fill="#E4F3DD"/>
<path d="M31.4745 47.5283C31.0784 46.8681 30.2863 46.7361 29.6262 47.2642C28.966 47.6603 28.834 48.4524 29.3621 49.1125L30.1542 50.1687C30.5503 50.6968 31.3425 50.9608 32.0026 50.4328C32.6627 50.0367 32.7947 49.2446 32.2666 48.5844L31.4745 47.5283Z" fill="#E4F3DD"/>
<path d="M49.5618 45.68L50.3539 44.6238C50.75 43.9637 50.618 43.1715 50.0899 42.7755C49.4297 42.3794 48.6376 42.5114 48.2415 43.0395L47.4494 44.0957C47.0533 44.7558 47.1854 45.5479 47.7135 45.944C48.2415 46.4721 49.0337 46.3401 49.5618 45.68Z" fill="#E4F3DD"/>
<path d="M45.073 47.5283L44.2808 48.5844C43.8848 49.2446 44.0168 50.0367 44.5449 50.4328C45.205 50.8288 45.9971 50.6968 46.3932 50.1687L47.1853 49.1125C47.5814 48.4524 47.4494 47.6603 46.9213 47.2642C46.2612 46.7361 45.469 46.8681 45.073 47.5283Z" fill="#E4F3DD"/>
<path d="M42.0363 51.7531L41.2442 52.8093C40.8481 53.4694 40.9802 54.2616 41.5083 54.6576C42.1684 55.0537 42.9605 54.9217 43.3566 54.3936L44.1487 53.3374C44.5448 52.6773 44.4128 51.8851 43.8847 51.4891C43.2245 51.093 42.4324 51.225 42.0363 51.7531Z" fill="#E4F3DD"/>
<path d="M16.292 68.6519C15.3678 68.6519 14.3116 69.048 13.6515 69.7081L1.3734 80.798C-0.210869 82.2502 -0.474915 84.7587 0.845313 86.3429C1.63745 87.2671 2.69363 87.7952 3.88184 87.7952C4.806 87.7952 5.73016 87.3991 6.52229 86.739L15.8959 78.2895C17.0841 77.1013 18.8004 76.5732 20.3847 76.5732H34.2471H42.0364H65.4044C76.7584 76.5732 86 67.3317 86 55.9777V50.6968C86 39.4749 77.0224 30.3653 65.8005 30.1012L66.4606 26.5366H71.2134L71.6095 25.8765C72.5337 24.1602 72.4016 22.1799 71.3455 20.4636C70.2893 18.7473 68.573 17.8231 66.5926 17.8231H52.5982C50.6179 17.8231 48.9016 18.7473 47.8454 20.4636C46.7892 22.1799 46.7892 24.1602 47.5814 25.8765L47.9774 26.5366H52.7303L53.3904 30.1012H22.233L22.8931 26.5366H27.6459L28.042 25.8765C28.4381 25.0844 28.7021 24.2922 28.7021 23.3681C28.7021 20.3316 26.1937 17.8231 23.1572 17.8231H8.8987C6.91836 17.8231 5.20206 18.7473 4.14588 20.4636C3.0897 22.1799 3.0897 24.1602 3.88184 25.8765L4.2779 26.5366H9.03072L10.747 35.6462C11.1431 38.2866 13.3875 40.135 16.0279 40.135C17.7442 40.135 19.1965 39.3428 20.2527 38.0226H63.1601H63.2921C67.2528 38.0226 70.9494 39.6069 73.8539 42.5114C76.7584 45.4159 78.3427 49.2445 78.3427 53.3372C78.3427 57.2979 76.7584 60.9946 73.8539 63.8991C70.8174 66.9356 66.7247 68.6519 62.4999 68.6519H44.8089L45.205 66.4075H49.9578L50.3538 65.6154C51.278 63.8991 51.146 61.9187 50.0898 60.2024C49.0336 58.4861 47.3173 57.562 45.337 57.562H31.2105C29.2302 57.562 27.5139 58.4861 26.4577 60.2024C25.4015 61.9187 25.4015 63.8991 26.1937 65.6154L26.5898 66.2755H31.3426L31.7386 68.5199H16.292V68.6519ZM28.7021 61.6547C29.2302 60.7305 30.1544 60.3344 31.2105 60.3344H45.337C46.3932 60.3344 47.3173 60.8625 47.8454 61.6547C48.2415 62.3148 48.3735 63.1069 48.2415 63.767H28.4381C28.174 62.9749 28.306 62.1828 28.7021 61.6547ZM49.8258 24.0282C49.6937 23.3681 49.8258 22.5759 50.2218 21.9158C50.7499 20.9917 51.6741 20.5956 52.7303 20.5956H66.8567C67.9129 20.5956 68.837 21.1237 69.3651 21.9158C69.7612 22.5759 69.8932 23.3681 69.7612 24.0282H67.1207H52.3342H49.8258ZM55.5027 26.6686H63.8202L63.1601 30.2333H56.0308L55.5027 26.6686ZM5.9942 24.0282C5.86218 23.3681 5.9942 22.5759 6.39027 21.9158C6.91836 20.9917 7.84252 20.5956 8.8987 20.5956H23.0251C24.8735 20.5956 25.9296 22.0478 25.9296 23.5001C25.9296 23.6321 25.9296 23.8962 25.9296 24.0282H23.2892H8.63466H5.9942ZM13.3875 35.1181L11.8032 26.5366H20.1206L19.4605 30.1012L18.5364 35.2501C18.5364 35.5142 18.4043 35.7782 18.2723 36.1743C17.7442 37.0984 16.9521 37.6265 15.8959 37.6265C14.7077 37.4945 13.5195 36.5704 13.3875 35.1181ZM62.4999 71.2923C67.3848 71.2923 72.1376 69.312 75.7022 65.7474C79.1348 62.3148 80.9831 57.958 80.9831 53.3372C80.9831 48.5844 79.1348 44.0956 75.7022 40.6631C72.4016 37.3625 68.0449 35.5142 63.4241 35.3821C63.2921 35.3821 63.1601 35.3821 63.028 35.3821H21.3088L21.8369 32.7417H65.6685C75.5702 32.7417 83.6236 40.7951 83.6236 50.6968V55.9777C83.6236 65.8794 75.5702 73.9328 65.6685 73.9328H42.1684H34.3791H20.5167C18.1403 73.9328 15.8959 74.857 14.1796 76.3092L4.93802 84.6266C4.40993 85.1547 3.48577 85.0227 2.95768 84.4946C2.56161 83.9665 2.69363 83.0424 3.22172 82.5143L15.4998 71.4244C15.7639 71.1603 16.0279 71.0283 16.424 71.0283H32.3988H44.4128H62.4999V71.2923ZM34.1151 66.4075H42.4325L42.0364 68.6519H34.5111L34.1151 66.4075Z" fill="#E4F3DD"/>
</svg>
