<svg width="35" height="40" viewBox="0 0 35 40" fill="none" xmlns="http://www.w3.org/2000/svg">
<path d="M26.3275 17.6615L25.9406 17.9153L33.2726 28.8065L18.2433 33.5551L4.14876 15.8915L19.1013 11.8668L18.9792 11.4243L3.34971 15.6312L7.05931 20.2801L1 25.6132L21.5536 39L29.2945 30.5449L34 29.0581L26.3275 17.6615ZM21.4765 38.4004L1.76003 25.5587L7.34731 20.6411L18.0778 34.0888L28.4134 30.8233L21.4765 38.4004Z" fill="white" stroke="white"/>
<path d="M19.0712 17.1724C17.8655 16.1835 16.71 15.9434 16.6613 15.9336L16.5872 16.2931C16.5984 16.2954 17.7133 16.53 18.8481 17.4664C19.2401 17.7899 19.5872 18.1603 19.8899 18.5715L19.8742 18.638L19.9494 18.6553C20.7627 19.798 21.235 21.2527 21.3281 22.9468C21.2815 23.1458 20.8868 24.678 19.6905 25.2139C18.8912 25.572 17.8903 25.4192 16.7163 24.7594L16.5325 25.0783C17.3522 25.5389 18.1028 25.7698 18.7764 25.7698C19.1583 25.7698 19.5153 25.6956 19.8462 25.5471C21.2932 24.8973 21.6814 23.0757 21.6972 22.9984L21.7019 22.9757L21.7006 22.9525C21.6021 21.083 21.0786 19.7094 20.4369 18.7123L25.2395 14.7867L32.5765 3.18883L32.1022 2.14874L31.3531 2.34222L31.165 1.63235L30.2061 1.87997L29.9729 1L28.6184 1.24601L21.2961 12.6666L21.2755 12.6991L19.9993 18.1078C19.6908 17.7275 19.372 17.419 19.0712 17.1724ZM28.7574 1.77783L29.641 1.55977L29.8742 2.43974L30.8331 2.1921L31.0212 2.90197L31.7703 2.70849L31.9988 3.23634L25.0278 14.2557L24.8535 13.5981L24.1044 13.7916L23.9163 13.0817L22.9574 13.3294L22.7242 12.4494L21.8367 12.6786L28.7574 1.77783ZM21.633 13.2053L22.3923 13.0092L22.6255 13.8891L23.5844 13.6415L23.7725 14.3514L24.5216 14.1579L24.6472 14.632L24.7251 14.6119L20.4831 18.079L21.633 13.2053Z" fill="white" stroke="white"/>
</svg>
