<svg width="48" height="47" viewBox="0 0 48 47" fill="none" xmlns="http://www.w3.org/2000/svg">
<path d="M14.1899 10.6038C14.1206 10.6038 14.0529 10.6023 13.9877 10.5994C13.0566 10.5553 12.3297 10.4861 11.4516 9.99062C11.2125 9.85562 11.0154 9.70183 10.8248 9.55348C10.6626 9.42689 10.5089 9.30721 10.332 9.19941C10.0277 9.01397 9.76329 8.96848 9.39781 8.90518L9.17489 8.86562C8.70377 8.77809 8.36054 8.69947 7.90509 8.41315C7.81663 8.35727 7.70542 8.29991 7.58814 8.23859C7.30304 8.09024 6.97953 7.92161 6.78137 7.69908C6.149 6.98848 6.83546 6.23782 7.2899 5.74134C7.4006 5.62018 7.50676 5.50496 7.58915 5.39765C7.85049 5.05793 8.07746 4.68062 8.31757 4.28057C8.87918 3.34595 9.45999 2.38018 10.5114 1.90447C11.2676 1.56227 12.129 1.46535 12.8761 1.63744C13.6399 1.81397 14.886 2.3604 15.5669 2.93601C16.0168 3.31678 16.2043 3.86518 16.3853 4.39628C16.4904 4.70436 16.59 4.99562 16.7351 5.23842C16.8635 5.45403 17.1253 5.6182 17.4033 5.79177C17.8057 6.04348 18.2617 6.32881 18.3587 6.85101C18.4634 7.41524 18.0392 7.86573 17.6985 8.22721C17.6257 8.30485 17.5545 8.38002 17.4908 8.4537C17.3219 8.65051 17.1925 8.86018 17.0561 9.08271C16.9383 9.27359 16.817 9.4709 16.6658 9.66524C16.1214 10.3635 15.0361 10.6038 14.1899 10.6038ZM12.1174 2.04837C11.6523 2.04837 11.1681 2.15222 10.7237 2.35348C9.81586 2.76441 9.29975 3.62238 8.75381 4.53128C8.51674 4.9254 8.27157 5.33337 7.99355 5.69535C7.90357 5.81254 7.78832 5.93914 7.667 6.07166C7.15746 6.62848 6.84709 7.02013 7.16302 7.37518C7.30001 7.52897 7.57955 7.67436 7.82623 7.80293C7.95715 7.87117 8.07999 7.93595 8.17856 7.99776C8.54555 8.2282 8.80487 8.29447 9.26992 8.38051L9.48627 8.41908C9.87601 8.48634 10.2127 8.54419 10.6004 8.78057C10.8016 8.9032 10.9739 9.03771 11.1403 9.16727C11.3248 9.31068 11.4981 9.44617 11.7049 9.56287C12.4859 10.004 13.1258 10.0643 14.012 10.1063C14.8162 10.1449 15.8237 9.93029 16.2634 9.36705C16.3979 9.19397 16.5071 9.01694 16.6228 8.82903C16.7634 8.60007 16.9095 8.3637 17.1036 8.13721C17.1718 8.0576 17.2481 7.9765 17.326 7.89342C17.6182 7.58337 17.9199 7.26243 17.8603 6.94051C17.8032 6.63095 17.4761 6.42623 17.1304 6.20963C16.8144 6.01183 16.4874 5.8076 16.2978 5.48864C16.127 5.20134 16.0142 4.872 15.9055 4.55403C15.7382 4.06496 15.5805 3.60309 15.2358 3.31134C14.6327 2.80101 13.4681 2.28326 12.7599 2.11958C12.5541 2.07161 12.3378 2.04837 12.1174 2.04837ZM13.5504 10.0302C13.3902 10.0302 13.2269 10.0134 13.0621 9.97628C12.3221 9.80864 11.3465 9.37546 10.8365 8.78502C10.4715 8.36221 10.4214 7.8865 10.3729 7.42562C10.3567 7.27331 10.3411 7.11903 10.3117 6.96623C10.2177 6.46875 9.98469 6.13991 9.68948 5.72304L9.5894 5.58112C9.38214 5.2854 9.31137 5.00304 9.3786 4.74243C9.48274 4.33941 9.89016 4.08919 10.2334 3.91661C10.3588 3.85381 10.4932 3.78062 10.6348 3.70348C11.1473 3.42557 11.7276 3.11007 12.3246 2.99535C12.7447 2.91524 13.1243 2.94787 13.4514 3.09474C13.5894 3.15656 13.695 3.2515 13.7885 3.33507C13.8821 3.41864 13.9624 3.49084 14.0539 3.51557C14.2035 3.55513 14.337 3.58134 14.4583 3.60557C14.89 3.69112 15.2621 3.7648 15.6462 4.29738C16.1189 4.9526 16.3731 5.66963 16.3817 6.37035L16.3868 6.62304C16.4065 7.4909 16.4308 8.5709 15.6902 9.16628C15.3399 9.44914 14.5008 10.0302 13.5504 10.0302ZM12.7578 3.44733C12.6527 3.44733 12.541 3.4587 12.4222 3.48145C11.9041 3.58084 11.3601 3.87606 10.8804 4.13617C10.7333 4.21579 10.5943 4.29145 10.4644 4.35672C10.0999 4.54018 9.91038 4.70139 9.86843 4.86408C9.8381 4.98079 9.8846 5.12815 10.0059 5.30172L10.1045 5.44167C10.4209 5.8887 10.6944 6.27441 10.8081 6.87623C10.8395 7.04188 10.8577 7.20903 10.8749 7.37469C10.9194 7.79601 10.9578 8.15947 11.2216 8.46557C11.6351 8.94425 12.5172 9.34529 13.1754 9.49414C13.8158 9.63952 14.6357 9.37397 15.3687 8.78502C15.9192 8.34194 15.898 7.39546 15.8808 6.63491L15.8757 6.37727C15.8681 5.77694 15.6457 5.15683 15.2327 4.5832C14.9648 4.21134 14.7616 4.17128 14.3577 4.09068C14.2268 4.06496 14.0832 4.03628 13.9215 3.99375C13.7107 3.93787 13.5641 3.80634 13.4463 3.70002C13.374 3.63573 13.3063 3.57441 13.2406 3.54524C13.0955 3.47996 12.9353 3.44733 12.7578 3.44733Z" fill="white" stroke="white" stroke-width="0.4"/>
<path d="M9.78295 34.5087C9.40434 34.5087 9.09043 34.3277 8.89581 33.9974C8.53286 33.3802 8.85183 32.6884 9.005 32.3556C9.09599 32.1588 9.14148 31.9521 9.1895 31.7331C9.23095 31.5446 9.27392 31.3503 9.34823 31.1535C9.52869 30.6758 10.0291 30.1338 10.5998 30.07C10.9678 30.0329 11.2908 30.1946 11.5188 30.5349C12.0562 31.3365 11.8181 32.7498 11.4395 33.4628C11.1771 33.9568 10.4593 34.4949 9.80823 34.5082C9.80014 34.5087 9.79155 34.5087 9.78295 34.5087ZM10.706 30.5581C10.6898 30.5581 10.6736 30.5591 10.657 30.5611C10.3481 30.5952 9.96594 30.9448 9.82238 31.3251C9.76071 31.4883 9.7233 31.6574 9.68388 31.8364C9.63232 32.0713 9.57924 32.3136 9.46601 32.5589C9.24612 33.0351 9.13996 33.4203 9.33407 33.7506C9.44225 33.9346 9.58985 34.034 9.79761 34.0132C10.2419 34.0038 10.8041 33.587 10.9911 33.2344C11.3111 32.6321 11.5062 31.4166 11.0962 30.8059C10.9845 30.6397 10.8566 30.5581 10.706 30.5581Z" fill="white" stroke="white" stroke-width="0.4"/>
<path d="M33.1611 22.6192C33.154 22.6192 33.1475 22.6192 33.1404 22.6192C32.6713 22.6123 32.2224 22.367 31.8756 21.9279C31.3292 21.2356 30.9946 20.4147 30.6705 19.6211C30.1878 18.4372 29.7318 17.3186 28.6314 16.6392C28.4398 16.521 28.2381 16.4102 28.0339 16.298C27.4086 15.9543 26.7611 15.5987 26.3147 15.0019C25.9624 14.5311 25.8572 14.1048 26.0018 13.735C26.1701 13.3052 26.6504 13.0056 27.4288 12.8448C27.9697 12.7331 28.5131 12.6362 29.0494 12.5397C29.3563 12.4848 29.6611 12.4305 29.9618 12.3736C30.6276 12.2485 31.1518 11.9083 31.7068 11.5483C31.8918 11.4281 32.0804 11.3059 32.279 11.1878C33.8132 10.2729 34.3334 8.42743 34.7923 6.79902L34.8929 6.43853C35.0977 5.68391 35.4323 4.42144 36.6763 4.60836C37.3587 4.71172 37.5645 5.20375 37.7293 5.59836C38.0159 6.28424 38.0786 7.0715 37.9148 7.93836C37.7298 8.92441 37.5114 9.9604 37.0635 10.8307C36.9538 11.0439 36.8406 11.2525 36.7274 11.4602C36.4044 12.0526 36.1001 12.6119 35.9034 13.2424C35.3393 15.0474 35.0547 17.106 35.1229 18.8912C35.1669 20.0671 35.1452 21.1105 34.4218 21.9724C34.071 22.3898 33.6236 22.6192 33.1611 22.6192ZM36.4494 5.08457C35.8357 5.08457 35.6082 5.7299 35.3813 6.56512L35.2802 6.92957C34.7959 8.64699 34.2474 10.5929 32.5419 11.6096C32.3493 11.7243 32.1663 11.8435 31.9864 11.9597C31.3878 12.3479 30.8227 12.7148 30.0579 12.8587C29.7556 12.9156 29.4498 12.9705 29.1409 13.0253C28.6091 13.1203 28.0703 13.2172 27.534 13.3275C26.9506 13.4477 26.5745 13.6548 26.4744 13.9105C26.3951 14.1137 26.4785 14.3823 26.7226 14.7086C27.1048 15.2195 27.7028 15.5478 28.2816 15.8658C28.4934 15.982 28.7027 16.0972 28.9013 16.2198C30.1408 16.9853 30.6488 18.2315 31.1407 19.4371C31.4515 20.1991 31.773 20.9869 32.276 21.6248C32.5303 21.9467 32.832 22.1193 33.1485 22.1242C33.153 22.1242 33.1576 22.1242 33.1611 22.1242C33.47 22.1242 33.7788 21.9591 34.0321 21.6574C34.6442 20.928 34.6604 20.0196 34.6185 18.908C34.5487 17.0704 34.8409 14.9519 35.4207 13.0966C35.632 12.4201 35.9626 11.8133 36.282 11.2263C36.3938 11.0221 36.505 10.8169 36.6131 10.6072C37.0302 9.79523 37.2394 8.7988 37.4184 7.84738C37.5645 7.07496 37.5119 6.38117 37.2617 5.7843C37.0797 5.34765 36.9614 5.15084 36.5985 5.09545C36.5464 5.08853 36.4969 5.08457 36.4494 5.08457ZM32.4105 17.9412C31.4394 17.9412 30.3015 17.0956 30.0372 16.295C29.8067 15.5958 30.0559 14.7774 30.1742 14.4579C30.5528 13.4353 31.5127 12.7811 32.3599 12.204L32.7112 11.9602C33.1854 11.62 33.9022 11.1052 34.4471 11.3712C34.6933 11.4914 34.8378 11.7011 34.8651 11.9775C34.9096 12.4369 34.622 13.0006 34.391 13.4531C34.3056 13.6202 34.2252 13.778 34.1969 13.867C34.0093 14.4614 33.8961 15.2328 33.8344 15.7753C33.8248 15.8574 33.8173 15.9444 33.8092 16.0354C33.7475 16.7287 33.6631 17.6786 32.7648 17.9002C32.6501 17.9279 32.5313 17.9412 32.4105 17.9412ZM30.5179 16.1432C30.7403 16.8157 31.8959 17.6015 32.641 17.4205C33.15 17.2949 33.2405 16.7247 33.3052 15.9924C33.3138 15.8974 33.3214 15.8059 33.3315 15.7204C33.3957 15.1567 33.514 14.3521 33.7136 13.7206C33.7536 13.593 33.8395 13.4259 33.9381 13.232C34.1296 12.8567 34.392 12.3424 34.3612 12.0245C34.3505 11.9186 34.3101 11.8573 34.2216 11.8138C33.9522 11.6862 33.2925 12.157 33.01 12.3597L32.6485 12.6105C31.8246 13.1712 30.9733 13.7518 30.6493 14.6266C30.44 15.1918 30.391 15.759 30.5179 16.1432Z" fill="white" stroke="white" stroke-width="0.4"/>
<path d="M13.42 8.64663C13.0044 8.64663 12.5874 8.44389 12.2144 8.04828C11.8403 7.65169 11.4607 7.21999 11.2853 6.69482C11.1533 6.30021 11.1902 5.82993 11.3813 5.46795C11.5375 5.17273 11.7816 4.96751 12.0875 4.87405C12.4878 4.75141 12.8129 4.9146 13.0732 5.04515C13.2395 5.12823 13.3962 5.20735 13.5549 5.2113C13.6419 5.21378 13.7258 5.2113 13.8041 5.20883C14.1924 5.19548 14.7292 5.17966 14.7696 6.05592C14.7777 6.22455 14.8146 6.40059 14.8505 6.57119C14.8733 6.68097 14.896 6.78927 14.9122 6.89559C15.0047 7.50927 14.7029 8.10218 14.1256 8.44389C13.8966 8.57988 13.6585 8.64663 13.42 8.64663ZM12.3741 5.32603C12.3296 5.32603 12.2846 5.33246 12.2376 5.3468C12.0612 5.4002 11.9242 5.5179 11.8302 5.69542C11.7008 5.9402 11.6755 6.27251 11.7655 6.54202C11.9095 6.97273 12.2497 7.35696 12.5859 7.714C12.8796 8.02603 13.3401 8.33213 13.8638 8.02207C14.2641 7.78521 14.4739 7.38218 14.4117 6.96878C14.3971 6.87136 14.3764 6.77246 14.3551 6.67158C14.3157 6.48218 14.2742 6.28636 14.2646 6.07916C14.2469 5.68999 14.2146 5.69295 13.8203 5.70383C13.7324 5.7068 13.6393 5.70927 13.5403 5.7068C13.2673 5.69889 13.0418 5.58564 12.8427 5.48575C12.6541 5.39081 12.5151 5.32603 12.3741 5.32603Z" fill="white" stroke="white" stroke-width="0.4"/>
<path d="M7.78927 36.1927C7.35556 36.1927 7.07147 36.025 6.8991 35.8653C6.2465 35.261 6.35316 34.0791 6.40169 33.731C6.51745 32.8992 7.04367 32.5689 7.50771 32.2781C7.84892 32.064 8.17143 31.8618 8.35037 31.4672C8.56976 30.983 8.49949 30.2531 8.43782 29.6088C8.408 29.2983 8.3802 29.0045 8.3807 28.738V28.5995C8.38323 26.9454 8.38879 23.0714 10.8152 22.9379C11.4086 22.9018 11.7529 23.1441 11.9364 23.3503C12.4671 23.9472 12.3367 24.9412 12.2558 25.3407C12.1947 25.6424 12.0925 25.9519 11.9935 26.2516C11.8095 26.8084 11.6189 27.384 11.6942 27.9127C11.7402 28.237 11.9005 28.5496 12.0703 28.8804C12.228 29.1885 12.3918 29.5074 12.4722 29.859C12.6617 30.6839 12.687 31.5408 12.6875 32.1956C12.689 33.6366 12.2235 35.3609 10.9051 35.4806C10.6842 35.4994 10.4755 35.4811 10.2738 35.4628C9.99272 35.438 9.72633 35.4128 9.47004 35.5048C9.29514 35.5671 9.13642 35.6695 8.96809 35.7783C8.72595 35.9345 8.47472 36.0967 8.14868 36.1585C8.01877 36.1818 7.89896 36.1927 7.78927 36.1927ZM10.9274 23.429C10.9001 23.429 10.8723 23.4295 10.844 23.431C8.89378 23.5383 8.88822 27.0853 8.8862 28.6V28.7385C8.88569 28.9818 8.91248 29.2636 8.94079 29.5618C9.00802 30.2665 9.08435 31.0646 8.81189 31.6664C8.57178 32.197 8.15121 32.4606 7.78017 32.6935C7.33685 32.9714 6.98655 33.1915 6.90263 33.7968C6.82378 34.365 6.86624 35.1537 7.24637 35.5058C7.43795 35.6828 7.70132 35.7382 8.05314 35.6709C8.28061 35.6279 8.47927 35.4999 8.69006 35.3639C8.87507 35.2447 9.06666 35.1211 9.29666 35.039C9.6596 34.9094 9.99626 34.9396 10.3213 34.9692C10.5078 34.9856 10.6842 35.0024 10.8591 34.9866C11.9065 34.8921 12.184 33.187 12.1825 32.1951C12.182 31.5661 12.1578 30.7437 11.9793 29.9658C11.9121 29.6736 11.7695 29.3957 11.6184 29.101C11.4379 28.7489 11.2514 28.3854 11.1938 27.9794C11.1023 27.338 11.3111 26.7075 11.5127 26.0973C11.6118 25.7986 11.7048 25.5163 11.7599 25.2433C11.8666 24.7157 11.8686 24.0258 11.5552 23.6733C11.4086 23.5101 11.2029 23.429 10.9274 23.429Z" fill="white" stroke="white" stroke-width="0.4"/>
<path d="M21.7354 23.2047C21.4468 23.2047 21.2481 23.0925 21.1151 22.9624C21.057 22.9055 21.0044 22.8388 20.96 22.7636C20.6941 22.3191 20.9812 21.8181 21.191 21.4522C21.2552 21.3399 21.3163 21.2351 21.3542 21.1416C21.47 20.8573 21.4402 20.5102 21.4119 20.1749C21.3628 19.5953 21.3067 18.9376 22.0367 18.5934C22.5326 18.3591 23.0977 18.3773 23.587 18.6439C24.0733 18.9084 24.3978 19.3792 24.455 19.9024C24.5844 21.0942 23.6724 22.3181 22.7484 22.865C22.3258 23.1142 21.9942 23.2047 21.7354 23.2047ZM21.472 22.6128C21.699 22.8338 22.1489 22.642 22.4866 22.4417C23.2883 21.9675 24.0561 20.9072 23.9525 19.9548C23.9126 19.5914 23.6841 19.2625 23.3413 19.0756C22.9971 18.8887 22.6023 18.8748 22.2566 19.0385C21.8582 19.2264 21.8658 19.5434 21.9159 20.1338C21.9472 20.5077 21.9836 20.9315 21.8244 21.3241C21.7794 21.4354 21.7081 21.561 21.6323 21.694C21.4655 21.9843 21.2769 22.3141 21.3967 22.5139C21.419 22.553 21.4437 22.5851 21.472 22.6128Z" fill="white" stroke="white" stroke-width="0.4"/>
<path d="M19.5189 25.2273C19.4936 25.2273 19.4688 25.2263 19.4451 25.2248C19.1266 25.2016 18.9118 25.0256 18.8567 24.7417C18.6909 23.8897 18.9997 23.143 19.298 22.4205C19.5234 21.8746 19.7367 21.3593 19.7514 20.8104C19.7625 20.397 19.5214 19.8961 19.2884 19.4119C18.9992 18.8111 18.7 18.19 18.8344 17.6367C18.9689 17.0828 19.348 16.711 19.9308 16.5621C21.1976 16.2357 23.3207 17.0754 24.5637 18.3928C25.4559 19.3378 25.7612 20.3782 25.4241 21.3222C25.1031 22.2222 21.0166 25.2273 19.5189 25.2273ZM19.3263 17.7514C19.2328 18.1361 19.4941 18.6781 19.7458 19.2018C20.0041 19.7383 20.2715 20.2931 20.2569 20.8238C20.2397 21.4617 19.9991 22.0432 19.7666 22.6059C19.483 23.2923 19.2151 23.9401 19.3531 24.6492C19.3611 24.6908 19.3672 24.7229 19.4825 24.7313C20.6249 24.8322 24.6941 21.8672 24.9474 21.159C25.3149 20.129 24.6319 19.1939 24.1927 18.728C23.0801 17.5496 21.1471 16.7599 20.0592 17.0403C19.6574 17.1436 19.4178 17.3761 19.3263 17.7514Z" fill="white" stroke="white" stroke-width="0.4"/>
<path d="M11.6235 44.1595C10.4441 44.1595 9.25674 43.7569 8.52327 43.4494C7.395 42.9776 6.43911 42.315 5.6005 41.4244C5.47261 41.2889 5.34067 41.1539 5.20874 41.0189C4.53542 40.331 3.83986 39.6199 3.53505 38.6596C3.4481 38.3851 3.35155 38.1166 3.25551 37.8501C2.99164 37.1143 2.71867 36.3537 2.66661 35.5106C2.62819 34.8865 2.72626 34.2743 2.82129 33.6824C2.91177 33.1177 2.9972 32.5846 2.97294 32.0466C2.92694 31.0259 3.15441 30.428 3.52949 29.5374L3.73421 29.0563C4.00718 28.4194 4.28925 27.7612 4.497 27.099C4.94437 25.6778 5.32298 24.2799 5.04597 22.7968C4.8003 21.4829 4.13861 20.131 3.07859 18.779C2.49828 18.0387 1.80423 17.4542 1.14001 16.9325L1.25274 16.7006L1.41248 16.5087L1.44382 16.5354C2.14645 17.0883 2.86779 17.6965 3.48096 18.4783C4.59001 19.8931 5.28406 21.3158 5.54439 22.7078C5.84212 24.3006 5.44784 25.7629 4.98127 27.2449C4.76593 27.9298 4.47881 28.5994 4.20129 29.2477L3.99758 29.7258C3.63867 30.5789 3.43698 31.106 3.47843 32.0243C3.50472 32.6123 3.4112 33.1953 3.32072 33.759C3.22568 34.351 3.13621 34.9102 3.17109 35.4804C3.21861 36.2548 3.46832 36.9501 3.7332 37.6859C3.83076 37.9584 3.92933 38.2323 4.0183 38.5127C4.28773 39.3628 4.94184 40.0308 5.57421 40.6772C5.70867 40.8146 5.84263 40.9516 5.97254 41.0896C6.76162 41.9278 7.66089 42.5508 8.72243 42.9949C9.51808 43.3287 11.5249 44.0368 12.9686 43.4157C14.2364 42.8698 14.8061 41.2834 14.9168 39.9804C15.0356 38.581 14.7762 37.2765 14.5017 35.8953C14.3521 35.1407 14.1969 34.3604 14.1115 33.5691C13.9892 32.4422 14.0625 31.1238 14.3183 29.8564C14.4285 29.309 14.5836 28.7344 14.8061 28.05C14.8814 27.818 14.981 27.598 15.0775 27.3844C15.1872 27.143 15.2903 26.9141 15.3581 26.6747C15.4162 26.4695 15.4374 26.2752 15.4602 26.0695C15.49 25.7975 15.5208 25.5161 15.6401 25.209L15.7377 24.9593C16.1749 23.8427 16.6274 22.688 16.6825 21.479C16.7244 20.5543 16.7396 19.5781 16.4282 18.6979C16.1193 17.8256 15.5112 17.4319 14.7403 16.9345L14.4381 16.7372C14.0529 16.4825 13.6242 16.2634 13.2092 16.0513L13.0186 15.9534C12.6284 15.7526 12.2553 15.5236 11.8949 15.3021C11.6225 15.135 11.3495 14.9673 11.0674 14.8106C10.9117 14.724 10.752 14.6469 10.5933 14.5697C10.3992 14.4758 10.2056 14.3818 10.02 14.2735C8.8205 13.5748 7.81861 12.751 6.75707 11.8786L6.59481 11.7451C6.25208 11.4638 5.92654 11.1616 5.61162 10.8694C5.40133 10.674 5.19054 10.4782 4.97419 10.2878C4.83265 10.1632 4.68606 10.047 4.54098 9.93079C4.14518 9.61579 3.73623 9.28991 3.4385 8.81865C2.55793 7.42464 3.39705 6.18343 4.1376 5.08859C4.38782 4.7187 4.64612 4.33645 4.83164 3.9631C5.3614 2.89447 6.15503 2.01079 6.86171 1.28733C6.94461 1.20277 7.03004 1.12711 7.11799 1.0564L7.43949 1.43766C7.3667 1.49651 7.29542 1.55881 7.22718 1.62854C6.5483 2.32381 5.78652 3.1709 5.28659 4.17821C5.08692 4.58074 4.8185 4.97733 4.55968 5.36057C3.83885 6.42623 3.15845 7.43255 3.86867 8.55755C4.12193 8.9581 4.48032 9.24392 4.86045 9.54607C5.0121 9.66722 5.16527 9.78887 5.31287 9.91892C5.53276 10.1123 5.74659 10.3111 5.96041 10.5094C6.26977 10.7972 6.58975 11.0939 6.92034 11.3654L7.08311 11.4989C8.12797 12.3578 9.1152 13.1693 10.2794 13.8473C10.4538 13.9486 10.6357 14.0367 10.8182 14.1252C10.9855 14.2063 11.1534 14.2879 11.3176 14.3794C11.6058 14.5396 11.8853 14.7107 12.1638 14.8823C12.5162 15.0989 12.8806 15.3224 13.2542 15.5147L13.4438 15.6117C13.8709 15.8297 14.3127 16.0557 14.7211 16.3262L15.0189 16.5206C15.8014 17.0265 16.5409 17.5041 16.9059 18.5352C17.2466 19.498 17.2319 20.5276 17.1874 21.5002C17.1288 22.7889 16.6612 23.9817 16.2093 25.1354L16.1123 25.3841C16.0157 25.6318 15.9899 25.8692 15.9621 26.1214C15.9384 26.338 15.9141 26.562 15.8448 26.8063C15.767 27.0802 15.6512 27.3359 15.5395 27.5837C15.4445 27.7938 15.3545 27.9921 15.2878 28.1983C15.0684 28.8743 14.9223 29.4148 14.8141 29.9508C14.568 31.1708 14.4967 32.4367 14.614 33.5157C14.6974 34.2862 14.85 35.0551 14.9981 35.7994C15.2671 37.1528 15.5451 38.5523 15.4202 40.0195C15.2979 41.4644 14.6423 43.2343 13.1718 43.8672C12.6855 44.0774 12.1552 44.1595 11.6235 44.1595Z" fill="white" stroke="white" stroke-width="0.4"/>
<path d="M12.2967 41.45C11.7649 41.45 11.221 41.271 10.8146 41.0534C10.2778 40.7666 9.9856 40.2958 9.70353 39.8404C9.47302 39.469 9.25566 39.1179 8.91951 38.8909C8.57324 38.6585 8.23254 38.755 7.7043 38.9315C7.26098 39.0803 6.75852 39.2485 6.21461 39.0823C5.32291 38.8108 4.96452 37.8599 4.67689 37.0959C4.63645 36.9891 4.59753 36.8852 4.55861 36.7868C4.15573 35.7756 3.83726 34.9769 3.88579 33.754C3.92926 32.6523 4.14107 31.686 4.53434 30.7993C4.87555 30.0294 5.40228 29.6852 5.91131 29.3524C6.17164 29.1823 6.44056 29.0068 6.69786 28.7689C7.22105 28.2848 7.49856 27.4258 7.34337 26.7716C7.07294 25.6313 7.02188 24.7792 7.16595 23.8298L7.20234 23.5919C7.38129 22.4269 7.585 21.1056 7.30597 19.9949C6.88641 18.3274 5.7263 16.0903 4.319 15.04C3.60221 14.5044 2.68373 14.2631 1.79557 14.0302C1.58933 13.9763 1.3841 13.9219 1.1814 13.865L1.32142 13.3898C1.52109 13.4462 1.72329 13.4996 1.9265 13.553C2.86217 13.7987 3.82918 14.0529 4.62533 14.6473C6.12513 15.7674 7.35601 18.1262 7.7963 19.8772C8.09909 21.0828 7.8883 22.4551 7.70177 23.6661L7.66538 23.903C7.53091 24.7867 7.58045 25.5853 7.83522 26.6603C8.03034 27.4857 7.69773 28.5241 7.04412 29.1289C6.75599 29.3954 6.46836 29.5829 6.19085 29.7643C5.70153 30.0838 5.27843 30.3602 4.99687 30.9967C4.62887 31.8259 4.43021 32.7343 4.38926 33.7733C4.34529 34.8929 4.6314 35.6119 5.02821 36.6068C5.06865 36.7082 5.10909 36.815 5.15003 36.9248C5.41239 37.6211 5.70962 38.4113 6.36322 38.6096C6.74942 38.7263 7.13309 38.5992 7.53951 38.4632C8.05258 38.2916 8.6334 38.0982 9.20511 38.4835C9.63074 38.7708 9.88652 39.1842 10.1342 39.5837C10.393 40.0016 10.6377 40.3962 11.0552 40.6197C11.676 40.9511 12.3705 41.0465 12.8239 40.8611C13.1202 40.7404 13.3234 40.501 13.4275 40.1504C13.7409 39.0937 13.4973 37.7961 13.2819 36.6518C13.2359 36.4075 13.1914 36.1692 13.153 35.9407C13.1096 35.6801 13.0413 35.4111 12.9746 35.1505C12.8649 34.7203 12.7517 34.2747 12.735 33.8213C12.7168 33.3367 12.7845 32.8595 12.8507 32.3976C12.8816 32.182 12.9124 31.9669 12.9341 31.7513C13.057 30.5382 13.2278 29.341 13.4417 28.1923C13.5407 27.6602 13.6681 27.1519 13.791 26.6603C14.1054 25.4028 14.4026 24.2155 14.1807 22.8452C14.1514 22.6657 14.1291 22.5015 14.1079 22.3463C14.0351 21.8127 13.983 21.427 13.7273 20.9073C13.6231 20.6951 13.5291 20.4874 13.4366 20.2822C13.2243 19.8114 13.0236 19.3669 12.7183 18.9213C12.4307 18.5005 12.0955 18.1647 11.7407 17.8092L11.5167 17.5837C11.3469 17.4111 11.1634 17.2593 10.9693 17.0981C10.7929 16.9522 10.6159 16.8048 10.4481 16.6422C10.3541 16.5512 10.2742 16.4676 10.1994 16.3895C9.97801 16.158 9.83192 16.0052 9.51902 15.8638C9.31784 15.7728 9.11918 15.67 8.92052 15.5666C8.67283 15.4385 8.41705 15.3055 8.16228 15.2017C7.90751 15.0978 7.65072 15.0039 7.39544 14.9109C6.53408 14.5959 5.6439 14.2705 4.91902 13.5777C4.16129 12.8542 3.7028 11.9369 3.33278 11.1334C3.21904 10.8866 3.12755 10.5914 3.0305 10.2789C2.8465 9.68495 2.63823 9.01193 2.26265 8.72166C2.09078 8.58864 1.88757 8.60298 1.57063 8.6366C1.46548 8.64798 1.36034 8.65886 1.25672 8.66182L1.24256 8.16732C1.33304 8.16484 1.42454 8.15495 1.51654 8.14506C1.8537 8.10995 2.23384 8.0699 2.57606 8.33397C3.07548 8.72017 3.30852 9.47232 3.51375 10.1354C3.60575 10.4322 3.69269 10.7125 3.79278 10.9296C4.1441 11.6917 4.57731 12.56 5.27186 13.2231C5.92091 13.8433 6.72313 14.1365 7.57236 14.447C7.8332 14.5425 8.09606 14.6384 8.35689 14.7452C8.6334 14.858 8.89979 14.9959 9.15709 15.1295C9.34766 15.2284 9.53773 15.3273 9.73082 15.4148C10.1332 15.5973 10.3344 15.8074 10.5679 16.0517C10.6387 16.1254 10.7145 16.205 10.803 16.2911C10.9612 16.4448 11.1285 16.5828 11.2948 16.7208C11.4905 16.883 11.6926 17.0501 11.8802 17.241L12.1016 17.4635C12.4731 17.8354 12.8239 18.187 13.1379 18.6459C13.4674 19.1275 13.6767 19.5914 13.8986 20.0819C13.9891 20.2822 14.0806 20.485 14.1827 20.6922C14.4734 21.2831 14.5361 21.7454 14.6088 22.2805C14.6296 22.4318 14.6508 22.592 14.6796 22.7676C14.9177 24.2363 14.6088 25.4706 14.2818 26.7775C14.1605 27.2617 14.0351 27.7631 13.9386 28.2808C13.7273 29.4162 13.5584 30.6001 13.4366 31.7992C13.4144 32.0213 13.3825 32.2433 13.3512 32.4658C13.2855 32.9262 13.2238 33.3614 13.24 33.8025C13.2551 34.205 13.3572 34.6065 13.4654 35.0308C13.5342 35.3008 13.6049 35.5797 13.6519 35.8606C13.6894 36.0856 13.7338 36.3205 13.7788 36.5613C14.0043 37.7605 14.2596 39.1189 13.9128 40.2879C13.7662 40.7824 13.4568 41.1385 13.0176 41.317C12.7921 41.4109 12.5454 41.45 12.2967 41.45Z" fill="white" stroke="white" stroke-width="0.4"/>
<path d="M1.77489 2.81966C1.6096 2.81966 1.44936 2.79048 1.29872 2.72175C1.22744 2.6896 1.1592 2.64658 1.09045 2.59021L1.41498 2.21092C1.44986 2.23911 1.48019 2.25889 1.51153 2.27323C1.90733 2.45373 2.56751 2.12537 3.09727 1.86081C3.30553 1.75697 3.50267 1.65856 3.67353 1.59576C3.89999 1.51268 4.12595 1.43752 4.35039 1.36235C4.6825 1.25158 4.99641 1.14675 5.30881 1.01917L5.50393 1.47559C5.17637 1.6096 4.83971 1.72235 4.51417 1.83065C4.29428 1.90384 4.07287 1.97752 3.85147 2.05911C3.7074 2.11202 3.52289 2.204 3.32727 2.30142C2.85261 2.53829 2.28898 2.81966 1.77489 2.81966Z" fill="white" stroke="white" stroke-width="0.4"/>
<path d="M24.7871 5.0697C24.4105 5.0697 24.0308 5.01679 23.6578 4.82195C23.0492 4.50399 22.6771 4.04904 22.2828 3.5669C22.1676 3.42596 22.0513 3.28305 21.9254 3.14162L21.8051 3.00514C21.3815 2.523 20.9812 2.06756 20.4449 1.78322C20.2042 1.65613 19.9394 1.56217 19.6123 1.48849L19.7255 1.00635C20.0986 1.08992 20.4039 1.19871 20.6855 1.34805C21.3042 1.67591 21.7536 2.18772 22.1888 2.68272L22.3081 2.81822C22.438 2.96508 22.5588 3.11294 22.6776 3.25833C23.038 3.69942 23.3787 4.1158 23.8959 4.3858C24.3629 4.6291 24.8785 4.58558 25.4245 4.5386C25.6014 4.52327 25.7783 4.50844 25.9553 4.5025C26.0857 4.49805 26.21 4.49607 26.3318 4.49459C26.7787 4.48816 27.1644 4.48322 27.6183 4.3497C28.9276 3.96547 30.1352 3.25783 31.3039 2.57393L31.6926 2.34695C32.4038 1.93355 32.9326 1.53102 33.3572 1.08003L33.7293 1.4153C33.2708 1.90239 32.7056 2.3336 31.9509 2.77223L31.5632 2.99871C30.3682 3.69844 29.1323 4.4214 27.7629 4.82344C27.2422 4.97624 26.8035 4.98267 26.3384 4.9891C26.2206 4.99058 26.0983 4.99256 25.9714 4.99651C25.8041 5.00195 25.6363 5.01679 25.468 5.03113C25.2435 5.04992 25.016 5.0697 24.7871 5.0697Z" fill="white" stroke="white" stroke-width="0.4"/>
<path d="M25.3244 2.59173C25.0322 2.59173 24.7269 2.52547 24.4105 2.32025C24.0248 2.07052 23.7448 1.74266 23.4688 1.39997L23.8656 1.09387C24.1249 1.4153 24.3655 1.69816 24.6895 1.90783C24.9984 2.10761 25.282 2.14321 25.7733 2.04332C25.927 2.01217 26.0842 1.95926 26.2373 1.90882L26.4431 1.84206C26.5609 1.80596 26.6857 1.76986 26.8146 1.73376C27.3383 1.58442 27.9318 1.4153 28.2993 1.11415L28.5318 1.24717L28.6935 1.43706L28.6561 1.46722C28.1754 1.86085 27.5279 2.0453 26.9562 2.20849C26.8313 2.24409 26.71 2.27871 26.5952 2.31382L26.3996 2.37711C26.2267 2.43448 26.0488 2.49283 25.8759 2.52794C25.6975 2.56404 25.514 2.59173 25.3244 2.59173Z" fill="white" stroke="white" stroke-width="0.4"/>
<path d="M18.6488 45.9229L18.2818 45.5827C18.8085 45.0387 19.2417 44.427 19.3686 44.2154C19.7472 43.5854 20.3361 42.1938 19.8559 41.4397C19.6592 41.1311 19.4586 40.9585 19.311 40.9773C18.8884 41.0045 18.3975 42.0638 18.1043 42.6972C17.9502 43.03 17.8172 43.3173 17.6939 43.4963C17.5872 43.6521 17.4553 43.8197 17.3158 43.9973C16.8856 44.5432 16.3988 45.1618 16.4145 45.7458L15.909 45.7592C15.8883 44.9996 16.4574 44.2767 16.9149 43.6956C17.0474 43.5275 17.1727 43.3683 17.2738 43.2209C17.3734 43.0755 17.5048 42.7927 17.6433 42.493C18.0695 41.5732 18.5522 40.5303 19.2771 40.4838C19.6365 40.463 19.9767 40.6945 20.2845 41.1776C20.8916 42.131 20.2684 43.6932 19.8043 44.4656C19.6426 44.7356 19.1861 45.369 18.6488 45.9229ZM23.0425 45.8675L22.5946 45.6375C22.9121 45.0456 23.2068 44.3963 23.2154 43.664C23.222 43.1022 23.2063 42.626 23.1108 42.129C22.8797 40.9259 22.4971 40.0447 21.9405 39.4345C21.8121 39.2935 21.6595 39.1655 21.4982 39.03C21.2389 38.8124 20.971 38.5869 20.7809 38.2867C20.7011 38.1601 20.6333 38.0459 20.5696 37.9371C20.4074 37.6612 20.279 37.4431 20.0262 37.1662C18.9682 36.0095 18.5466 35.0838 18.7367 34.3356C18.9182 33.6211 19.4388 33.1102 19.9423 32.6162C20.1961 32.367 20.4362 32.1321 20.6252 31.8789C21.0868 31.2613 20.9862 30.8548 20.834 30.2391C20.786 30.0448 20.7359 29.8401 20.7001 29.6156C20.3588 27.4664 22.5825 25.7693 23.5541 25.1388C25.7232 23.7319 26.9515 22.332 27.2053 20.9775C27.3635 20.1319 27.1365 19.2844 26.5304 18.4585C26.1619 17.9571 25.8071 17.7029 25.3071 17.3716C25.0604 17.2079 24.885 16.9923 24.7157 16.7841C24.5403 16.5685 24.3745 16.3648 24.149 16.2486C24.0484 16.1967 23.9564 16.1982 23.8296 16.1982C23.7113 16.2001 23.5778 16.2001 23.4282 16.1536C23.1871 16.0795 22.9874 15.9296 22.7943 15.7842C22.6715 15.6923 22.5557 15.6057 22.4415 15.5474C22.2246 15.4371 21.979 15.3436 21.7186 15.2447C21.1626 15.0331 20.5883 14.8145 20.189 14.3932C19.8326 14.0169 19.7088 13.5308 19.8493 13.061C19.9954 12.5729 20.4134 12.1862 20.9402 12.0517C21.339 11.9499 21.7449 11.9405 22.1372 11.9311C22.7079 11.9177 23.2467 11.9049 23.7052 11.6131C23.8518 11.5201 23.9928 11.4168 24.1344 11.3134C24.6212 10.9579 25.1327 10.5994 25.8248 10.6033C26.2332 10.6112 26.6002 10.7551 26.9555 10.8946C27.1881 10.9856 27.408 11.0716 27.6299 11.1171C28.9523 11.3856 30.5001 10.4367 31.7011 9.57722C31.8073 9.50156 31.9205 9.42441 32.0363 9.34579C32.7591 8.85573 33.5063 8.34886 33.3506 7.55172C33.1281 6.41238 33.0195 5.4565 33.7984 4.39134C34.8418 2.9637 36.1111 2.26645 37.7918 2.19672C39.276 2.13738 40.5862 3.0448 41.0037 4.40815C41.2843 5.32348 41.2818 6.61068 40.9987 7.68771C40.6898 8.86364 39.8795 9.72705 39.096 10.5623C38.8347 10.8407 38.5647 11.129 38.3221 11.4202C37.8454 11.9944 37.3955 12.6125 37.3404 13.2445C37.2666 14.0802 37.2651 14.9495 37.2626 15.7902C37.2606 16.5008 37.2585 17.2351 37.2141 17.9556C37.1964 18.2469 37.2034 18.5629 37.212 18.8972C37.2267 19.5039 37.2419 20.1314 37.1023 20.6799C36.9674 21.2095 36.6241 21.5522 36.2915 21.8835C36.0454 22.1288 35.8133 22.3597 35.6809 22.6549C35.2441 23.6266 35.9918 24.3031 36.7839 25.0182C37.1044 25.3079 37.4061 25.5814 37.6311 25.8781C37.9627 26.3167 38.0052 26.3731 38.4631 26.4497C39.1314 26.563 39.7238 26.6921 40.202 27.1406C40.888 27.7854 41.1453 28.7977 41.3222 29.7956L41.3535 29.9835C41.4218 30.4083 41.4354 30.4968 41.7938 30.5912C42.0077 30.6476 42.2468 30.6466 42.497 30.6456C42.7391 30.6427 42.9878 30.6432 43.2345 30.6941C45.4425 31.1466 46.5298 32.9921 46.9812 34.0523L46.5141 34.2427C46.1012 33.2724 45.1124 31.5842 43.1314 31.1782C42.9363 31.1386 42.7239 31.1372 42.499 31.1406C42.226 31.1396 41.9409 31.1426 41.6619 31.0684C40.9876 30.8904 40.9259 30.5052 40.8541 30.0601L40.8243 29.8801C40.6625 28.9648 40.433 28.043 39.8522 27.4976C39.4777 27.146 38.9626 27.0357 38.3772 26.9373C37.7196 26.8261 37.5851 26.648 37.2247 26.1718C37.0285 25.9127 36.7434 25.6541 36.4412 25.3811C35.6374 24.6542 34.637 23.7502 35.2184 22.4551C35.3882 22.0773 35.6642 21.8024 35.9311 21.5363C36.2294 21.2391 36.5109 20.9588 36.6125 20.5597C36.7353 20.0756 36.7212 19.4817 36.7076 18.908C36.6995 18.5782 36.6914 18.237 36.7106 17.9255C36.7541 17.2188 36.7561 16.4919 36.7581 15.7882C36.7606 14.9372 36.7632 14.0574 36.838 13.2014C36.9052 12.4364 37.4031 11.7432 37.9314 11.1077C38.1836 10.8046 38.4586 10.5108 38.725 10.227C39.5004 9.40068 40.2324 8.61985 40.5099 7.56359C40.7677 6.58249 40.7722 5.37095 40.5205 4.54908C40.1747 3.42112 39.0298 2.64375 37.8141 2.68974C36.3011 2.75254 35.1557 3.38452 34.2094 4.67815C33.5462 5.58507 33.6412 6.40249 33.8475 7.45777C34.0653 8.57139 33.0998 9.22562 32.3249 9.75128C32.2122 9.82744 32.1025 9.90211 31.9994 9.97529C30.7144 10.8951 29.0422 11.9118 27.5263 11.6002C27.2614 11.5463 27.0101 11.4479 26.7675 11.353C26.4404 11.2244 26.1306 11.1038 25.8146 11.0973C25.2642 11.0924 24.8739 11.3891 24.4367 11.709C24.2865 11.8188 24.1359 11.9286 23.9802 12.0275C23.4014 12.3949 22.765 12.4102 22.1493 12.4246C21.7692 12.4335 21.4098 12.4424 21.0675 12.5294C20.7117 12.6199 20.4311 12.8766 20.3346 13.199C20.2451 13.4982 20.327 13.8107 20.5595 14.0564C20.8795 14.3947 21.3992 14.592 21.9016 14.7834C22.163 14.8828 22.4334 14.9856 22.674 15.1078C22.8282 15.1859 22.9672 15.2902 23.1017 15.3911C23.2675 15.5152 23.4242 15.6329 23.5799 15.6809C23.6537 15.7036 23.7325 15.7051 23.8265 15.7027C23.9812 15.7027 24.1718 15.7007 24.3841 15.81C24.7036 15.9741 24.9108 16.2288 25.111 16.4746C25.2637 16.662 25.4077 16.839 25.5902 16.9602C26.1184 17.3103 26.5249 17.6016 26.9409 18.1678C27.6304 19.1073 27.8867 20.082 27.7027 21.0646C27.4226 22.5565 26.121 24.0652 23.8336 25.5492C23.1386 25.9997 20.8952 27.6188 21.2 29.5369C21.2333 29.7471 21.2809 29.9385 21.3259 30.1205C21.4841 30.7613 21.6337 31.3661 21.0337 32.1687C20.8219 32.4525 20.557 32.7127 20.3007 32.9634C19.825 33.4302 19.3752 33.8708 19.2275 34.4528C19.083 35.0215 19.4788 35.8231 20.4033 36.8344C20.6915 37.1494 20.8456 37.411 21.0084 37.6879C21.0701 37.7927 21.1348 37.903 21.2111 38.0241C21.3602 38.2595 21.5877 38.4504 21.8283 38.6527C21.9951 38.7931 22.1675 38.938 22.3181 39.1032C22.9379 39.7826 23.36 40.7419 23.6077 42.0366C23.7168 42.6047 23.7264 43.1571 23.7209 43.6684C23.7113 44.5091 23.3726 45.2518 23.0425 45.8675ZM2.63671 45.7632L2.13173 45.7429L2.1388 45.5658C2.17368 44.6639 2.19491 44.1194 2.92586 43.253C3.47381 42.6038 3.23118 41.8214 2.69737 40.8478C2.48153 40.4527 2.2121 40.0674 1.95076 39.6941C1.62017 39.2199 1.27795 38.7308 1.02368 38.1977L1.48166 37.988C1.71874 38.485 2.04882 38.9573 2.3683 39.4147C2.63671 39.7984 2.91423 40.1955 3.14322 40.6139C3.5097 41.2834 4.19162 42.5291 3.31559 43.568C2.69333 44.3054 2.67766 44.7064 2.64329 45.5846L2.63671 45.7632ZM46.5566 28.9653C46.1689 28.5301 45.7246 28.1157 45.1569 27.6603C44.4335 27.0792 43.8669 26.6396 43.1622 26.2692L42.9236 26.1441C41.5507 25.4266 40.4669 24.8594 39.8826 23.1825C39.3553 21.6689 39.3356 20.0058 39.3862 18.5787C39.4291 17.3761 39.9088 16.486 40.3972 15.6769C40.6706 15.2235 40.9401 14.7769 41.3409 14.4229C42.0329 13.8127 42.8503 13.5189 43.6409 13.2356C43.9791 13.1139 44.3289 12.9883 44.6625 12.8395C45.2676 12.57 45.6477 12.1373 45.7918 11.5538C46.0284 10.5959 45.5699 9.46991 45.0098 8.7781L44.9456 8.69848C44.3784 7.99777 43.7926 7.27331 43.3644 6.48705C43.0566 5.92183 42.9206 5.27947 42.7886 4.65788L42.7219 4.34535C42.5895 3.74551 42.3135 3.35881 41.9318 2.82425L41.7868 2.62249C41.5037 2.23084 41.1832 1.78678 41.0877 1.29276L41.5841 1.20079C41.6589 1.58897 41.9333 1.96925 42.1992 2.33667L42.3458 2.5409C42.7305 3.07892 43.0626 3.54375 43.2163 4.24101L43.284 4.557C43.4084 5.14447 43.5368 5.75172 43.8108 6.25414C44.2172 7.00084 44.7894 7.70749 45.3419 8.3909L45.4066 8.47101C46.1815 9.42936 46.5258 10.6854 46.2826 11.6695C46.1032 12.3979 45.6149 12.9577 44.8713 13.289C44.5205 13.4452 44.1616 13.5743 43.8143 13.6989C43.0348 13.9788 42.2983 14.2434 41.6786 14.7898C41.3348 15.0924 41.0973 15.4875 40.845 15.9054C40.2622 16.8712 39.926 17.6105 39.8906 18.595C39.8416 19.9772 39.8593 21.5843 40.3608 23.0223C40.8799 24.5142 41.7873 24.989 43.1612 25.707L43.4003 25.8326C44.2035 26.2549 44.8804 26.7979 45.4769 27.2771C46.0658 27.7503 46.5298 28.183 46.9367 28.6389L46.5566 28.9653ZM13.3699 12.4651C12.9276 12.4651 12.4711 12.3914 12.0025 12.2213C11.2625 11.9523 10.8045 11.4385 10.3622 10.9421C9.85568 10.3734 9.37647 9.83584 8.49186 9.70628C8.38166 9.68996 8.26438 9.67513 8.14155 9.65881C6.987 9.50848 5.24203 9.28051 5.14599 7.75892C5.08129 6.73084 5.78898 5.84766 6.41326 5.06831C6.66096 4.75925 6.895 4.46749 7.07091 4.18315L7.15685 4.04419C7.85746 2.91178 8.58234 1.74079 9.69443 1.03908L9.96841 1.45447C8.95489 2.09436 8.26085 3.2159 7.58955 4.30035L7.50361 4.4393C7.31153 4.74837 7.06889 5.052 6.81159 5.37293C6.2146 6.11766 5.5979 6.8876 5.65098 7.72826C5.71619 8.76029 6.84799 8.99123 8.20878 9.16875C8.33465 9.18507 8.45445 9.2009 8.56667 9.21722C9.63579 9.37348 10.1989 10.006 10.7438 10.6172C11.1634 11.0879 11.5592 11.5325 12.1789 11.7575C14.1175 12.4632 15.8443 11.3035 17.1328 10.2161C17.8445 9.6148 18.6199 9.07826 19.5652 8.45766C19.6694 8.38892 19.7957 8.31326 19.9337 8.22969C20.5777 7.84101 21.5508 7.25353 21.4922 6.65568C21.4487 6.21606 20.9548 6.07859 20.2618 5.93172C20.009 5.87831 19.7694 5.82788 19.5784 5.74628C19.3812 5.6632 19.1735 5.55936 18.9642 5.45502C18.8186 5.38282 18.6725 5.31013 18.53 5.24386C17.9502 4.97634 17.5806 4.44919 17.2541 3.98337C17.1444 3.82711 17.0362 3.67282 16.9225 3.53139C16.8441 3.43397 16.7648 3.33309 16.6854 3.23073C16.4468 2.92513 16.2001 2.60914 15.9337 2.35249C15.5875 2.01919 15.1831 1.73683 14.6599 1.46436L14.898 1.02771C15.4566 1.31897 15.9115 1.63694 16.2881 1.99991C16.5803 2.28079 16.8376 2.61112 17.0873 2.93057C17.1656 3.03046 17.243 3.12985 17.3198 3.22529C17.4401 3.37513 17.5549 3.53782 17.6706 3.70348C17.9749 4.13716 18.2894 4.58617 18.7453 4.79634C18.8924 4.86408 19.043 4.93925 19.1932 5.01392C19.3928 5.11331 19.5915 5.21271 19.779 5.29233C19.9246 5.35414 20.14 5.39963 20.3685 5.4476C21.02 5.58507 21.9122 5.77397 21.9946 6.60672C22.0841 7.51167 20.9498 8.19606 20.1986 8.64903C20.0667 8.72864 19.9459 8.80134 19.8463 8.86661C18.9162 9.47733 18.1549 10.0035 17.4624 10.5885C16.4494 11.446 15.0148 12.4651 13.3699 12.4651Z" fill="white" stroke="white" stroke-width="0.4"/>
<path d="M27.0102 45.7636L26.5058 45.7413C26.5331 45.144 26.4299 44.4739 26.1903 43.6931C24.966 39.7108 23.1164 33.6922 25.1081 28.7867C25.929 26.7647 28.2027 24.7466 30.7924 24.9736C33.5872 25.2238 34.4223 27.727 35.0936 29.7391L35.1856 30.0146C35.8165 31.8877 37.1262 32.5756 38.6427 33.3722C39.1563 33.6418 39.6865 33.9202 40.2274 34.2614C41.566 35.1045 42.4521 36.4599 43.3089 37.7709C43.7694 38.4751 44.2456 39.203 44.787 39.8468C45.5124 40.7068 46.2241 41.6349 46.9505 42.5893L46.5446 42.885C45.8222 41.9356 45.1145 41.0129 44.3967 40.1613C43.8356 39.4947 43.3514 38.7535 42.8833 38.0369C42.0174 36.7126 41.2 35.462 39.9539 34.6768C39.4297 34.3469 38.9086 34.073 38.4036 33.8079C36.8588 32.9964 35.3999 32.2304 34.7064 30.1693L34.6134 29.8924C33.9557 27.9213 33.2106 25.6871 30.7469 25.4666C28.4054 25.2569 26.3324 27.1148 25.5787 28.9697C23.6517 33.7154 25.471 39.6342 26.6746 43.5511C26.9304 44.3859 27.0406 45.1093 27.0102 45.7636Z" fill="white" stroke="white" stroke-width="0.4"/>
<path d="M44.6459 45.818C44.6004 45.6543 44.5585 45.4896 44.517 45.3255C44.4751 45.1593 44.4331 44.9941 44.3871 44.8324C44.1743 44.0758 43.9797 43.4409 43.5824 42.7392C43.3084 42.2551 43.0779 41.7126 42.855 41.1879C42.4399 40.2108 42.0103 39.2005 41.2798 38.4988C40.8476 38.0839 40.3078 37.7729 39.7366 37.4435C39.3514 37.2215 38.953 36.992 38.5921 36.728C38.2878 36.5054 37.9987 36.2602 37.7186 36.0228C37.3036 35.6712 36.8744 35.3078 36.4023 35.0254C35.5768 34.5309 34.7458 34.1877 33.8657 33.8242C32.9811 33.4588 32.88 32.9074 32.782 32.3753C32.736 32.1231 32.6879 31.8625 32.5565 31.593C32.1461 30.7534 31.5713 30.3958 30.6437 30.3993C28.7304 30.4052 27.3034 31.643 27.0921 33.4796C26.8262 35.7973 26.7726 37.8787 26.9339 39.6653C27.0153 40.5718 27.354 41.3031 27.7118 42.0775C27.8352 42.3446 27.9611 42.617 28.0809 42.9043C28.4984 43.9067 28.4463 45.0268 28.328 45.7893L27.8286 45.7161C27.9368 45.0144 27.9868 43.9898 27.6128 43.0908C27.4955 42.8099 27.3717 42.5434 27.2508 42.2813C26.8748 41.4673 26.5189 40.6989 26.4299 39.7089C26.2661 37.8891 26.3197 35.7746 26.5891 33.4247C26.8308 31.326 28.459 29.9117 30.6417 29.9053C30.6462 29.9053 30.6508 29.9053 30.6548 29.9053C31.772 29.9053 32.5211 30.3741 33.0125 31.3799C33.1732 31.7097 33.2298 32.0168 33.2794 32.2883C33.3704 32.7813 33.43 33.1072 34.0619 33.3688C34.9202 33.7234 35.8079 34.0903 36.6652 34.6036C37.1727 34.9067 37.618 35.2845 38.0482 35.649C38.3212 35.8804 38.6042 36.1197 38.8939 36.3319C39.2321 36.5796 39.6188 36.8021 39.9918 37.0178C40.5641 37.3476 41.156 37.6883 41.6327 38.1462C42.4359 38.9181 42.8858 39.9749 43.3205 40.998C43.548 41.5336 43.7633 42.039 44.0237 42.4993C44.4483 43.249 44.6515 43.9117 44.8739 44.7009C44.9204 44.867 44.9634 45.0362 45.0068 45.2063C45.0473 45.3665 45.0882 45.5272 45.1327 45.6874L44.6459 45.818Z" fill="white" stroke="white" stroke-width="0.4"/>
<path d="M29.8414 45.7567L29.3359 45.7488C29.345 45.2118 29.3233 44.6629 29.3026 44.1313C29.2839 43.6605 29.2657 43.1902 29.2667 42.7214C29.2677 42.4129 29.2743 42.1048 29.2808 41.7962C29.293 41.2063 29.3066 40.5956 29.2758 40.0002C29.2647 39.7846 29.2682 39.5546 29.2728 39.3197C29.2808 38.8697 29.2889 38.4034 29.1828 38.0271C29.1363 37.8619 29.0342 37.6439 28.925 37.4134C28.6399 36.8062 28.3159 36.1188 28.5919 35.5912C28.739 35.3103 29.0347 35.1258 29.4704 35.0428C30.678 34.8138 32.1662 35.026 33.4628 35.2638C34.2246 35.4038 34.5638 35.5477 35.0693 36.1242C35.4484 36.5569 35.9175 36.8779 36.4134 37.2181C36.7187 37.4273 37.0336 37.6429 37.3268 37.8877C38.0249 38.4702 38.6932 39.1457 39.3124 39.8958C39.5237 40.152 39.735 40.4002 39.9437 40.645C41.0017 41.8867 42.0006 43.0592 42.5046 44.695C42.6117 45.0436 42.6679 45.3987 42.6709 45.7503L42.1654 45.7552C42.1624 45.4501 42.1138 45.1416 42.0208 44.8379C41.5462 43.299 40.5787 42.1636 39.555 40.962C39.3447 40.7147 39.1314 40.4645 38.9191 40.2074C38.3191 39.4805 37.6731 38.8272 36.9987 38.265C36.7237 38.0355 36.4189 37.8263 36.1237 37.6241C35.6238 37.2814 35.1062 36.9273 34.6851 36.4467C34.2696 35.9724 34.031 35.8721 33.3693 35.7504C32.1192 35.5214 30.6902 35.3157 29.567 35.5294C29.291 35.5813 29.114 35.6787 29.0417 35.8177C28.8775 36.1312 29.158 36.728 29.3845 37.2072C29.5017 37.4569 29.613 37.6923 29.6701 37.8975C29.7949 38.3426 29.7858 38.8445 29.7777 39.3296C29.7737 39.5527 29.7691 39.7722 29.7798 39.9764C29.8111 40.5896 29.798 41.2088 29.7853 41.8081C29.7788 42.1132 29.7727 42.4183 29.7717 42.7239C29.7707 43.1863 29.7889 43.6491 29.8071 44.1135C29.8283 44.6505 29.85 45.2068 29.8414 45.7567Z" fill="white" stroke="white" stroke-width="0.4"/>
<path d="M37.9103 45.9619C37.8026 45.8952 37.6969 45.827 37.5989 45.7508C37.102 45.3671 36.7456 44.7751 36.596 44.0848C36.5014 43.6482 36.4408 43.2021 36.3822 42.7704C36.326 42.354 36.2674 41.9238 36.18 41.5183L36.1203 41.2369C36.0399 40.8542 35.9636 40.4922 35.8509 40.1243C35.6638 39.5161 35.1664 38.9973 34.6685 38.89C34.3268 38.8178 34.0114 38.9405 33.7253 39.256C33.3932 39.6239 33.2986 40.1461 33.2536 40.56C33.2147 40.9195 33.2198 41.2884 33.2248 41.6785C33.2349 42.4282 33.2445 43.2031 32.9256 43.9231C32.7082 44.4127 32.4701 44.8691 32.2396 45.3107C32.1431 45.4961 32.0465 45.6796 31.954 45.863L31.5011 45.644C31.5956 45.4585 31.6922 45.2731 31.7897 45.0857C32.0167 44.651 32.2513 44.202 32.462 43.7263C32.7385 43.1037 32.7289 42.4149 32.7198 41.685C32.7143 41.2978 32.7092 40.8962 32.7512 40.508C32.8038 40.0214 32.9195 39.4023 33.3467 38.9291C33.8648 38.356 34.4107 38.3288 34.7767 38.4074C35.4541 38.5528 36.0945 39.2006 36.3346 39.9824C36.4544 40.3711 36.5363 40.7612 36.6157 41.138L36.6748 41.4165C36.7663 41.8407 36.826 42.2808 36.8836 42.7056C36.9412 43.1279 37.0004 43.5651 37.0909 43.9829C37.2157 44.5605 37.5074 45.0506 37.9123 45.3631C37.9967 45.4284 38.0877 45.4872 38.1802 45.5441L37.9103 45.9619Z" fill="white" stroke="white" stroke-width="0.4"/>
<path d="M33.9451 45.7868L33.4447 45.7181C33.5256 45.1543 33.6646 44.7568 33.8809 44.466C34.1175 44.1485 34.6255 43.9487 35.0825 43.9838C35.445 44.014 35.7225 44.1821 35.8625 44.4586C36.0035 44.7345 36.046 45.1489 36.0768 45.452L36.09 45.5766C36.096 45.6281 36.0996 45.681 36.1026 45.7329L35.5986 45.769C35.5951 45.7206 35.592 45.6751 35.5875 45.6301L35.5739 45.501C35.5486 45.2513 35.5097 44.8735 35.4106 44.6791C35.3353 44.5303 35.1679 44.4868 35.0406 44.4764C34.7549 44.4516 34.4244 44.5758 34.2904 44.7563C34.1236 44.9803 34.0144 45.3076 33.9451 45.7868Z" fill="white" stroke="white" stroke-width="0.4"/>
<path d="M46.5658 7.58036L46.7473 7.40827L46.535 7.54921L46.4718 7.48541C45.716 6.72338 45.5209 5.88668 45.8207 4.6875C45.9602 4.12822 46.2534 3.71333 46.5491 3.34888L46.9449 3.65646C46.6441 4.02684 46.4217 4.3641 46.311 4.8052C46.0547 5.83129 46.2069 6.50877 46.8347 7.14223L46.8969 7.20503L46.7473 7.40827L46.5658 7.58036Z" fill="white" stroke="white" stroke-width="0.4"/>
<path d="M46.5709 26.0615C46.3687 25.8687 46.1685 25.6738 45.9689 25.478C45.5023 25.0216 45.0195 24.5503 44.508 24.1211C43.8185 23.543 42.9597 22.823 42.9202 21.6194C42.8833 20.4751 43.5223 20.1017 44.2992 19.763C45.1368 19.3981 45.6246 18.7433 45.7085 17.871C45.7348 17.5985 45.7191 17.285 45.7025 16.9537C45.6656 16.209 45.6231 15.3644 46.0851 14.7635C46.2171 14.592 46.3788 14.4377 46.5952 14.2789L46.8995 14.674C46.722 14.8046 46.5921 14.9272 46.489 15.0607C46.1372 15.5187 46.1731 16.2357 46.2075 16.9295C46.2246 17.2796 46.2413 17.6099 46.212 17.9175C46.1094 18.9787 45.5195 19.7729 44.5044 20.215C43.7229 20.5557 43.3999 20.8242 43.4257 21.604C43.4555 22.5174 44.0551 23.091 44.8366 23.7462C45.3628 24.1878 45.8526 24.666 46.3257 25.1289C46.5244 25.3227 46.722 25.5161 46.9232 25.7074L46.5709 26.0615Z" fill="white" stroke="white" stroke-width="0.4"/>
<path d="M1.50443 27.2957L1.00146 27.2493C1.02219 27.0351 1.03685 26.8141 1.04848 26.5782C1.08083 25.9378 1.72179 25.6406 2.28795 25.379C2.76311 25.159 3.21199 24.9513 3.26153 24.6111C3.27417 24.5611 3.57898 23.5875 3.06742 22.6998C2.70144 22.0654 2.65089 21.5921 2.6145 21.247C2.59276 21.0388 2.57659 20.8884 2.50127 20.7782C2.3941 20.6199 2.017 20.3193 1.71371 20.0775C1.45489 19.8717 1.21074 19.6774 1.06819 19.5276L1.4372 19.1898C1.557 19.3149 1.79863 19.5078 2.03217 19.6942C2.41281 19.9973 2.77221 20.2837 2.92184 20.5047C3.0659 20.7164 3.09017 20.9493 3.11645 21.196C3.15032 21.515 3.19278 21.9121 3.5072 22.457C4.12997 23.5375 3.76804 24.6744 3.75186 24.7223C3.673 25.2846 3.05175 25.5724 2.50379 25.8256C1.93966 26.0867 1.56914 26.282 1.55296 26.602C1.54083 26.8462 1.52566 27.0747 1.50443 27.2957Z" fill="white" stroke="white" stroke-width="0.4"/>
<path d="M47 46H1V1H47V46ZM1.50549 45.5055H46.4945V1.49451H1.50549V45.5055Z" fill="white" stroke="white" stroke-width="0.4"/>
</svg>
