<svg width="36" height="36" viewBox="0 0 36 36" fill="none" xmlns="http://www.w3.org/2000/svg">
<path d="M0 36H28.952V0.397705H0V36ZM1.03647 1.43012H27.9155V34.9676H1.03647V1.43012Z" fill="white"/>
<path d="M33.192 0L30.6104 3.92608V36H36V3.91452L33.192 0ZM33.2289 1.82779L34.6223 3.77039H31.9515L33.2289 1.82779ZM32.7869 11.165V25.993H34.9635V32.6781H31.6468V4.80281H34.9635V11.165H32.7869ZM34.9635 12.1974V24.9606H33.8234V12.1974H34.9635ZM31.6468 34.9676V33.7105H34.9635V34.9676H31.6468Z" fill="white"/>
<path d="M26.8724 7.07407C26.8724 4.68299 24.9197 2.73792 22.5192 2.73792C20.2946 2.73792 18.4575 4.40961 18.2001 6.55786H10.6761C10.4186 4.40961 8.58117 2.73792 6.35691 2.73792C3.95644 2.73792 2.00372 4.68299 2.00372 7.07407C2.00372 9.29005 3.68198 11.1199 5.83867 11.3764V22.6838H3.10943V27.9863H5.83867V28.7177C5.83867 31.015 7.71468 32.8837 10.021 32.8837H14.0994V21.5969H15.191V32.8841H18.8547C21.161 32.8841 23.0375 31.0154 23.0375 28.7181V27.9867H25.6083V22.6842H23.0375V11.3764C25.1946 11.1199 26.8724 9.29005 26.8724 7.07407ZM22.5192 3.77033C24.348 3.77033 25.8359 5.25247 25.8359 7.07407C25.8359 8.89567 24.348 10.3778 22.5192 10.3778C20.6905 10.3778 19.2025 8.89567 19.2025 7.07407C19.2025 5.25247 20.6905 3.77033 22.5192 3.77033ZM3.0402 7.07407C3.0402 5.25247 4.52815 3.77033 6.35691 3.77033C8.18566 3.77033 9.67362 5.25247 9.67362 7.07407C9.67362 8.89567 8.18566 10.3778 6.35691 10.3778C4.52815 10.3778 3.0402 8.89567 3.0402 7.07407ZM4.1459 23.7166H8.49909V26.9543H4.1459V23.7166ZM13.0633 31.8517H10.0215C8.28682 31.8517 6.87556 30.4459 6.87556 28.7181V27.9867H9.53597V22.6842H6.87514V11.3764C8.86144 11.1401 10.4394 9.56881 10.6761 7.59028H13.9957V15.8153H9.32826V21.5969H13.0633V31.8517ZM18.6229 16.8474V20.5641H10.3647V16.8474H18.6229ZM24.5723 26.9543H20.2191V23.7166H24.5723V26.9543ZM19.1826 22.6842V27.9867H22.0014V28.7181C22.0014 30.4459 20.5902 31.8517 18.8551 31.8517H16.2279V21.5969H19.6594V15.8153H15.0322V7.59028H18.2001C18.4372 9.56881 20.0147 11.1406 22.001 11.3764V22.6838H19.1826V22.6842Z" fill="white"/>
<path d="M7.99781 5.43591L5.41036 7.54452L4.82538 6.62567L3.94977 7.17863L5.1612 9.08158L8.65452 6.23459L7.99781 5.43591Z" fill="white"/>
<path d="M24.6933 6.23459L24.0366 5.43591L21.4488 7.54452L20.8638 6.62567L19.9886 7.17863L21.1996 9.08158L24.6933 6.23459Z" fill="white"/>
<path d="M17.0326 18.1899H11.7122V19.2224H17.0326V18.1899Z" fill="white"/>
<path d="M6.72838 24.2308L6.14962 24.7702L5.57085 24.2308L4.86273 24.9849L5.39092 25.4768L4.86273 25.969L5.57085 26.7231L6.14962 26.1838L6.72838 26.7231L7.4365 25.969L6.90831 25.4768L7.4365 24.9849L6.72838 24.2308Z" fill="white"/>
<path d="M21.8165 26.7231L22.3957 26.1838L22.9745 26.7231L23.6822 25.969L23.1544 25.4768L23.6822 24.9849L22.9745 24.2308L22.3957 24.7702L21.8165 24.2308L21.1088 24.9849L21.6366 25.4768L21.1088 25.969L21.8165 26.7231Z" fill="white"/>
</svg>
