<svg width="35" height="35" viewBox="0 0 35 35" fill="none" xmlns="http://www.w3.org/2000/svg">
<path d="M31.0703 21.2187H14.5671C14.3604 21.2187 14.1576 21.1347 14.0114 20.9884C13.8653 20.8423 13.7812 20.6403 13.7812 20.4328V3.92931C13.7812 3.72263 13.8653 3.51987 14.0114 3.3737C14.1576 3.22752 14.3596 3.14343 14.5671 3.14343H20.854C21.287 3.14343 21.6399 3.49629 21.6399 3.92931C21.6399 4.36312 21.287 4.71519 20.854 4.71519H15.3529V19.6469H30.2845V4.71519H28.7127C28.2789 4.71519 27.9268 4.36312 27.9268 3.92931C27.9268 3.49629 28.2789 3.14343 28.7127 3.14343H31.0703C31.277 3.14343 31.4798 3.22752 31.6259 3.3737C31.772 3.51987 31.8562 3.72263 31.8562 3.92931V20.4328C31.8562 20.6404 31.7721 20.8423 31.6259 20.9884C31.4798 21.1347 31.277 21.2187 31.0703 21.2187ZM24.7834 4.71527C24.3496 4.71527 23.9975 4.3632 23.9975 3.92939C23.9975 3.49637 24.3496 3.14351 24.7834 3.14351C25.2164 3.14351 25.5692 3.49637 25.5692 3.92939C25.5692 4.3632 25.2163 4.71527 24.7834 4.71527Z" fill="white"/>
<path d="M3.56486 32.2211C3.46113 32.2211 3.35975 32.2014 3.26387 32.1613C2.96917 32.0395 2.77899 31.7543 2.77899 31.4352V14.9317C2.77899 14.725 2.86308 14.5222 3.00925 14.3761L8.12212 9.26313C8.27065 9.1146 8.4679 9.03287 8.67773 9.03287C8.88756 9.03287 9.08481 9.1146 9.23334 9.26313C9.53983 9.56962 9.53983 10.0679 9.23334 10.3744L4.35073 15.257V29.5381L13.7812 20.1075V4.90393C13.745 4.87799 13.7104 4.84892 13.679 4.81748C13.5305 4.66895 13.4487 4.47169 13.4487 4.26186C13.4487 4.05203 13.5305 3.85478 13.679 3.70625L14.0114 3.37382C14.16 3.22529 14.3572 3.14355 14.567 3.14355C14.6708 3.14355 14.7714 3.16399 14.8672 3.20328C15.1619 3.32588 15.3529 3.61037 15.3529 3.92944V20.4329C15.3529 20.6397 15.2688 20.8425 15.1226 20.9886L4.12047 31.9909C3.97194 32.1394 3.77469 32.2211 3.56486 32.2211ZM11.4558 7.82662C11.246 7.82662 11.0487 7.74489 10.9002 7.59636C10.5937 7.28986 10.5937 6.79083 10.9002 6.48433C11.0487 6.33659 11.246 6.25407 11.4558 6.25407C11.6664 6.25407 11.8636 6.33659 12.0122 6.48433C12.3179 6.79083 12.3179 7.28986 12.0122 7.59636C11.8636 7.74489 11.6664 7.82662 11.4558 7.82662Z" fill="white"/>
<path d="M20.0681 32.2211H3.56488C3.24581 32.2211 2.96054 32.0309 2.83873 31.7362C2.71692 31.4415 2.78372 31.1052 3.00927 30.8796L14.0114 19.8773C14.1576 19.7311 14.3596 19.647 14.5671 19.647H31.0703C31.3895 19.647 31.6739 19.838 31.7965 20.1319C31.9183 20.4266 31.8515 20.7629 31.6259 20.9885L31.2943 21.3201C31.2934 21.321 31.2934 21.321 31.2934 21.321C31.1449 21.4695 30.9477 21.5512 30.7379 21.5512C30.5281 21.5512 30.3307 21.4695 30.1823 21.321C30.1509 21.2895 30.1217 21.255 30.0958 21.2187H14.8924L5.46197 30.6493H19.742L24.6254 25.7666C24.7739 25.6181 24.9711 25.5364 25.181 25.5364C25.3908 25.5364 25.5881 25.6181 25.7365 25.7666C26.043 26.0731 26.043 26.5714 25.7365 26.8779L20.6237 31.9909C20.4751 32.1394 20.278 32.2211 20.0681 32.2211ZM27.9591 24.3292C27.7492 24.3292 27.552 24.2475 27.4035 24.0998C27.097 23.7934 27.097 23.2942 27.4035 22.9878C27.5521 22.8401 27.7492 22.7584 27.9591 22.7584C28.1689 22.7584 28.3661 22.8401 28.5147 22.9878C28.8211 23.2942 28.8211 23.7934 28.5147 24.0998C28.3661 24.2475 28.1689 24.3292 27.9591 24.3292Z" fill="white"/>
<path d="M14.5671 4.71536C14.1333 4.71536 13.7812 4.36329 13.7812 3.92948V2.05751L13.3466 2.2752C13.2366 2.33021 13.1179 2.35772 12.9961 2.35772C12.6959 2.35772 12.4263 2.1919 12.292 1.92313C12.0986 1.53569 12.2558 1.06259 12.644 0.86926L14.2158 0.0833792C14.4555 -0.0368605 14.7517 -0.0235006 14.9804 0.117958C15.213 0.261774 15.3529 0.511684 15.3529 0.785956V3.92948C15.3529 4.36329 15.0001 4.71536 14.5671 4.71536Z" fill="white"/>
<path d="M16.138 2.35764C16.0154 2.35764 15.8975 2.33014 15.7867 2.27513L14.2157 1.48924C14.0279 1.39494 13.8873 1.23383 13.8212 1.03422C13.7552 0.835391 13.7702 0.622418 13.8637 0.434592C13.9981 0.166607 14.2676 0 14.5678 0C14.6904 0 14.8083 0.0282918 14.9183 0.0833035L16.49 0.869184C16.6779 0.962704 16.8178 1.1246 16.8838 1.32342C16.9506 1.52225 16.9356 1.73601 16.8413 1.92305C16.7077 2.19182 16.4382 2.35764 16.138 2.35764Z" fill="white"/>
<path d="M34.2138 21.2187H31.0703C30.6365 21.2187 30.2844 20.8667 30.2844 20.4328C30.2844 19.9998 30.6365 19.647 31.0703 19.647H32.9422L32.7245 19.2124C32.5312 18.8249 32.6883 18.3519 33.0758 18.1586C33.1866 18.1036 33.3044 18.0752 33.4271 18.0752C33.7265 18.0752 33.9969 18.2418 34.1305 18.5098L34.9163 20.0816C35.0389 20.3268 35.0263 20.6128 34.8818 20.8462C34.738 21.0797 34.488 21.2187 34.2138 21.2187Z" fill="white"/>
<path d="M33.4271 22.7905C33.3044 22.7905 33.1865 22.763 33.0766 22.708C32.6884 22.5139 32.5312 22.0408 32.7245 21.6533L33.5104 20.0816C33.6448 19.8136 33.9144 19.647 34.2145 19.647C34.3364 19.647 34.4551 19.6746 34.565 19.7304C34.9525 19.9237 35.1104 20.3967 34.9164 20.7842L34.1305 22.356C33.9968 22.6247 33.7273 22.7905 33.4271 22.7905Z" fill="white"/>
<path d="M3.00922 35.0001C2.92435 35.0001 2.84105 34.9867 2.7601 34.9592L1.09327 34.4036C0.83315 34.3171 0.639826 34.1057 0.576957 33.8385C0.514087 33.5721 0.591888 33.2963 0.785998 33.103L3.00922 30.8798C3.15775 30.7311 3.35501 30.6494 3.56483 30.6494C3.77466 30.6494 3.97191 30.7311 4.12044 30.8798C4.26897 31.0283 4.3507 31.2255 4.3507 31.4353C4.3507 31.6452 4.26897 31.8425 4.12044 31.9909L2.79625 33.3151L3.25756 33.4683C3.25756 33.4683 3.25834 33.4683 3.25834 33.4692C3.45717 33.5352 3.61827 33.675 3.71179 33.8629C3.80531 34.0499 3.82103 34.2637 3.75423 34.4625C3.64735 34.7839 3.34793 35.0001 3.00922 35.0001Z" fill="white"/>
<path d="M1.34163 34.4442C1.00292 34.4442 0.703504 34.2281 0.596626 33.9067L0.0402305 32.2398C-0.0965108 31.828 0.126676 31.3824 0.537686 31.2458C0.61863 31.2182 0.701933 31.2048 0.786021 31.2048C1.12473 31.2048 1.42493 31.421 1.53181 31.7424L2.08742 33.4092C2.15343 33.6088 2.1385 33.8218 2.04498 34.0097C1.95068 34.1975 1.78958 34.3374 1.59075 34.4034C1.50981 34.4309 1.4265 34.4442 1.34163 34.4442Z" fill="white"/>
<path d="M27.9268 17.2894C27.493 17.2894 27.141 16.9374 27.141 16.5036V7.85887H19.2823C18.8485 7.85887 18.4964 7.5068 18.4964 7.07299C18.4964 6.63997 18.8485 6.28711 19.2823 6.28711H27.9268C28.1335 6.28711 28.3363 6.3712 28.4824 6.51737C28.6285 6.66355 28.7127 6.8663 28.7127 7.07299V16.5036C28.7127 16.9374 28.3598 17.2894 27.9268 17.2894Z" fill="white"/>
</svg>
