<svg width="34" height="34" viewBox="0 0 34 34" fill="none" xmlns="http://www.w3.org/2000/svg">
<path d="M10.7667 28.3334C10.9959 28.3333 11.2024 28.1953 11.2901 27.9836C11.3778 27.7718 11.3294 27.5282 11.1673 27.3661L10.6007 26.7994C10.3788 26.5816 10.0229 26.5832 9.80304 26.803C9.58318 27.0229 9.58157 27.3789 9.79943 27.6007L10.3661 28.1674C10.4722 28.2738 10.6164 28.3336 10.7667 28.3334Z" fill="white"/>
<path d="M19.4327 26.4673C19.6545 26.6851 20.0105 26.6835 20.2303 26.4637C20.4502 26.2438 20.4518 25.8879 20.2339 25.666L19.6673 25.0994C19.4454 24.8815 19.0895 24.8831 18.8696 25.103C18.6498 25.3228 18.6482 25.6788 18.866 25.9006L19.4327 26.4673Z" fill="white"/>
<path d="M19.6673 30.1993C19.4454 29.9815 19.0895 29.9831 18.8696 30.2029C18.6498 30.4228 18.6482 30.7788 18.866 31.0006L19.4327 31.5673C19.6545 31.7851 20.0105 31.7835 20.2303 31.5636C20.4502 31.3438 20.4518 30.9878 20.2339 30.766L19.6673 30.1993Z" fill="white"/>
<path d="M25.666 31.5673C25.8878 31.7851 26.2437 31.7835 26.4636 31.5636C26.6835 31.3438 26.6851 30.9878 26.4672 30.766L25.9005 30.1993C25.6787 29.9815 25.3228 29.9831 25.1029 30.2029C24.883 30.4228 24.8814 30.7788 25.0993 31.0006L25.666 31.5673Z" fill="white"/>
<path d="M13.6 27.2001C13.7503 27.2003 13.8945 27.1405 14.0006 27.0341L14.5673 26.4674C14.7851 26.2455 14.7835 25.8896 14.5637 25.6697C14.3438 25.4499 13.9879 25.4483 13.766 25.6661L13.1994 26.2328C13.0374 26.3949 12.9889 26.6385 13.0766 26.8503C13.1643 27.062 13.3708 27.2 13.6 27.2001Z" fill="white"/>
<path d="M22.0999 29.4667C22.2503 29.4669 22.3944 29.4071 22.5006 29.3007L23.0672 28.734C23.2851 28.5122 23.2835 28.1562 23.0636 27.9363C22.8438 27.7165 22.4878 27.7149 22.266 27.9327L21.6993 28.4994C21.5373 28.6615 21.4888 28.9051 21.5765 29.1169C21.6642 29.3286 21.8708 29.4666 22.0999 29.4667Z" fill="white"/>
<path d="M22.6666 24.3667C22.8169 24.3669 22.9611 24.3071 23.0672 24.2007L23.6339 23.634C23.8517 23.4122 23.8501 23.0562 23.6303 22.8364C23.4104 22.6165 23.0545 22.6149 22.8326 22.8328L22.266 23.3994C22.104 23.5615 22.0555 23.8052 22.1432 24.0169C22.2309 24.2286 22.4374 24.3667 22.6666 24.3667Z" fill="white"/>
<path d="M10.9327 30.1993L10.3661 30.766C10.2208 30.9087 10.1632 31.1184 10.2154 31.3152C10.2675 31.5121 10.4212 31.6659 10.6181 31.718C10.815 31.7701 11.0247 31.7126 11.1673 31.5673L11.734 31.0006C11.9519 30.7788 11.9502 30.4228 11.7304 30.2029C11.5105 29.9831 11.1546 29.9815 10.9327 30.1993Z" fill="white"/>
<path d="M15.466 28.4994L14.8993 29.066C14.754 29.2087 14.6965 29.4184 14.7486 29.6153C14.8007 29.8122 14.9545 29.9659 15.1514 30.018C15.3482 30.0701 15.5579 30.0126 15.7006 29.8673L16.2673 29.3006C16.4851 29.0788 16.4835 28.7228 16.2637 28.503C16.0438 28.2831 15.6878 28.2815 15.466 28.4994Z" fill="white"/>
<path d="M25.4999 27.2001C25.6502 27.2003 25.7944 27.1405 25.9005 27.0341L26.4672 26.4674C26.6851 26.2455 26.6834 25.8896 26.4636 25.6697C26.2437 25.4499 25.8878 25.4483 25.6659 25.6661L25.0993 26.2328C24.9373 26.3949 24.8888 26.6385 24.9765 26.8503C25.0642 27.062 25.2708 27.2 25.4999 27.2001Z" fill="white"/>
<path d="M4.69947 30.766L4.13281 31.3326C3.98751 31.4753 3.92996 31.685 3.98208 31.8819C4.03419 32.0788 4.18795 32.2325 4.38481 32.2846C4.58168 32.3368 4.79137 32.2792 4.93407 32.1339L5.50073 31.5672C5.71858 31.3454 5.71697 30.9894 5.49711 30.7696C5.27726 30.5497 4.92131 30.5481 4.69947 30.766Z" fill="white"/>
<path d="M8.09943 29.6327L7.53277 30.1993C7.38747 30.342 7.32992 30.5517 7.38204 30.7486C7.43415 30.9455 7.58791 31.0992 7.78478 31.1513C7.98165 31.2035 8.19134 31.1459 8.33403 31.0006L8.90069 30.4339C9.11855 30.2121 9.11693 29.8561 8.89708 29.6363C8.67722 29.4164 8.32127 29.4148 8.09943 29.6327Z" fill="white"/>
<path d="M13.434 27.9327C13.3278 27.8264 13.1837 27.7667 13.0334 27.7667C12.8831 27.7667 12.739 27.8264 12.6327 27.9327L12.0661 28.4994C11.9214 28.6422 11.8644 28.8516 11.9166 29.0481C11.9688 29.2445 12.1222 29.398 12.3187 29.4502C12.5152 29.5024 12.7245 29.4453 12.8674 29.3007L13.434 28.734C13.5403 28.6278 13.6 28.4836 13.6 28.3334C13.6 28.1831 13.5403 28.039 13.434 27.9327Z" fill="white"/>
<path d="M14.0006 30.766C13.7788 30.5481 13.4229 30.5497 13.203 30.7696C12.9831 30.9894 12.9815 31.3454 13.1994 31.5672L13.766 32.1339C13.9087 32.2792 14.1184 32.3368 14.3153 32.2846C14.5122 32.2325 14.6659 32.0788 14.718 31.8819C14.7702 31.685 14.7126 31.4753 14.5673 31.3326L14.0006 30.766Z" fill="white"/>
<path d="M22.8326 30.1993L22.266 30.766C22.1207 30.9087 22.0631 31.1184 22.1153 31.3152C22.1674 31.5121 22.3211 31.6659 22.518 31.718C22.7149 31.7701 22.9246 31.7126 23.0672 31.5673L23.6339 31.0006C23.8518 30.7788 23.8501 30.4228 23.6303 30.2029C23.4104 29.9831 23.0545 29.9815 22.8326 30.1993Z" fill="white"/>
<path d="M28.4993 32.1339C28.7211 32.3518 29.0771 32.3501 29.2969 32.1303C29.5168 31.9104 29.5184 31.5545 29.3005 31.3326L28.7339 30.766C28.512 30.5481 28.1561 30.5497 27.9362 30.7696C27.7164 30.9894 27.7147 31.3454 27.9326 31.5672L28.4993 32.1339Z" fill="white"/>
<path d="M22.6666 26.6333C22.8169 26.6335 22.9611 26.5737 23.0672 26.4673L23.6339 25.9006C23.8517 25.6788 23.8501 25.3228 23.6303 25.103C23.4104 24.8831 23.0545 24.8815 22.8326 25.0994L22.266 25.666C22.104 25.8281 22.0555 26.0718 22.1432 26.2835C22.2309 26.4952 22.4374 26.6333 22.6666 26.6333Z" fill="white"/>
<path d="M18.1333 28.9C18.2836 28.9002 18.4278 28.8405 18.534 28.734L19.1006 28.1673C19.3185 27.9455 19.3169 27.5895 19.097 27.3697C18.8772 27.1498 18.5212 27.1482 18.2994 27.3661L17.7327 27.9327C17.5707 28.0948 17.5222 28.3385 17.6099 28.5502C17.6976 28.7619 17.9042 28.9 18.1333 28.9Z" fill="white"/>
<path d="M16.8217 17.1418C18.3317 17.632 19.9062 17.8947 21.4934 17.9212C23.592 17.9573 25.6492 17.335 27.3759 16.1418C33.6329 11.7773 33.9877 1.03696 33.9998 0.5818C34.0038 0.421022 33.9394 0.266098 33.8228 0.15542C33.7065 0.0439552 33.5477 -0.0119158 33.3873 0.00213142C25.7196 0.623858 20.4254 2.95775 17.6519 6.93933C15.7631 9.73843 15.1153 13.1937 15.8619 16.4869C15.6353 17.0424 15.4608 17.6178 15.3405 18.2055C15.0363 17.6948 14.6767 17.2192 14.2682 16.7873C14.801 14.2533 14.2842 11.6116 12.8358 9.46525C10.6749 6.36354 6.5627 4.54597 0.61276 4.06368C0.452267 4.0495 0.293478 4.10539 0.177253 4.21697C0.0605688 4.32765 -0.00377351 4.48257 0.000171299 4.64335C0.00957787 4.99668 0.285162 13.3378 5.16099 16.7386C6.51289 17.6737 8.12381 18.1615 9.76733 18.1337C11.004 18.1132 12.2308 17.9087 13.4073 17.5269C14.1836 18.3575 14.7701 19.3469 15.1264 20.4265C15.1363 21.4314 15.2697 22.4313 15.5237 23.4036C14.6709 23.0274 13.7491 22.8329 12.817 22.8325C9.53333 22.8655 6.72174 25.1943 6.07795 28.4144C5.73967 28.3419 5.39464 28.3054 5.04866 28.3057C2.24004 28.3309 -0.0182813 30.6246 0.000171299 33.4333C0.000132206 33.5836 0.0598213 33.7278 0.166099 33.8341C0.272377 33.9403 0.416532 34 0.566832 34H33.4332C33.5835 34 33.7276 33.9403 33.8339 33.8341C33.9402 33.7278 33.9999 33.5836 33.9998 33.4333C34.0164 30.7039 31.8806 28.4455 29.1544 28.3098C29.1976 27.9925 29.2192 27.6725 29.2192 27.3522C29.2799 24.3192 27.3287 21.6111 24.4324 20.7086C21.5362 19.8062 18.3921 20.9266 16.7192 23.4572C16.0869 21.3939 16.1228 19.1835 16.8217 17.1418ZM5.81177 15.8106C2.13622 13.2496 1.33879 7.22764 1.17445 5.25234C6.4072 5.77834 10.0125 7.40749 11.8962 10.0994C12.9144 11.5937 13.4141 13.3808 13.3188 15.1865C11.7746 12.8383 8.15042 8.16569 2.52967 5.85138C2.34239 5.77399 2.12804 5.80248 1.96748 5.92611C1.80692 6.04973 1.72457 6.24968 1.75151 6.45052C1.77845 6.65136 1.91057 6.82254 2.09804 6.89949C8.0255 9.33994 11.7117 14.7205 12.8154 16.52C10.0136 17.3257 7.65587 17.0962 5.81177 15.8106ZM18.5915 7.57323C21.0884 4.0014 25.8767 1.85485 32.8294 1.18913C32.6534 3.53824 31.69 11.751 26.7273 15.2124C24.2412 16.9466 21.0622 17.2424 17.2775 16.1044C18.5581 13.9734 23.4189 6.63667 31.3823 3.35756C31.5696 3.28046 31.7014 3.10932 31.7283 2.90863C31.7551 2.70794 31.6728 2.50817 31.5124 2.38458C31.3521 2.26099 31.1379 2.23236 30.9507 2.30946C23.3341 5.44589 18.558 11.94 16.7495 14.7892C16.5067 12.243 17.1579 9.69156 18.5915 7.57323ZM17.4444 24.4384C18.4469 22.6532 20.3309 21.544 22.3783 21.5334C25.5595 21.568 28.1126 24.1709 28.0859 27.3522C28.0858 27.8296 28.029 28.3052 27.9165 28.7692C27.872 28.9526 27.9218 29.1462 28.0493 29.2854C28.1767 29.4246 28.3652 29.4912 28.5518 29.4631C28.6842 29.445 28.8177 29.437 28.9513 29.439C30.9163 29.4578 32.5683 30.9188 32.8272 32.8667H1.17279C1.43172 30.9188 3.08373 29.4578 5.04866 29.439C5.31427 29.4387 5.57916 29.4667 5.83888 29.5223C6.14584 29.5878 6.46622 29.5289 6.72983 29.3585C6.98602 29.1913 7.16351 28.9273 7.22178 28.627C7.7393 25.9393 10.0801 23.9893 12.817 23.9658C13.8825 23.9657 14.9258 24.2701 15.8241 24.8432C16.0903 25.0133 16.4148 25.0662 16.7214 24.9896C17.0279 24.9131 17.2894 24.7137 17.4444 24.4384L17.4444 24.4384Z" fill="white"/>
</svg>
