<svg width="43" height="43" viewBox="0 0 43 43" fill="none" xmlns="http://www.w3.org/2000/svg">
<path d="M0.651515 9.44588C0.325758 9.44588 0 9.77102 0 10.0962C0 13.2825 2.41061 15.8836 5.53788 16.2087V17.8994C5.53788 18.2896 5.79848 18.5497 6.18939 18.5497C6.5803 18.5497 6.84091 18.2896 6.84091 17.8994V16.2087C10.0985 16.0136 12.7045 13.3475 12.7045 10.0311C12.7045 9.64097 12.3788 9.38086 12.053 9.38086C9.90303 9.38086 7.94848 10.4863 6.90606 12.177V10.5514C8.07879 10.1612 9.31667 8.99069 10.0985 7.49506C11.3364 5.08905 11.1409 2.48796 9.51212 0.277025C9.38182 0.0819429 9.05606 -0.0481118 8.79545 0.0169155C8.53485 0.0819429 8.33939 0.342052 8.33939 0.602162C8.33939 0.602162 8.14394 3.13823 6.25455 3.46337C4.88636 3.72348 3.97424 4.89397 3.71364 6.58468C3.51818 8.01528 3.90909 9.90108 5.27727 10.5514C5.34242 10.6164 5.40758 10.6164 5.53788 10.6164V11.7869C4.4303 10.3563 2.60606 9.44588 0.651515 9.44588ZM1.36818 10.7464C3.51818 11.0716 5.21212 12.7623 5.47273 14.8432C3.32273 14.583 1.62879 12.8923 1.36818 10.7464ZM11.3364 10.7464C11.0106 12.8923 9.31667 14.583 7.23182 14.8432C7.49242 12.7623 9.18636 11.0716 11.3364 10.7464ZM5.01667 6.71474C5.14697 5.86938 5.53788 4.89397 6.45 4.76391C7.94848 4.43878 8.79545 3.39834 9.18636 2.42293C9.90303 4.30872 9.38182 5.99943 8.92576 6.90982C8.07879 8.40545 6.84091 9.44588 6.05909 9.44588C5.99394 9.44588 5.92879 9.44588 5.86364 9.38086C5.21212 9.05572 4.88636 7.88523 5.01667 6.71474Z" fill="white"/>
<path d="M41.8924 33.8312C39.7424 33.8312 37.7879 34.9366 36.7455 36.6273V35.0017C37.9182 34.6115 39.1561 33.441 39.9379 31.9454C41.1758 29.5394 40.9803 26.9383 39.3515 24.7273C39.2212 24.5323 38.8955 24.4022 38.6348 24.4672C38.3742 24.5323 38.1788 24.7924 38.1788 25.0525C38.1788 25.1825 37.9833 27.5885 36.0939 27.9137C34.7909 28.1738 33.8788 29.3443 33.6182 30.97C33.4227 32.5306 33.9439 34.5465 35.4424 35.0667V36.2372C34.3348 34.8066 32.5758 33.8312 30.5561 33.8312C30.1651 33.8312 29.9045 34.0913 29.9045 34.4814C29.9045 37.6678 32.3151 40.2689 35.4424 40.594V42.2847C35.4424 42.6749 35.703 42.935 36.0939 42.935C36.4848 42.935 36.7455 42.6749 36.7455 42.2847V40.594C40.003 40.3989 42.6091 37.7328 42.6091 34.4164C42.5439 34.0913 42.2182 33.8312 41.8924 33.8312ZM31.2076 35.1317C33.3576 35.4569 35.0515 37.1476 35.3121 39.2284C33.2273 38.9683 31.5333 37.2776 31.2076 35.1317ZM34.8561 31.1C34.9212 30.7099 35.1818 29.3443 36.2894 29.1492C37.7879 28.8241 38.6348 27.7836 39.0258 26.8082C39.7424 28.694 39.2212 30.3847 38.7651 31.2951C38.1136 32.5306 36.4848 34.1563 35.7682 33.7661C35.1167 33.441 34.7258 32.3355 34.8561 31.1ZM37.0712 39.2935C37.397 37.1476 39.0909 35.4569 41.1758 35.1967C40.85 37.2776 39.1561 38.9683 37.0712 39.2935Z" fill="white"/>
<path d="M17.0697 30.4497H17.7212C18.1122 30.4497 18.3728 30.1896 18.3728 29.7994C18.3728 29.4093 18.1122 29.1492 17.7212 29.1492H17.0697C16.6788 29.1492 16.4182 29.4093 16.4182 29.7994C16.4182 30.1896 16.6788 30.4497 17.0697 30.4497Z" fill="white"/>
<path d="M22.2818 29.1492C21.8909 29.1492 21.6302 29.4093 21.6302 29.7994C21.6302 30.1896 21.8909 30.4497 22.2818 30.4497H22.9333C23.3242 30.4497 23.5848 30.1896 23.5848 29.7994C23.5848 29.4093 23.3242 29.1492 22.9333 29.1492H22.2818Z" fill="white"/>
<path d="M20.3272 29.1492H19.6757C19.2848 29.1492 19.0242 29.4093 19.0242 29.7994C19.0242 30.1896 19.2848 30.4497 19.6757 30.4497H20.3272C20.7181 30.4497 20.9787 30.1896 20.9787 29.7994C20.9787 29.4093 20.653 29.1492 20.3272 29.1492Z" fill="white"/>
<path d="M15.7666 29.7994C15.7666 29.4093 15.506 29.1492 15.115 29.1492H14.4635C14.0726 29.1492 13.812 29.4093 13.812 29.7994C13.812 30.1896 14.0726 30.4497 14.4635 30.4497H15.115C15.4408 30.4497 15.7666 30.1246 15.7666 29.7994Z" fill="white"/>
<path d="M20.0015 35.3918C19.7409 35.1967 19.2848 35.2617 19.0894 35.5218C18.8939 35.7819 18.9591 36.2371 19.2197 36.4322L19.7409 36.8224C20.0015 37.0174 20.4575 36.9524 20.653 36.6923C20.8484 36.4322 20.7833 35.977 20.5227 35.7819L20.0015 35.3918Z" fill="white"/>
<path d="M17.656 35.3267C17.9166 35.5218 18.3727 35.4568 18.5682 35.1967C18.7636 34.9366 18.6985 34.4814 18.4378 34.2863L17.9166 33.8961C17.656 33.7011 17.2 33.7661 17.0045 34.0262C16.8091 34.2863 16.8742 34.7415 17.1348 34.9366L17.656 35.3267Z" fill="white"/>
<path d="M12.9 31.8152L13.4212 32.2054C13.6818 32.4005 14.1378 32.3355 14.3333 32.0754C14.5287 31.8152 14.4636 31.3601 14.203 31.165L13.6818 30.7748C13.4212 30.5797 12.9651 30.6448 12.7697 30.9049C12.5742 31.23 12.6393 31.6202 12.9 31.8152Z" fill="white"/>
<path d="M15.506 33.7662C15.7666 33.9613 16.2227 33.8963 16.4181 33.6361C16.6136 33.376 16.5484 32.9208 16.2878 32.7258L15.7666 32.3356C15.506 32.1405 15.0499 32.2055 14.8545 32.4657C14.659 32.7258 14.7242 33.181 14.9848 33.376L15.506 33.7662Z" fill="white"/>
<path d="M13.6818 28.759L14.203 28.3688C14.4636 28.1737 14.5287 27.7186 14.3333 27.4585C14.1378 27.1983 13.6818 27.1333 13.4212 27.3284L12.9 27.7186C12.6393 27.9136 12.5742 28.3688 12.7697 28.6289C12.9651 28.8891 13.4212 28.9541 13.6818 28.759Z" fill="white"/>
<path d="M15.7666 27.1983L16.2878 26.8082C16.5484 26.6131 16.6136 26.1579 16.4181 25.8978C16.2227 25.6377 15.7666 25.5726 15.506 25.7677L14.9848 26.1579C14.7242 26.353 14.659 26.8082 14.8545 27.0683C15.1151 27.3284 15.506 27.3934 15.7666 27.1983Z" fill="white"/>
<path d="M20.0015 24.1421L20.5227 23.7519C20.7833 23.5568 20.8484 23.1016 20.653 22.8415C20.4575 22.5814 20.0015 22.5164 19.7409 22.7115L19.2197 23.1016C18.9591 23.2967 18.8939 23.7519 19.0894 24.012C19.2848 24.2721 19.6757 24.3371 20.0015 24.1421Z" fill="white"/>
<path d="M12.2485 29.0191C12.053 28.759 11.5969 28.694 11.3363 28.8891L10.8151 29.2792C10.4894 29.5393 10.4894 30.0596 10.8151 30.3197L11.3363 30.7098C11.5969 30.9049 12.053 30.8399 12.2485 30.5798C12.4439 30.3197 12.3788 30.0596 12.2485 29.7994C12.3788 29.5393 12.4439 29.2142 12.2485 29.0191Z" fill="white"/>
<path d="M18.5682 24.4022C18.3727 24.1421 17.9166 24.077 17.656 24.2721L17.1348 24.6623C16.8742 24.8574 16.8091 25.3126 17.0045 25.5727C17.2 25.8328 17.656 25.8978 17.9166 25.7027L18.4378 25.3126C18.6985 25.0525 18.7636 24.6623 18.5682 24.4022Z" fill="white"/>
<path d="M40.5894 11.3309H39.6121V7.75437C41.0455 7.55929 42.2182 6.51885 42.4136 5.08825C42.8697 3.98278 41.4364 0.0161133 37.6576 0.0161133C34.2045 0.0161133 32.3803 3.59262 32.9015 5.02322C33.097 6.3888 34.2045 7.49426 35.5727 7.68934V11.2658H34.5955C33.2924 11.2658 32.1848 12.3713 32.1848 13.6719C32.1848 14.9724 33.2273 16.0779 34.5955 16.0779V17.6385H31.4682C27.95 17.6385 25.0833 20.4997 25.0833 24.0762V34.6107C25.0833 37.4069 22.803 39.7478 19.9364 39.7478H8.4697V37.2768C9.77273 37.2768 10.8803 36.1713 10.8803 34.8708C10.8803 33.5702 9.77273 32.4648 8.4697 32.4648H7.49242V28.8883C8.86061 28.6282 9.90303 27.5877 10.1636 26.2221C10.6197 25.1167 9.18636 21.15 5.40758 21.15C2.93182 21.15 0.84697 23.0358 0.586364 25.5068C0.586364 25.5719 0.586364 25.6369 0.586364 25.7019V25.962C0.586364 26.0271 0.586364 26.0921 0.651515 26.1571C0.84697 27.5877 2.0197 28.6932 3.51818 28.8883V32.4648H2.41061C1.10758 32.4648 0 33.5702 0 34.8708C0 36.1713 1.04242 37.2768 2.41061 37.2768V42.3489C2.41061 42.7391 2.67121 42.9992 3.06212 42.9992H7.81818C8.20909 42.9992 8.4697 42.7391 8.4697 42.3489V41.1134H19.8712C23.3894 41.1134 26.3212 38.2522 26.3212 34.6757V24.0762C26.3212 21.2801 28.6015 18.9391 31.403 18.9391H34.5303V21.15C34.5303 21.5402 34.7909 21.8003 35.1818 21.8003H39.9379C40.3288 21.8003 40.5894 21.5402 40.5894 21.15V16.0779C41.8924 16.0779 43 14.9724 43 13.6719C43 12.4363 41.8924 11.3309 40.5894 11.3309ZM1.82424 25.767C1.88939 23.8812 3.45303 22.3855 5.34242 22.3855C7.23182 22.3855 8.79545 23.8812 8.86061 25.7019C8.79545 26.7424 7.94848 27.5227 6.90606 27.5227H3.77879C2.73636 27.5877 1.88939 26.7424 1.82424 25.767ZM4.69091 28.8883H6.18939V32.3997H4.69091V28.8883ZM1.30303 34.8058C1.30303 34.2205 1.82424 33.7003 2.41061 33.7003C4.62576 33.7003 6.25455 33.7003 8.4697 33.7003C9.05606 33.7003 9.57727 34.2205 9.57727 34.8058C9.57727 35.391 9.05606 35.9112 8.4697 35.9112H2.41061C1.82424 35.9112 1.30303 35.456 1.30303 34.8058ZM7.16667 41.6336H3.71364V37.2118H7.16667V41.6336ZM37.6576 1.31666C41.3712 1.31666 42.4788 6.51885 39.2212 6.51885H36.0939C32.8364 6.51885 33.9439 1.31666 37.6576 1.31666ZM36.8106 7.8194H38.3091V11.3309H36.8106V7.8194ZM35.8333 20.5648C35.8333 20.4347 35.8333 16.0128 35.8333 16.1429H39.2864V20.5648H35.8333ZM40.5894 14.8424H34.5303C33.9439 14.8424 33.4227 14.3221 33.4227 13.7369C33.4227 13.1516 33.9439 12.6314 34.5303 12.6314C36.7455 12.6314 38.3742 12.6314 40.5894 12.6314C41.1758 12.6314 41.697 13.1516 41.697 13.7369C41.697 14.3221 41.1758 14.8424 40.5894 14.8424Z" fill="white"/>
<path d="M22.6728 9.31593H23.3243C23.7152 9.31593 23.9758 9.05582 23.9758 8.66565C23.9758 8.27549 23.7152 8.01538 23.3243 8.01538H22.6728C22.2818 8.01538 22.0212 8.27549 22.0212 8.66565C22.0212 9.05582 22.347 9.31593 22.6728 9.31593Z" fill="white"/>
<path d="M21.3697 8.66565C21.3697 8.27549 21.1091 8.01538 20.7182 8.01538H20.0667C19.6758 8.01538 19.4152 8.27549 19.4152 8.66565C19.4152 9.05582 19.6758 9.31593 20.0667 9.31593H20.7182C21.1091 9.31593 21.3697 9.05582 21.3697 8.66565Z" fill="white"/>
<path d="M26.5819 8.66565C26.5819 8.27549 26.3213 8.01538 25.9303 8.01538H25.2788C24.8879 8.01538 24.6273 8.27549 24.6273 8.66565C24.6273 9.05582 24.8879 9.31593 25.2788 9.31593H25.9303C26.3213 9.31593 26.5819 9.05582 26.5819 8.66565Z" fill="white"/>
<path d="M29.1879 8.66565C29.1879 8.27549 28.9273 8.01538 28.5364 8.01538H27.8849C27.494 8.01538 27.2334 8.27549 27.2334 8.66565C27.2334 9.05582 27.494 9.31593 27.8849 9.31593H28.5364C28.9273 9.31593 29.1879 9.05582 29.1879 8.66565Z" fill="white"/>
<path d="M27.103 12.8273C27.2333 12.8273 27.3636 12.7623 27.4939 12.6972L28.0151 12.3071C28.2757 12.112 28.3409 11.6568 28.1454 11.3967C27.95 11.1366 27.4939 11.0715 27.2333 11.2666L26.7121 11.6568C26.4515 11.8519 26.3863 12.3071 26.5818 12.5672C26.7121 12.6972 26.9075 12.8273 27.103 12.8273Z" fill="white"/>
<path d="M24.4318 14.0628C24.5621 14.2579 24.7575 14.3229 24.953 14.3229C25.0833 14.3229 25.2136 14.2579 25.3439 14.1928L25.8651 13.8027C26.1257 13.6076 26.1908 13.1524 25.9954 12.8923C25.7999 12.6322 25.3439 12.5672 25.0833 12.7622L24.5621 13.1524C24.3015 13.4125 24.2363 13.8027 24.4318 14.0628Z" fill="white"/>
<path d="M23.9106 14.453C23.7151 14.1928 23.259 14.1278 22.9984 14.3229L22.4772 14.7131C22.2166 14.9081 22.1515 15.3633 22.3469 15.6234C22.4772 15.8185 22.6727 15.8836 22.8681 15.8836C22.9984 15.8836 23.1287 15.8185 23.259 15.7535L23.7803 15.3633C24.106 15.1683 24.1712 14.7781 23.9106 14.453Z" fill="white"/>
<path d="M29.1878 11.2666C29.3181 11.2666 29.4484 11.2016 29.5787 11.1366L30.1 10.7464C30.3606 10.5513 30.4257 10.0961 30.2303 9.83601C30.0348 9.5759 29.5787 9.51088 29.3181 9.70596L28.7969 10.0961C28.5363 10.2912 28.4712 10.7464 28.6666 11.0065C28.7969 11.1366 28.9924 11.2666 29.1878 11.2666Z" fill="white"/>
<path d="M30.1 6.58465L29.5787 6.19448C29.3181 5.9994 28.8621 6.06443 28.6666 6.32454C28.4712 6.58465 28.5363 7.03984 28.7969 7.23492L29.3181 7.62509C29.4484 7.69011 29.5787 7.75514 29.709 7.75514C29.9045 7.75514 30.1 7.69011 30.2303 7.49503C30.4257 7.23492 30.3606 6.84476 30.1 6.58465Z" fill="white"/>
<path d="M23.7803 1.9677L23.259 1.57754C22.9984 1.38246 22.5424 1.44749 22.3469 1.7076C22.1515 1.9677 22.2166 2.4229 22.4772 2.61798L22.9984 3.00814C23.1287 3.07317 23.259 3.1382 23.3893 3.1382C23.5848 3.1382 23.7803 3.07317 23.9106 2.87809C24.1712 2.61798 24.106 2.22781 23.7803 1.9677Z" fill="white"/>
<path d="M32.1849 8.14532L31.6637 7.75515C31.4031 7.56007 30.947 7.6251 30.7516 7.88521C30.5561 8.14532 30.6213 8.40543 30.7516 8.66554C30.5561 8.86062 30.5561 9.18576 30.7516 9.44586C31.2728 10.1612 32.0546 9.25078 32.1849 9.18576C32.3152 9.12073 32.4455 8.86062 32.4455 8.66554C32.4455 8.47045 32.3152 8.21034 32.1849 8.14532Z" fill="white"/>
<path d="M25.1484 4.56881C25.2787 4.63384 25.409 4.69887 25.5393 4.69887C25.7348 4.69887 25.9302 4.63384 26.0605 4.43876C26.256 4.17865 26.1909 3.72346 25.9302 3.52837L25.409 3.13821C25.0833 2.94313 24.6924 3.00815 24.4318 3.26826C24.2363 3.52837 24.3015 3.98357 24.5621 4.17865L25.1484 4.56881Z" fill="white"/>
<path d="M27.2333 6.12948C27.3636 6.19451 27.4939 6.25954 27.6243 6.25954C27.8197 6.25954 28.0152 6.19451 28.1455 5.99943C28.3409 5.73932 28.2758 5.28412 28.0152 5.08904L27.4939 4.69888C27.2333 4.5038 26.7773 4.56882 26.5818 4.82893C26.3212 5.08904 26.3864 5.54423 26.7121 5.73932L27.2333 6.12948Z" fill="white"/>
</svg>
