<svg width="32" height="33" viewBox="0 0 32 33" fill="none" xmlns="http://www.w3.org/2000/svg">
<path d="M16 0C7.16479 0 0 7.38869 0 16.5C0 25.6113 7.16479 33 16 33C24.8352 33 32 25.6113 32 16.5C32 7.38869 24.8352 0 16 0ZM25.1321 20.4062C25.0876 21.4148 24.9321 22.1034 24.7051 22.7061C24.2278 23.9788 23.2522 24.9849 22.0181 25.4771C21.4338 25.7113 20.7659 25.8714 19.7881 25.9175C18.8083 25.9635 18.4954 25.9746 16.0002 25.9746C13.5049 25.9746 13.1921 25.9635 12.2122 25.9175C11.2344 25.8714 10.5664 25.7113 9.98218 25.4771C9.3689 25.2392 8.81372 24.8663 8.35474 24.3842C7.88745 23.9111 7.52588 23.3383 7.29517 22.7061C7.06812 22.1036 6.9126 21.4148 6.86816 20.4065C6.823 19.3959 6.8125 19.0731 6.8125 16.5C6.8125 13.9269 6.823 13.6041 6.86792 12.5938C6.91235 11.5852 7.06763 10.8966 7.29468 10.2939C7.52539 9.66167 7.88721 9.0889 8.35474 8.61582C8.81348 8.13368 9.3689 7.76081 9.98193 7.52289C10.5664 7.28874 11.2341 7.12862 12.2122 7.08254C13.1919 7.03647 13.5049 7.02539 16 7.02539C18.4951 7.02539 18.8081 7.03647 19.7878 7.08279C20.7659 7.12862 21.4336 7.28874 22.0181 7.52264C22.6311 7.76056 23.1865 8.13368 23.6455 8.61582C24.1128 9.08915 24.4746 9.66167 24.7051 10.2939C24.9324 10.8966 25.0876 11.5852 25.1323 12.5938C25.177 13.6041 25.1875 13.9269 25.1875 16.5C25.1875 19.0731 25.177 19.3959 25.1321 20.4062Z" fill="white"/>
</svg>
